<svg width="48" height="48" viewBox="0 0 48 48" fill="none" xmlns="http://www.w3.org/2000/svg">
<g clip-path="url(#clip0)" filter="url(#filter0_dd)">
<path d="M24.0593 23.512C26.4273 23.512 28.1713 23.984 29.2913 24.928C30.4273 25.872 30.9953 27.136 30.9953 28.72C30.9953 29.744 30.7393 30.68 30.2273 31.528C29.7153 32.36 28.9313 33.032 27.8753 33.544C26.8353 34.04 25.5473 34.288 24.0113 34.288C22.8273 34.288 21.6593 34.136 20.5073 33.832C19.3713 33.512 18.4033 33.064 17.6033 32.488L19.1393 29.512C19.7793 29.992 20.5153 30.368 21.3473 30.64C22.1793 30.896 23.0353 31.024 23.9153 31.024C24.8913 31.024 25.6593 30.832 26.2193 30.448C26.7793 30.064 27.0593 29.528 27.0593 28.84C27.0593 28.12 26.7633 27.576 26.1713 27.208C25.5953 26.84 24.5873 26.656 23.1473 26.656H18.8513L19.7153 17.2H29.9633V20.32H22.9553L22.6913 23.512H24.0593Z" fill="#156EFA"/>
<g filter="url(#filter1_dd)">
<path fill-rule="evenodd" clip-rule="evenodd" d="M44.0714 24.5C44.0714 13.691 35.309 4.92859 24.5 4.92859C23.9477 4.92859 23.5 4.48087 23.5 3.92859C23.5 3.3763 23.9477 2.92859 24.5 2.92859C36.4136 2.92859 46.0714 12.5864 46.0714 24.5C46.0714 36.4136 36.4136 46.0714 24.5 46.0714C12.5864 46.0714 2.92859 36.4136 2.92859 24.5C2.92859 23.9477 3.3763 23.5 3.92859 23.5C4.48087 23.5 4.92859 23.9477 4.92859 24.5C4.92859 35.309 13.691 44.0714 24.5 44.0714C35.309 44.0714 44.0714 35.309 44.0714 24.5ZM19.1001 4.70005C19.1001 5.19711 18.6971 5.60005 18.2001 5.60005C17.703 5.60005 17.3001 5.19711 17.3001 4.70005C17.3001 4.20299 17.703 3.80005 18.2001 3.80005C18.6971 3.80005 19.1001 4.20299 19.1001 4.70005ZM11.9001 8.30005C12.3971 8.30005 12.8001 7.89711 12.8001 7.40005C12.8001 6.90299 12.3971 6.50005 11.9001 6.50005C11.403 6.50005 11.0001 6.90299 11.0001 7.40005C11.0001 7.89711 11.403 8.30005 11.9001 8.30005ZM8.30005 11.9001C8.30005 12.3971 7.89711 12.8001 7.40005 12.8001C6.90299 12.8001 6.50005 12.3971 6.50005 11.9001C6.50005 11.403 6.90299 11.0001 7.40005 11.0001C7.89711 11.0001 8.30005 11.403 8.30005 11.9001ZM4.70005 19.1001C5.19711 19.1001 5.60005 18.6971 5.60005 18.2001C5.60005 17.703 5.19711 17.3001 4.70005 17.3001C4.20299 17.3001 3.80005 17.703 3.80005 18.2001C3.80005 18.6971 4.20299 19.1001 4.70005 19.1001Z" fill="#156EFA"/>
</g>
</g>
<defs>
<filter id="filter0_dd" x="0" y="0" width="48" height="48" filterUnits="userSpaceOnUse" color-interpolation-filters="sRGB">
<feFlood flood-opacity="0" result="BackgroundImageFix"/>
<feColorMatrix in="SourceAlpha" type="matrix" values="0 0 0 0 0 0 0 0 0 0 0 0 0 0 0 0 0 0 127 0" result="hardAlpha"/>
<feOffset dx="-1" dy="-1"/>
<feGaussianBlur stdDeviation="0.5"/>
<feColorMatrix type="matrix" values="0 0 0 0 0.941892 0 0 0 0 0.960553 0 0 0 0 0.995833 0 0 0 0.1 0"/>
<feBlend mode="normal" in2="BackgroundImageFix" result="effect1_dropShadow"/>
<feColorMatrix in="SourceAlpha" type="matrix" values="0 0 0 0 0 0 0 0 0 0 0 0 0 0 0 0 0 0 127 0" result="hardAlpha"/>
<feOffset dx="0.5" dy="0.5"/>
<feGaussianBlur stdDeviation="0.25"/>
<feColorMatrix type="matrix" values="0 0 0 0 0.0685764 0 0 0 0 0.162678 0 0 0 0 0.329167 0 0 0 0.2 0"/>
<feBlend mode="normal" in2="effect1_dropShadow" result="effect2_dropShadow"/>
<feBlend mode="normal" in="SourceGraphic" in2="effect2_dropShadow" result="shape"/>
</filter>
<filter id="filter1_dd" x="0.928589" y="0.928589" width="46.1429" height="46.1429" filterUnits="userSpaceOnUse" color-interpolation-filters="sRGB">
<feFlood flood-opacity="0" result="BackgroundImageFix"/>
<feColorMatrix in="SourceAlpha" type="matrix" values="0 0 0 0 0 0 0 0 0 0 0 0 0 0 0 0 0 0 127 0" result="hardAlpha"/>
<feOffset dx="-1" dy="-1"/>
<feGaussianBlur stdDeviation="0.5"/>
<feColorMatrix type="matrix" values="0 0 0 0 0.941892 0 0 0 0 0.960553 0 0 0 0 0.995833 0 0 0 0.1 0"/>
<feBlend mode="normal" in2="BackgroundImageFix" result="effect1_dropShadow"/>
<feColorMatrix in="SourceAlpha" type="matrix" values="0 0 0 0 0 0 0 0 0 0 0 0 0 0 0 0 0 0 127 0" result="hardAlpha"/>
<feOffset dx="0.5" dy="0.5"/>
<feGaussianBlur stdDeviation="0.25"/>
<feColorMatrix type="matrix" values="0 0 0 0 0.0685764 0 0 0 0 0.162678 0 0 0 0 0.329167 0 0 0 0.2 0"/>
<feBlend mode="normal" in2="effect1_dropShadow" result="effect2_dropShadow"/>
<feBlend mode="normal" in="SourceGraphic" in2="effect2_dropShadow" result="shape"/>
</filter>
<clipPath id="clip0">
<rect width="45" height="45" fill="white" transform="translate(2 2)"/>
</clipPath>
</defs>
</svg>
