<svg width="53" height="53" viewBox="0 0 53 53" fill="none" xmlns="http://www.w3.org/2000/svg">
<g filter="url(#filter0_dd)">
<path d="M44.4164 8.479L39.5 13.3954L38.4898 12.3853L37.3851 13.4899L39.5 15.6048L45.5211 9.58369L44.4164 8.479Z" fill="#156EFA"/>
<path d="M41.0625 34.8125C37.6164 34.8125 34.8125 37.6164 34.8125 41.0625C34.8125 44.5086 37.6164 47.3125 41.0625 47.3125C44.5086 47.3125 47.3125 44.5086 47.3125 41.0625C47.3125 37.6164 44.5086 34.8125 41.0625 34.8125ZM41.0625 45.75C38.4773 45.75 36.375 43.6477 36.375 41.0625C36.375 38.4773 38.4773 36.375 41.0625 36.375C43.6477 36.375 45.75 38.4773 45.75 41.0625C45.75 43.6477 43.6477 45.75 41.0625 45.75Z" fill="#156EFA"/>
<path d="M41.0625 37.9375C39.3391 37.9375 37.9375 39.3391 37.9375 41.0625C37.9375 42.7859 39.3391 44.1875 41.0625 44.1875C42.7859 44.1875 44.1875 42.7859 44.1875 41.0625C44.1875 39.3391 42.7859 37.9375 41.0625 37.9375ZM41.0625 42.625C40.2008 42.625 39.5 41.9242 39.5 41.0625C39.5 40.2008 40.2008 39.5 41.0625 39.5C41.9242 39.5 42.625 40.2008 42.625 41.0625C42.625 41.9242 41.9242 42.625 41.0625 42.625Z" fill="#156EFA"/>
<path d="M51.2188 43.9594V38.1657L49.7922 37.6625C49.7438 37.5391 49.693 37.4165 49.6391 37.2946L50.2922 35.9282L46.1953 31.8329L44.8297 32.486C44.707 32.4321 44.5844 32.3805 44.4617 32.3329L43.9594 30.9063H41.8438V19.8829C42.2281 19.8047 42.6008 19.6774 42.943 19.4883C45.6492 17.9993 48.875 15.7883 48.875 13.7188C48.875 11.2938 47.3477 5.91958 47.282 5.69224L47.1203 5.12505H46.5312C44.725 5.12505 43.0266 4.42192 41.7492 3.14536L41.0625 2.4563L40.3766 3.14458C39.0984 4.42192 37.4 5.12505 35.5938 5.12505H35.0047L34.843 5.69224C34.7891 5.87817 33.7563 9.51333 33.3836 12.1563H28.7555C27.0836 6.73364 22.0266 2.7813 16.0625 2.7813C8.73906 2.7813 2.78125 8.73911 2.78125 16.0625C2.78125 20.3274 4.85078 24.361 8.31875 26.854L9.23047 25.586C8.25547 24.8844 7.42188 24.0336 6.71641 23.0938H10.0859C10.4445 24.2 10.8875 25.2 11.4047 26.0641C10.9227 26.3805 10.4648 26.75 10.0414 27.1735L11.1461 28.2782C13.8867 25.536 18.3477 25.536 21.0898 28.2782L22.1945 27.1735C21.7477 26.7266 21.2609 26.3438 20.7492 26.0157C21.2539 25.1633 21.6875 24.1797 22.0391 23.0938H25.4086C24.6953 24.0438 23.8508 24.9024 22.8617 25.6086L23.7695 26.8797C27.2602 24.3883 29.3438 20.3446 29.3438 16.0625C29.3438 15.2618 29.2602 14.4813 29.1242 13.7188H33.25C33.25 15.7883 36.4758 17.9993 39.1828 19.4891C39.525 19.6774 39.8969 19.8055 40.2812 19.8836V30.9063H38.1656L37.6617 32.3329C37.5391 32.3813 37.4164 32.4321 37.2938 32.486L35.9281 31.8329L31.8312 35.9282L32.4844 37.2946C32.4305 37.4157 32.3797 37.5391 32.3313 37.6625L30.9062 38.1657V40.2813H25.4375V36.375C25.4375 35.0829 24.3859 34.0313 23.0938 34.0313H18.318C18.4055 33.786 18.4617 33.525 18.4617 33.25C18.4617 31.9579 17.4102 30.9063 16.118 30.9063C14.8258 30.9063 13.7742 31.9579 13.7742 33.25C13.7742 33.525 13.8305 33.786 13.918 34.0313H9.03125C7.73906 34.0313 6.6875 35.0829 6.6875 36.375V45.75C6.6875 47.0422 7.73906 48.0938 9.03125 48.0938H12.1562V49.6563H10.5938V51.2188H21.5312V49.6563H19.9688V48.0938H23.0938C24.3859 48.0938 25.4375 47.0422 25.4375 45.75V41.8438H30.9062V43.9594L32.3328 44.4626C32.3813 44.586 32.432 44.7086 32.4859 44.8305L31.8328 46.1969L35.9297 50.2922L37.2953 49.6391C37.418 49.693 37.5406 49.7446 37.6633 49.7922L38.1656 51.2188H43.9586L44.4625 49.7922C44.5852 49.7438 44.7078 49.693 44.8305 49.6391L46.1961 50.2922L50.293 46.1969L49.6398 44.8305C49.6937 44.7094 49.7445 44.586 49.793 44.4626L51.2188 43.9594ZM23.0734 15.2813C23.0242 13.6102 22.8219 12.0313 22.4859 10.5938H26.4188C27.1695 12.0094 27.6297 13.5977 27.7414 15.2813H23.0734ZM4.38359 15.2813C4.49531 13.5977 4.95547 12.0094 5.70625 10.5938H9.63906C9.30312 12.0313 9.10078 13.6102 9.05156 15.2813H4.38359ZM10.6125 15.2813C10.6672 13.6079 10.8891 12.0165 11.25 10.5938H20.8742C21.2352 12.0165 21.457 13.6079 21.5117 15.2813H10.6125ZM21.5078 16.8438C21.4547 18.4969 21.2422 20.0922 20.8766 21.5313H11.2484C10.8828 20.0922 10.6703 18.4985 10.6172 16.8438H21.5078ZM16.0625 4.3438C17.8062 4.3438 19.3859 6.20864 20.3953 9.0313H11.7297C12.7391 6.20864 14.3188 4.3438 16.0625 4.3438ZM25.4156 9.0313H22.05C21.5359 7.45083 20.8562 6.09224 20.0453 5.05552C22.2008 5.83833 24.0586 7.2313 25.4156 9.0313ZM12.0797 5.05552C11.2688 6.09224 10.5891 7.45083 10.075 9.0313H6.70937C8.06641 7.2313 9.92422 5.83833 12.0797 5.05552ZM5.71094 21.5313C4.95 20.0915 4.50234 18.4954 4.39062 16.8438H9.05547C9.10625 18.4813 9.31094 20.0665 9.65469 21.5313H5.71094ZM19.3609 25.2915C17.2578 24.4375 14.8844 24.454 12.7891 25.3313C12.3859 24.675 12.0305 23.9258 11.7305 23.093H20.3938C20.1 23.9094 19.7531 24.6454 19.3609 25.2915ZM22.4703 21.5313C22.8141 20.0657 23.0195 18.4805 23.0695 16.8438H27.7336C27.6219 18.4961 27.1758 20.0922 26.4156 21.5313H22.4703ZM34.8125 13.7188C34.8125 11.9313 35.8078 8.09067 36.1945 6.66646C38.0023 6.53911 39.6961 5.83364 41.0625 4.64067C42.4281 5.83286 44.1227 6.53911 45.9305 6.66646C46.3172 8.09067 47.3125 11.9313 47.3125 13.7188C47.3125 14.5055 45.7281 16.1719 42.1891 18.1204C41.5078 18.4946 40.6164 18.4946 39.9359 18.1204C36.3969 16.1719 34.8125 14.5055 34.8125 13.7188ZM15.3367 33.25C15.3367 32.8188 15.6875 32.4688 16.118 32.4688C16.5484 32.4688 16.8992 32.8188 16.8992 33.25C16.8992 33.6813 16.5484 34.0313 16.118 34.0313C15.6875 34.0313 15.3367 33.6813 15.3367 33.25ZM9.03125 35.5938H23.0938C23.5242 35.5938 23.875 35.9438 23.875 36.375V43.4063H8.25V36.375C8.25 35.9438 8.60078 35.5938 9.03125 35.5938ZM18.4062 49.6563H13.7188V48.0938H18.4062V49.6563ZM23.0938 46.5313H9.03125C8.60078 46.5313 8.25 46.1813 8.25 45.75V44.9688H23.875V45.75C23.875 46.1813 23.5242 46.5313 23.0938 46.5313ZM49.6562 42.8532L48.5688 43.2368L48.4461 43.5946C48.343 43.8954 48.218 44.1969 48.0734 44.4899L47.9062 44.8305L48.4047 45.8735L45.8719 48.4063L44.8297 47.9071L44.4898 48.0743C44.1922 48.2204 43.8914 48.3454 43.5945 48.4469L43.2367 48.5688L42.8531 49.6563H39.2711L38.8875 48.568L38.5297 48.4461C38.2328 48.3446 37.932 48.2196 37.6344 48.0735L37.2945 47.9063L36.2523 48.4055L33.7195 45.8727L34.218 44.8297L34.0508 44.4891C33.9063 44.1961 33.7812 43.8946 33.6781 43.5938L33.5555 43.236L32.4688 42.8532V39.2719L33.5562 38.8883L33.6789 38.5305C33.782 38.2297 33.907 37.9282 34.0516 37.6352L34.2188 37.2946L33.7203 36.2516L36.2531 33.7188L37.2953 34.218L37.6352 34.0508C37.9328 33.9047 38.2336 33.7797 38.5305 33.6782L38.8883 33.5563L39.2719 32.4688H42.8539L43.2375 33.5571L43.5953 33.679C43.8922 33.7805 44.193 33.9055 44.4906 34.0516L44.8305 34.2188L45.8727 33.7196L48.4055 36.2524L47.907 37.2954L48.0742 37.636C48.2188 37.929 48.3438 38.2305 48.4469 38.5313L48.5695 38.8891L49.6562 39.2719V42.8532Z" fill="#156EFA"/>
<path d="M18.8796 30.4883L19.9843 29.3836C18.9523 28.3508 17.5789 27.7812 16.1179 27.7812C14.657 27.7812 13.2835 28.3508 12.2507 29.3836L13.3554 30.4883C14.0937 29.7508 15.0742 29.3437 16.1179 29.3437C17.1617 29.3437 18.1421 29.7508 18.8796 30.4883Z" fill="#156EFA"/>
</g>
<defs>
<filter id="filter0_dd" x="0" y="0" width="53" height="53" filterUnits="userSpaceOnUse" color-interpolation-filters="sRGB">
<feFlood flood-opacity="0" result="BackgroundImageFix"/>
<feColorMatrix in="SourceAlpha" type="matrix" values="0 0 0 0 0 0 0 0 0 0 0 0 0 0 0 0 0 0 127 0" result="hardAlpha"/>
<feOffset dx="-1" dy="-1"/>
<feGaussianBlur stdDeviation="0.5"/>
<feColorMatrix type="matrix" values="0 0 0 0 0.941892 0 0 0 0 0.960553 0 0 0 0 0.995833 0 0 0 0.1 0"/>
<feBlend mode="normal" in2="BackgroundImageFix" result="effect1_dropShadow"/>
<feColorMatrix in="SourceAlpha" type="matrix" values="0 0 0 0 0 0 0 0 0 0 0 0 0 0 0 0 0 0 127 0" result="hardAlpha"/>
<feOffset dx="0.5" dy="0.5"/>
<feGaussianBlur stdDeviation="0.25"/>
<feColorMatrix type="matrix" values="0 0 0 0 0.0685764 0 0 0 0 0.162678 0 0 0 0 0.329167 0 0 0 0.2 0"/>
<feBlend mode="normal" in2="effect1_dropShadow" result="effect2_dropShadow"/>
<feBlend mode="normal" in="SourceGraphic" in2="effect2_dropShadow" result="shape"/>
</filter>
</defs>
</svg>
