<svg width="53" height="53" viewBox="0 0 53 53" fill="none" xmlns="http://www.w3.org/2000/svg">
<g clip-path="url(#clip0)" filter="url(#filter0_dd)">
<g filter="url(#filter1_dd)">
<path d="M46.9731 19.9928H34.4819V6.28486C34.4819 3.92217 32.5597 2 30.197 2H6.4073C4.0446 2 2.12244 3.92217 2.12244 6.28486V16.128C2.12244 16.5307 2.4488 16.857 2.85144 16.857C3.25408 16.857 3.58044 16.5307 3.58044 16.128V6.28486C3.58044 4.72617 4.84851 3.45801 6.4073 3.45801H30.197C31.7558 3.45801 33.0239 4.72617 33.0239 6.28486V20.7866C33.0239 22.3453 31.7558 23.6134 30.197 23.6134H13.7945C13.4857 23.6134 13.186 23.7235 12.9508 23.9235L8.35037 27.8339V24.9161C8.35037 24.1978 7.76589 23.6134 7.04763 23.6134H6.4074C4.84861 23.6134 3.58054 22.3453 3.58054 20.7866V19.4811C3.58054 19.0784 3.25417 18.7521 2.85154 18.7521C2.4489 18.7521 2.12253 19.0784 2.12253 19.4811V20.7866C2.12253 23.1493 4.0448 25.0715 6.4074 25.0715H6.89236V28.1697C6.89236 28.6835 7.1821 29.1366 7.64832 29.3522C7.82605 29.4344 8.01326 29.4747 8.1988 29.4746C8.50007 29.4746 8.79656 29.3683 9.03884 29.1623L13.8517 25.0714H17.5143V41.9254C17.5143 44.6297 19.7144 46.8298 22.4187 46.8298H38.2787L43.9656 51.6636C44.2265 51.8853 44.5457 51.9999 44.8701 51.9998C45.0698 51.9998 45.2716 51.9564 45.4628 51.868C45.9648 51.6358 46.2767 51.1479 46.2767 50.5948V46.8298H46.9732C49.6775 46.8298 51.8777 44.6297 51.8777 41.9254V24.8971C51.8775 22.1929 49.6774 19.9928 46.9731 19.9928ZM50.4195 41.9255C50.4195 43.8258 48.8735 45.3719 46.9731 45.3719H46.2214C45.4479 45.3719 44.8186 46.0012 44.8186 46.7746V50.4754L39.2073 45.7058C38.954 45.4904 38.6313 45.3719 38.2989 45.3719H22.4185C20.5182 45.3719 18.9722 43.8259 18.9722 41.9255V25.0715H30.197C32.3339 25.0715 34.11 23.4992 34.4302 21.4509H46.9731C48.8735 21.4509 50.4195 22.9969 50.4195 24.8973V41.9255Z" fill="#156EFA"/>
<path d="M22.0656 7.02678L16.4441 13.9766L14.1891 11.7433C13.0867 10.5866 11.2489 10.5375 10.0861 11.636C8.92028 12.7373 8.86784 14.582 9.9692 15.7479C9.97262 15.7514 9.97604 15.7549 9.97946 15.7584L14.598 20.454C15.1447 21.0295 15.9129 21.3595 16.7068 21.3595C16.7649 21.3595 16.8234 21.3578 16.8809 21.3543C17.7381 21.303 18.5231 20.8796 19.0369 20.1922L26.7163 10.5214C26.7214 10.515 26.7264 10.5084 26.7313 10.5019C27.6857 9.21282 27.4134 7.38762 26.1245 6.43333C24.84 5.48206 23.0227 5.74925 22.0656 7.02678ZM25.5661 9.62532L17.8881 19.2944C17.883 19.3008 17.8779 19.3073 17.873 19.3139C17.6168 19.6599 17.2234 19.8731 16.7929 19.8989C16.3655 19.9245 15.9451 19.7566 15.6525 19.447C15.6491 19.4435 15.6457 19.44 15.6423 19.4365L11.0246 14.7417C10.4799 14.16 10.5076 13.2437 11.0875 12.6958C11.6688 12.1466 12.5889 12.1725 13.1382 12.754C13.1438 12.7599 13.1495 12.7657 13.1552 12.7713L15.991 15.5798C16.1374 15.7248 16.3367 15.8006 16.5441 15.7898C16.7498 15.7784 16.9412 15.6805 17.0708 15.5203L23.2085 7.93245C23.215 7.92434 23.2214 7.91614 23.2275 7.90774C23.7038 7.26477 24.6137 7.12913 25.2568 7.60501C25.8966 8.07884 26.0341 8.98294 25.5661 9.62532Z" fill="#156EFA"/>
<path d="M42.2165 30.3048H38.0543C38.4291 28.7956 38.579 27.3977 38.5003 26.1464C38.4278 24.9963 37.4693 24.0953 36.3179 24.0953H36.172C35.0468 24.0953 34.1314 25.0108 34.1314 26.1361C34.1314 26.1588 34.1325 26.1816 34.1346 26.2041C34.137 26.2296 34.3414 28.7735 31.589 30.9206C31.2162 31.2114 30.8522 31.4735 30.5447 31.6863C30.3245 31.4313 29.9997 31.2689 29.637 31.2689H26.1719C25.5102 31.2689 24.972 31.8071 24.972 32.4687V33.4113C24.972 33.814 25.2984 34.1404 25.7011 34.1404C26.1037 34.1404 26.4301 33.814 26.4301 33.4113V32.727H29.3755C29.3673 32.7707 29.3786 40.3053 29.3786 40.3053H26.4301V36.7456C26.4301 36.343 26.1037 36.0166 25.7011 36.0166C25.2984 36.0166 24.972 36.343 24.972 36.7456V40.5635C24.972 41.2251 25.5102 41.7633 26.1719 41.7633H29.6368C30.0571 41.7633 30.4269 41.5456 30.6413 41.2176L31.0367 41.4632C32.2282 42.2033 33.2003 42.7273 34.8666 42.7273H41.1535C42.3112 42.7273 43.2531 41.7854 43.2531 40.6277C43.2531 40.3328 43.1914 40.0524 43.0812 39.7975C43.8082 39.4671 44.316 38.7358 44.316 37.8865C44.316 37.3627 44.1218 36.8842 43.8034 36.5159C44.1218 36.1478 44.316 35.6693 44.316 35.1453C44.316 34.6215 44.1218 34.143 43.8034 33.7748C44.1218 33.4067 44.316 32.9281 44.316 32.4043C44.3161 31.2467 43.3741 30.3048 42.2165 30.3048ZM38.9585 34.5039H42.2165C42.5703 34.5039 42.8581 34.7917 42.8581 35.1454C42.8581 35.4991 42.5703 35.7869 42.2165 35.7869H38.9585C38.5558 35.7869 38.2295 36.1133 38.2295 36.5159C38.2295 36.9186 38.5558 37.2449 38.9585 37.2449H42.2165C42.5703 37.2449 42.8581 37.5327 42.8581 37.8864C42.8581 38.2402 42.5703 38.5279 42.2165 38.5279H38.9585C38.5558 38.5279 38.2295 38.8543 38.2295 39.2569C38.2295 39.6596 38.5558 39.986 38.9585 39.986H41.1536C41.5074 39.986 41.7952 40.2737 41.7952 40.6275C41.7952 40.9812 41.5074 41.269 41.1536 41.269H34.8667C33.6237 41.269 32.9492 40.9345 31.8061 40.2243L30.8367 39.6221V33.2481C31.2115 33.0023 31.8311 32.5806 32.4858 32.0698C35.6816 29.5768 35.6165 26.5452 35.5897 26.1149C35.6008 25.8031 35.8577 25.5531 36.1719 25.5531H36.3178C36.7014 25.5531 37.0209 25.8537 37.045 26.2377C37.0951 27.0327 37.0565 28.3576 36.5881 30.1543C36.487 30.5418 36.5695 30.9459 36.8145 31.263C37.0598 31.5804 37.4305 31.7625 37.8315 31.7625H42.2165C42.5703 31.7625 42.8581 32.0503 42.8581 32.404C42.8581 32.7577 42.5703 33.0455 42.2165 33.0455H38.9585C38.5558 33.0455 38.2295 33.3719 38.2295 33.7745C38.2295 34.1776 38.5557 34.5039 38.9585 34.5039Z" fill="#156EFA"/>
</g>
</g>
<defs>
<filter id="filter0_dd" x="0" y="0" width="53" height="53" filterUnits="userSpaceOnUse" color-interpolation-filters="sRGB">
<feFlood flood-opacity="0" result="BackgroundImageFix"/>
<feColorMatrix in="SourceAlpha" type="matrix" values="0 0 0 0 0 0 0 0 0 0 0 0 0 0 0 0 0 0 127 0" result="hardAlpha"/>
<feOffset dx="-1" dy="-1"/>
<feGaussianBlur stdDeviation="0.5"/>
<feColorMatrix type="matrix" values="0 0 0 0 0.941892 0 0 0 0 0.960553 0 0 0 0 0.995833 0 0 0 0.1 0"/>
<feBlend mode="normal" in2="BackgroundImageFix" result="effect1_dropShadow"/>
<feColorMatrix in="SourceAlpha" type="matrix" values="0 0 0 0 0 0 0 0 0 0 0 0 0 0 0 0 0 0 127 0" result="hardAlpha"/>
<feOffset dx="0.5" dy="0.5"/>
<feGaussianBlur stdDeviation="0.25"/>
<feColorMatrix type="matrix" values="0 0 0 0 0.0685764 0 0 0 0 0.162678 0 0 0 0 0.329167 0 0 0 0.2 0"/>
<feBlend mode="normal" in2="effect1_dropShadow" result="effect2_dropShadow"/>
<feBlend mode="normal" in="SourceGraphic" in2="effect2_dropShadow" result="shape"/>
</filter>
<filter id="filter1_dd" x="0.122437" y="0" width="52.7553" height="52.9998" filterUnits="userSpaceOnUse" color-interpolation-filters="sRGB">
<feFlood flood-opacity="0" result="BackgroundImageFix"/>
<feColorMatrix in="SourceAlpha" type="matrix" values="0 0 0 0 0 0 0 0 0 0 0 0 0 0 0 0 0 0 127 0" result="hardAlpha"/>
<feOffset dx="-1" dy="-1"/>
<feGaussianBlur stdDeviation="0.5"/>
<feColorMatrix type="matrix" values="0 0 0 0 0.941892 0 0 0 0 0.960553 0 0 0 0 0.995833 0 0 0 0.1 0"/>
<feBlend mode="normal" in2="BackgroundImageFix" result="effect1_dropShadow"/>
<feColorMatrix in="SourceAlpha" type="matrix" values="0 0 0 0 0 0 0 0 0 0 0 0 0 0 0 0 0 0 127 0" result="hardAlpha"/>
<feOffset dx="0.5" dy="0.5"/>
<feGaussianBlur stdDeviation="0.25"/>
<feColorMatrix type="matrix" values="0 0 0 0 0.0685764 0 0 0 0 0.162678 0 0 0 0 0.329167 0 0 0 0.2 0"/>
<feBlend mode="normal" in2="effect1_dropShadow" result="effect2_dropShadow"/>
<feBlend mode="normal" in="SourceGraphic" in2="effect2_dropShadow" result="shape"/>
</filter>
<clipPath id="clip0">
<rect width="50" height="50" fill="white" transform="translate(2 2)"/>
</clipPath>
</defs>
</svg>
