<svg width="50" height="48" viewBox="0 0 50 48" fill="none" xmlns="http://www.w3.org/2000/svg">
<g filter="url(#filter0_dd)">
<path d="M47.825 26.2431C47.8249 26.2431 47.8249 26.2431 47.825 26.2431C46.2329 24.6592 43.5656 24.578 41.8789 26.062L35.0674 32.0569C35.0744 31.9589 35.078 31.86 35.078 31.7602C35.078 29.4852 33.2176 27.6343 30.9309 27.6343H17.3521C15.0073 27.6343 12.6964 28.4231 10.8456 29.8554L2.53368 36.2872C2.19694 36.5478 2 36.9484 2 37.3728V45.6247C2 46.3842 2.61892 47 3.38235 47H13.3895C13.6738 47 13.9512 46.9128 14.1839 46.7502L19.2349 43.2212H31.7931C33.9559 43.2212 36.0331 42.4295 37.6423 40.992L47.6685 32.0352C48.4843 31.3065 48.969 30.2632 48.9986 29.1727C49.0279 28.0824 48.6002 27.0145 47.825 26.2431ZM45.8213 29.9886L35.7951 38.9452C34.6941 39.9289 33.2728 40.4706 31.793 40.4706H18.7979C18.5136 40.4706 18.2362 40.5578 18.0035 40.7204L12.9525 44.2494H4.7647V38.0454L12.5428 32.0266C13.9109 30.9679 15.6188 30.3849 17.352 30.3849H30.9309C31.6931 30.3849 32.3133 31.0019 32.3133 31.7602C32.3133 32.5186 31.6931 33.1356 30.9309 33.1356H21.4173C20.6539 33.1356 20.035 33.7513 20.035 34.5109C20.035 35.2704 20.6539 35.8862 21.4173 35.8862H33.3181C34.3312 35.8862 35.3071 35.5183 36.0658 34.8506L43.7107 28.1224C44.3127 27.5926 45.3015 27.6228 45.87 28.1881C46.3728 28.6664 46.3493 29.5379 45.8213 29.9886Z" fill="#156EFA"/>
<path d="M36.9382 24H17.0618C17.6118 19.5678 21.7732 16 27 16C32.2268 16 36.3882 19.5678 36.9382 24Z" stroke="#156EFA" stroke-width="2"/>
<circle cx="27" cy="9" r="5" stroke="#156EFA" stroke-width="2"/>
</g>
<defs>
<filter id="filter0_dd" x="0" y="-2" width="50" height="50" filterUnits="userSpaceOnUse" color-interpolation-filters="sRGB">
<feFlood flood-opacity="0" result="BackgroundImageFix"/>
<feColorMatrix in="SourceAlpha" type="matrix" values="0 0 0 0 0 0 0 0 0 0 0 0 0 0 0 0 0 0 127 0" result="hardAlpha"/>
<feOffset dx="-1" dy="-1"/>
<feGaussianBlur stdDeviation="0.5"/>
<feColorMatrix type="matrix" values="0 0 0 0 0.941892 0 0 0 0 0.960553 0 0 0 0 0.995833 0 0 0 0.1 0"/>
<feBlend mode="normal" in2="BackgroundImageFix" result="effect1_dropShadow"/>
<feColorMatrix in="SourceAlpha" type="matrix" values="0 0 0 0 0 0 0 0 0 0 0 0 0 0 0 0 0 0 127 0" result="hardAlpha"/>
<feOffset dx="0.5" dy="0.5"/>
<feGaussianBlur stdDeviation="0.25"/>
<feColorMatrix type="matrix" values="0 0 0 0 0.0685764 0 0 0 0 0.162678 0 0 0 0 0.329167 0 0 0 0.2 0"/>
<feBlend mode="normal" in2="effect1_dropShadow" result="effect2_dropShadow"/>
<feBlend mode="normal" in="SourceGraphic" in2="effect2_dropShadow" result="shape"/>
</filter>
</defs>
</svg>
