<svg width="1440" height="469" viewBox="0 0 1440 469" fill="none" xmlns="http://www.w3.org/2000/svg">
<path d="M135.132 78.8231C135.689 78.2946 136.428 78 137.196 78H1420V469H20V189.29C20 188.466 20.3383 187.679 20.9357 187.113L135.132 78.8231Z" fill="#EEF1F4"/>
<g filter="url(#filter0_d)">
<path d="M-90.5213 108.698C-92.3891 106.715 -92.3586 103.572 -90.4527 101.627L-11.849 21.4255C-0.251745 9.59254 18.5511 9.59255 30.1484 21.4256L108.379 101.246C110.357 103.265 110.304 106.555 108.26 108.505L3.49602 208.5L-90.5213 108.698Z" fill="#A6A9AC"/>
</g>
<g filter="url(#filter1_d)">
<ellipse cx="1371.2" cy="78.6189" rx="12.1999" ry="11.6189" fill="#FCF295"/>
<circle cx="1399.02" cy="78.6189" r="11.6189" fill="#FCF295"/>
<ellipse cx="1426.84" cy="78.6189" rx="12.1999" ry="11.6189" fill="#FCF295"/>
</g>
<path d="M45.5294 100.801L41.8654 112.001H39.0814L36.6174 104.417L34.0734 112.001H31.3054L27.6254 100.801H30.3134L32.8414 108.673L35.4814 100.801H37.8814L40.4414 108.737L43.0494 100.801H45.5294ZM57.2484 100.801V112.001H54.6564V107.409H49.5684V112.001H46.9764V100.801H49.5684V105.217H54.6564V100.801H57.2484ZM65.2743 108.033V112.001H62.6823V108.001L58.3463 100.801H61.0983L64.0903 105.777L67.0823 100.801H69.6263L65.2743 108.033ZM80.2181 112.193C78.6181 112.193 77.3701 111.751 76.4741 110.865C75.5887 109.98 75.1461 108.716 75.1461 107.073V100.801H77.7381V106.977C77.7381 108.983 78.5701 109.985 80.2341 109.985C81.0447 109.985 81.6634 109.745 82.0901 109.265C82.5167 108.775 82.7301 108.012 82.7301 106.977V100.801H85.2901V107.073C85.2901 108.716 84.8421 109.98 83.9461 110.865C83.0607 111.751 81.8181 112.193 80.2181 112.193ZM91.5314 112.193C90.6461 112.193 89.7874 112.076 88.9554 111.841C88.1341 111.596 87.4728 111.281 86.9714 110.897L87.8514 108.945C88.3314 109.297 88.9021 109.58 89.5634 109.793C90.2248 110.007 90.8861 110.113 91.5474 110.113C92.2834 110.113 92.8274 110.007 93.1794 109.793C93.5314 109.569 93.7074 109.276 93.7074 108.913C93.7074 108.647 93.6008 108.428 93.3874 108.257C93.1848 108.076 92.9181 107.932 92.5874 107.825C92.2674 107.719 91.8301 107.601 91.2754 107.473C90.4221 107.271 89.7234 107.068 89.1794 106.865C88.6354 106.663 88.1661 106.337 87.7714 105.889C87.3874 105.441 87.1954 104.844 87.1954 104.097C87.1954 103.447 87.3714 102.86 87.7234 102.337C88.0754 101.804 88.6034 101.383 89.3074 101.073C90.0221 100.764 90.8914 100.609 91.9154 100.609C92.6301 100.609 93.3288 100.695 94.0114 100.865C94.6941 101.036 95.2914 101.281 95.8034 101.601L95.0034 103.569C93.9688 102.983 92.9341 102.689 91.8994 102.689C91.1741 102.689 90.6354 102.807 90.2834 103.041C89.9421 103.276 89.7714 103.585 89.7714 103.969C89.7714 104.353 89.9688 104.641 90.3634 104.833C90.7688 105.015 91.3821 105.196 92.2034 105.377C93.0568 105.58 93.7554 105.783 94.2994 105.985C94.8434 106.188 95.3074 106.508 95.6914 106.945C96.0861 107.383 96.2834 107.975 96.2834 108.721C96.2834 109.361 96.1021 109.948 95.7394 110.481C95.3874 111.004 94.8541 111.42 94.1394 111.729C93.4248 112.039 92.5554 112.193 91.5314 112.193Z" fill="#FFEF5F"/>
<defs>
<filter id="filter0_d" x="-92.9023" y="12.5508" width="205.731" height="199.949" filterUnits="userSpaceOnUse" color-interpolation-filters="sRGB">
<feFlood flood-opacity="0" result="BackgroundImageFix"/>
<feColorMatrix in="SourceAlpha" type="matrix" values="0 0 0 0 0 0 0 0 0 0 0 0 0 0 0 0 0 0 127 0" result="hardAlpha"/>
<feOffset dx="1" dy="2"/>
<feGaussianBlur stdDeviation="1"/>
<feColorMatrix type="matrix" values="0 0 0 0 0 0 0 0 0 0 0 0 0 0 0 0 0 0 0.4 0"/>
<feBlend mode="normal" in2="BackgroundImageFix" result="effect1_dropShadow"/>
<feBlend mode="normal" in="SourceGraphic" in2="effect1_dropShadow" result="shape"/>
</filter>
<filter id="filter1_d" x="1358" y="66" width="84.0375" height="27.2379" filterUnits="userSpaceOnUse" color-interpolation-filters="sRGB">
<feFlood flood-opacity="0" result="BackgroundImageFix"/>
<feColorMatrix in="SourceAlpha" type="matrix" values="0 0 0 0 0 0 0 0 0 0 0 0 0 0 0 0 0 0 127 0" result="hardAlpha"/>
<feOffset dx="1" dy="1"/>
<feGaussianBlur stdDeviation="1"/>
<feColorMatrix type="matrix" values="0 0 0 0 0 0 0 0 0 0 0 0 0 0 0 0 0 0 0.2 0"/>
<feBlend mode="normal" in2="BackgroundImageFix" result="effect1_dropShadow"/>
<feBlend mode="normal" in="SourceGraphic" in2="effect1_dropShadow" result="shape"/>
</filter>
</defs>
</svg>
