<svg width="1440" height="852" viewBox="0 0 1440 852" fill="none" xmlns="http://www.w3.org/2000/svg">
<path d="M135.136 78.8043C135.691 78.2874 136.422 78 137.18 78H1420V852H143.472H20V187.306C20 186.473 20.3462 185.678 20.9557 185.11L135.136 78.8043Z" fill="#EEF1F4"/>
<g filter="url(#filter0_d)">
<rect x="1342" y="70.0001" width="30.2632" height="16" fill="#FCF295"/>
<rect x="1376.21" y="70.0001" width="31.5789" height="16" fill="#FCF295"/>
<rect x="1411.74" y="70.0001" width="30.2632" height="16" fill="#FCF295"/>
</g>
<g filter="url(#filter1_d)">
<path d="M-90.5213 108.698C-92.3891 106.715 -92.3586 103.572 -90.4527 101.627L-11.849 21.4255C-0.251745 9.59254 18.5511 9.59255 30.1484 21.4256L108.379 101.246C110.357 103.265 110.304 106.555 108.26 108.505L3.49602 208.5L-90.5213 108.698Z" fill="#A6A9AC"/>
</g>
<path d="M34.264 100.368V102.064H36.984C36.76 102.688 36.456 103.36 36.184 103.936C35.512 103.952 34.904 103.952 34.36 103.968L34.552 105.744C36.664 105.648 39.592 105.52 42.376 105.344C42.632 105.728 42.84 106.08 42.984 106.384L44.584 105.504C44.072 104.512 42.872 103.136 41.832 102.144L40.36 102.928C40.616 103.184 40.888 103.488 41.16 103.776C40.136 103.824 39.096 103.856 38.136 103.872C38.456 103.312 38.808 102.688 39.144 102.064H44.328V100.368H40.072V98.464H38.136V100.368H34.264ZM34.344 100.096C33.704 99.568 32.424 98.896 31.448 98.528L30.408 99.936C31.416 100.368 32.664 101.104 33.24 101.664L34.344 100.096ZM33.464 104.352C32.824 103.808 31.496 103.184 30.504 102.832L29.496 104.256C30.504 104.688 31.768 105.392 32.376 105.936L33.464 104.352ZM32.808 106.88C31.896 108.752 30.744 110.768 29.944 111.984L31.608 113.168C32.504 111.6 33.448 109.76 34.248 108.064L32.808 106.88ZM35.496 107.648C35.496 109.024 35.288 110.784 33.448 112.096C33.88 112.368 34.52 112.944 34.792 113.344C36.936 111.728 37.208 109.488 37.208 107.712V106.16H35.496V107.648ZM38.136 112.704H39.8V106.304H38.136V112.704ZM42.744 111.648C42.68 111.648 42.6 111.616 42.568 111.568C42.536 111.504 42.536 111.36 42.536 111.12V106.16H40.792V111.072C40.792 112.16 40.904 112.496 41.16 112.752C41.432 113.024 41.864 113.152 42.248 113.152H43.064C43.352 113.152 43.736 113.072 43.944 112.944C44.2 112.784 44.36 112.576 44.472 112.224C44.568 111.888 44.632 111.072 44.664 110.352C44.232 110.208 43.688 109.92 43.384 109.648C43.368 110.368 43.352 110.928 43.336 111.168C43.304 111.424 43.272 111.552 43.208 111.584C43.16 111.632 43.08 111.648 43 111.648H42.744ZM57.832 102.848H54.104V100.64H57.832V102.848ZM59.688 99.04H52.344V104.448H59.688V99.04ZM51.88 107.264C51.576 106.912 50.264 105.52 49.832 105.168V104.704H51.544V102.928H49.832V100.672C50.52 100.496 51.16 100.288 51.736 100.064L50.472 98.608C49.24 99.168 47.272 99.632 45.512 99.936C45.72 100.32 45.944 100.96 46.04 101.392C46.664 101.312 47.32 101.2 47.992 101.072V102.928H45.704V104.704H47.736C47.144 106.256 46.264 107.952 45.368 108.992C45.672 109.472 46.072 110.256 46.248 110.8C46.872 110 47.48 108.864 47.992 107.632V113.376H49.832V107.136C50.216 107.712 50.6 108.336 50.792 108.752L51.88 107.264ZM56.904 111.376V109.968H59.736V108.368H56.904V107.04H60.12V105.408H51.832V107.04H55.016V108.368H52.216V109.968H55.016V111.376H51.208V113.04H60.456V111.376H56.904Z" fill="#FFEF5F"/>
<defs>
<filter id="filter0_d" x="1341" y="69.0001" width="104" height="20" filterUnits="userSpaceOnUse" color-interpolation-filters="sRGB">
<feFlood flood-opacity="0" result="BackgroundImageFix"/>
<feColorMatrix in="SourceAlpha" type="matrix" values="0 0 0 0 0 0 0 0 0 0 0 0 0 0 0 0 0 0 127 0" result="hardAlpha"/>
<feOffset dx="1" dy="1"/>
<feGaussianBlur stdDeviation="1"/>
<feColorMatrix type="matrix" values="0 0 0 0 0 0 0 0 0 0 0 0 0 0 0 0 0 0 0.2 0"/>
<feBlend mode="normal" in2="BackgroundImageFix" result="effect1_dropShadow"/>
<feBlend mode="normal" in="SourceGraphic" in2="effect1_dropShadow" result="shape"/>
</filter>
<filter id="filter1_d" x="-92.9023" y="12.5508" width="205.731" height="199.949" filterUnits="userSpaceOnUse" color-interpolation-filters="sRGB">
<feFlood flood-opacity="0" result="BackgroundImageFix"/>
<feColorMatrix in="SourceAlpha" type="matrix" values="0 0 0 0 0 0 0 0 0 0 0 0 0 0 0 0 0 0 127 0" result="hardAlpha"/>
<feOffset dx="1" dy="2"/>
<feGaussianBlur stdDeviation="1"/>
<feColorMatrix type="matrix" values="0 0 0 0 0 0 0 0 0 0 0 0 0 0 0 0 0 0 0.4 0"/>
<feBlend mode="normal" in2="BackgroundImageFix" result="effect1_dropShadow"/>
<feBlend mode="normal" in="SourceGraphic" in2="effect1_dropShadow" result="shape"/>
</filter>
</defs>
</svg>
