<svg width="1440" height="469" viewBox="0 0 1440 469" fill="none" xmlns="http://www.w3.org/2000/svg">
<path d="M135.132 78.8231C135.689 78.2946 136.428 78 137.196 78H1420V469H20V189.29C20 188.466 20.3383 187.679 20.9357 187.113L135.132 78.8231Z" fill="#EEF1F4"/>
<g filter="url(#filter0_d)">
<path d="M-90.5213 108.698C-92.3891 106.715 -92.3586 103.572 -90.4527 101.627L-11.849 21.4255C-0.251745 9.59254 18.5511 9.59255 30.1484 21.4256L108.379 101.246C110.357 103.265 110.304 106.555 108.26 108.505L3.49602 208.5L-90.5213 108.698Z" fill="#A6A9AC"/>
</g>
<g filter="url(#filter1_d)">
<ellipse cx="1371.2" cy="78.6189" rx="12.1999" ry="11.6189" fill="#FCF295"/>
<circle cx="1399.02" cy="78.6189" r="11.6189" fill="#FCF295"/>
<ellipse cx="1426.84" cy="78.6189" rx="12.1999" ry="11.6189" fill="#FCF295"/>
</g>
<path d="M8.456 101.232C8.168 100.544 7.464 99.552 6.872 98.832L5.208 99.52C5.768 100.272 6.44 101.328 6.696 101.968L8.456 101.232ZM11.08 102.16C11.096 101.616 11.112 101.12 11.112 100.64V98.464H9.176V100.624C9.176 101.104 9.16 101.616 9.128 102.16H4.216L4.216 104.096H8.904C8.424 106.704 7.16 109.584 3.816 111.664C4.296 111.984 5.032 112.656 5.336 113.088C9.112 110.608 10.44 107.152 10.888 104.096H15.528C15.368 108.64 15.16 110.608 14.744 111.056C14.536 111.264 14.36 111.312 14.04 111.312C13.608 111.312 12.696 111.312 11.72 111.232C12.072 111.792 12.344 112.64 12.376 113.232C13.336 113.264 14.328 113.28 14.936 113.184C15.608 113.088 16.072 112.896 16.52 112.304C17.144 111.52 17.352 109.216 17.576 103.072C17.576 102.816 17.592 102.16 17.592 102.16H11.08ZM14.264 108.496C13.88 107.696 13.032 106.464 12.312 105.584L10.712 106.32C11.416 107.264 12.216 108.528 12.552 109.344L14.264 108.496ZM23.112 98.496C22.312 100.816 20.904 103.104 19.432 104.576C19.752 105.04 20.28 106.08 20.456 106.544C20.856 106.128 21.256 105.632 21.656 105.104V113.36H23.528V102.128C24.072 101.136 24.52 100.08 24.92 99.072L23.112 98.496ZM34.344 103.728H30.408V98.688H28.424V103.728H24.312V105.6H28.424V113.392H30.408V105.6H34.344V103.728ZM41.544 98.528C40.376 100.704 37.96 103.488 35.576 105.088C36.024 105.44 36.744 106.096 37.128 106.528C39.608 104.72 42.008 101.872 43.608 99.296L41.544 98.528ZM50.408 112.16C49.64 110.608 48.008 108.352 46.44 106.672L44.664 107.68C45.288 108.384 45.928 109.216 46.52 110.064C44.696 110.192 42.84 110.32 41.128 110.416C42.728 108.304 44.44 105.632 45.752 103.248L43.624 102.352C42.424 104.992 40.472 108.256 38.728 110.56C37.976 110.608 37.272 110.64 36.648 110.672L36.952 112.704C39.784 112.496 43.832 112.192 47.704 111.856C48.04 112.4 48.312 112.928 48.504 113.376L50.408 112.16ZM62.616 101.136H55.288V100.336H62.616V101.136ZM62.616 103.2H55.288V102.384H62.616V103.2ZM64.552 98.992H53.448V104.544H64.552V98.992ZM60.136 109.776H65.064V108.128H60.136V106.928H66.072V105.248H51.96V106.928H58.2V110.992C57.176 110.672 56.392 110.08 55.896 108.992C56.024 108.528 56.152 108.048 56.264 107.536L54.36 107.248C53.992 109.392 53.016 111.088 51.384 112.096C51.816 112.368 52.552 113.072 52.824 113.424C53.752 112.784 54.488 111.936 55.064 110.88C56.408 112.736 58.392 113.136 61.32 113.136H65.88C65.976 112.592 66.264 111.76 66.52 111.328C65.384 111.376 62.312 111.376 61.416 111.376C60.984 111.376 60.552 111.36 60.136 111.328V109.776ZM82.056 101.44C81.592 100.688 80.536 99.632 79.688 98.896L78.248 99.872C79.112 100.64 80.104 101.776 80.52 102.512L82.056 101.44ZM80.008 105.312C79.592 106.08 79.064 106.8 78.488 107.488C78.312 106.672 78.152 105.744 78.024 104.784H82.184V102.976H77.832C77.704 101.568 77.64 100.08 77.672 98.592H75.672C75.688 100.048 75.736 101.536 75.864 102.976H72.792V100.816C73.72 100.624 74.6 100.416 75.4 100.176L74.12 98.56C72.488 99.088 70.008 99.6 67.768 99.904C67.976 100.336 68.232 101.04 68.312 101.504C69.128 101.408 70.008 101.296 70.872 101.152V102.976H67.848V104.784H70.872V106.928C69.608 107.152 68.456 107.328 67.544 107.472L68.008 109.392C68.856 109.232 69.848 109.024 70.872 108.816V111.136C70.872 111.392 70.776 111.472 70.488 111.472C70.2 111.488 69.272 111.504 68.376 111.456C68.648 111.984 68.968 112.848 69.048 113.376C70.344 113.392 71.304 113.312 71.928 113.008C72.568 112.704 72.792 112.192 72.792 111.152V108.416L75.4 107.888L75.256 106.16C74.44 106.304 73.608 106.464 72.792 106.608V104.784H76.04C76.232 106.352 76.504 107.808 76.856 109.072C75.752 109.984 74.52 110.768 73.288 111.328C73.752 111.76 74.28 112.416 74.552 112.864C75.576 112.336 76.584 111.68 77.512 110.912C78.2 112.48 79.096 113.44 80.264 113.44C81.72 113.44 82.312 112.736 82.616 109.936C82.104 109.728 81.464 109.296 81.048 108.848C80.968 110.736 80.776 111.504 80.44 111.504C79.96 111.504 79.464 110.768 79.032 109.536C80.072 108.496 80.968 107.328 81.688 106.032L80.008 105.312ZM86.264 98.496C85.656 100.816 84.6 103.152 83.416 104.688C83.736 105.168 84.2 106.256 84.344 106.72C84.552 106.448 84.76 106.176 84.968 105.872V113.376H86.776V102.464C87.272 101.312 87.688 100.144 88.024 99.008L86.264 98.496ZM88.072 113.36H89.928V101.952H88.072V113.36ZM88.776 99.264C89.448 100.24 90.28 101.568 90.632 102.4L92.184 101.424C91.784 100.624 90.904 99.36 90.216 98.416L88.776 99.264ZM97.928 98.976H92.168V100.688H96.04V111.264C96.04 111.52 95.944 111.616 95.688 111.616C95.432 111.632 94.6 111.632 93.848 111.584C94.088 112.064 94.36 112.848 94.44 113.344C95.688 113.344 96.552 113.312 97.128 113.008C97.72 112.72 97.928 112.24 97.928 111.296V98.976Z" fill="#FFEF5F"/>
<defs>
<filter id="filter0_d" x="-92.9023" y="12.5508" width="205.731" height="199.949" filterUnits="userSpaceOnUse" color-interpolation-filters="sRGB">
<feFlood flood-opacity="0" result="BackgroundImageFix"/>
<feColorMatrix in="SourceAlpha" type="matrix" values="0 0 0 0 0 0 0 0 0 0 0 0 0 0 0 0 0 0 127 0" result="hardAlpha"/>
<feOffset dx="1" dy="2"/>
<feGaussianBlur stdDeviation="1"/>
<feColorMatrix type="matrix" values="0 0 0 0 0 0 0 0 0 0 0 0 0 0 0 0 0 0 0.4 0"/>
<feBlend mode="normal" in2="BackgroundImageFix" result="effect1_dropShadow"/>
<feBlend mode="normal" in="SourceGraphic" in2="effect1_dropShadow" result="shape"/>
</filter>
<filter id="filter1_d" x="1358" y="66" width="84.0375" height="27.2379" filterUnits="userSpaceOnUse" color-interpolation-filters="sRGB">
<feFlood flood-opacity="0" result="BackgroundImageFix"/>
<feColorMatrix in="SourceAlpha" type="matrix" values="0 0 0 0 0 0 0 0 0 0 0 0 0 0 0 0 0 0 127 0" result="hardAlpha"/>
<feOffset dx="1" dy="1"/>
<feGaussianBlur stdDeviation="1"/>
<feColorMatrix type="matrix" values="0 0 0 0 0 0 0 0 0 0 0 0 0 0 0 0 0 0 0.2 0"/>
<feBlend mode="normal" in2="BackgroundImageFix" result="effect1_dropShadow"/>
<feBlend mode="normal" in="SourceGraphic" in2="effect1_dropShadow" result="shape"/>
</filter>
</defs>
</svg>
