<svg width="1440" height="852" viewBox="0 0 1440 852" fill="none" xmlns="http://www.w3.org/2000/svg">
<path d="M135.136 78.8043C135.691 78.2874 136.422 78 137.18 78H1420V852H143.472H20V187.306C20 186.473 20.3462 185.678 20.9557 185.11L135.136 78.8043Z" fill="#EEF1F4"/>
<g filter="url(#filter0_d)">
<rect x="1342" y="70.0001" width="30.2632" height="16" fill="#FCF295"/>
<rect x="1376.21" y="70.0001" width="31.5789" height="16" fill="#FCF295"/>
<rect x="1411.74" y="70.0001" width="30.2632" height="16" fill="#FCF295"/>
</g>
<g filter="url(#filter1_d)">
<path d="M-90.5213 108.698C-92.3891 106.715 -92.3586 103.572 -90.4527 101.627L-11.849 21.4255C-0.251745 9.59254 18.5511 9.59255 30.1484 21.4256L108.379 101.246C110.357 103.265 110.304 106.555 108.26 108.505L3.49602 208.5L-90.5213 108.698Z" fill="#A6A9AC"/>
</g>
<path d="M23.4421 100.93C24.4341 100.93 25.2928 101.095 26.0181 101.426C26.7541 101.756 27.3194 102.226 27.7141 102.834C28.1088 103.442 28.3061 104.162 28.3061 104.994C28.3061 105.815 28.1088 106.535 27.7141 107.154C27.3194 107.762 26.7541 108.231 26.0181 108.562C25.2928 108.882 24.4341 109.042 23.4421 109.042H21.1861V112.13H18.5941V100.93H23.4421ZM23.2981 106.93C24.0768 106.93 24.6688 106.764 25.0741 106.434C25.4794 106.092 25.6821 105.612 25.6821 104.994C25.6821 104.364 25.4794 103.884 25.0741 103.554C24.6688 103.212 24.0768 103.042 23.2981 103.042H21.1861V106.93H23.2981ZM37.2926 112.13L35.1326 109.01H35.0046H32.7486V112.13H30.1566V100.93H35.0046C35.9966 100.93 36.8553 101.095 37.5806 101.426C38.3166 101.756 38.8819 102.226 39.2766 102.834C39.6713 103.442 39.8686 104.162 39.8686 104.994C39.8686 105.826 39.6659 106.546 39.2606 107.154C38.8659 107.751 38.3006 108.21 37.5646 108.53L40.0766 112.13H37.2926ZM37.2446 104.994C37.2446 104.364 37.0419 103.884 36.6366 103.554C36.2313 103.212 35.6393 103.042 34.8606 103.042H32.7486V106.946H34.8606C35.6393 106.946 36.2313 106.775 36.6366 106.434C37.0419 106.092 37.2446 105.612 37.2446 104.994ZM47.3462 112.322C46.1836 112.322 45.1329 112.071 44.1942 111.57C43.2662 111.068 42.5356 110.38 42.0022 109.506C41.4796 108.62 41.2182 107.628 41.2182 106.53C41.2182 105.431 41.4796 104.444 42.0022 103.57C42.5356 102.684 43.2662 101.991 44.1942 101.49C45.1329 100.988 46.1836 100.738 47.3462 100.738C48.5089 100.738 49.5542 100.988 50.4822 101.49C51.4102 101.991 52.1409 102.684 52.6742 103.57C53.2076 104.444 53.4742 105.431 53.4742 106.53C53.4742 107.628 53.2076 108.62 52.6742 109.506C52.1409 110.38 51.4102 111.068 50.4822 111.57C49.5542 112.071 48.5089 112.322 47.3462 112.322ZM47.3462 110.114C48.0076 110.114 48.6049 109.964 49.1382 109.666C49.6716 109.356 50.0876 108.93 50.3862 108.386C50.6956 107.842 50.8502 107.223 50.8502 106.53C50.8502 105.836 50.6956 105.218 50.3862 104.674C50.0876 104.13 49.6716 103.708 49.1382 103.41C48.6049 103.1 48.0076 102.946 47.3462 102.946C46.6849 102.946 46.0876 103.1 45.5542 103.41C45.0209 103.708 44.5996 104.13 44.2902 104.674C43.9916 105.218 43.8422 105.836 43.8422 106.53C43.8422 107.223 43.9916 107.842 44.2902 108.386C44.5996 108.93 45.0209 109.356 45.5542 109.666C46.0876 109.964 46.6849 110.114 47.3462 110.114ZM60.7822 112.322C59.6409 112.322 58.6062 112.076 57.6782 111.586C56.7609 111.084 56.0356 110.396 55.5022 109.522C54.9796 108.636 54.7182 107.639 54.7182 106.53C54.7182 105.42 54.9796 104.428 55.5022 103.554C56.0356 102.668 56.7609 101.98 57.6782 101.49C58.6062 100.988 59.6462 100.738 60.7982 100.738C61.7689 100.738 62.6436 100.908 63.4222 101.25C64.2116 101.591 64.8729 102.082 65.4062 102.722L63.7422 104.258C62.9849 103.383 62.0462 102.946 60.9262 102.946C60.2329 102.946 59.6142 103.1 59.0702 103.41C58.5262 103.708 58.0996 104.13 57.7902 104.674C57.4916 105.218 57.3422 105.836 57.3422 106.53C57.3422 107.223 57.4916 107.842 57.7902 108.386C58.0996 108.93 58.5262 109.356 59.0702 109.666C59.6142 109.964 60.2329 110.114 60.9262 110.114C62.0462 110.114 62.9849 109.671 63.7422 108.786L65.4062 110.322C64.8729 110.972 64.2116 111.468 63.4222 111.81C62.6329 112.151 61.7529 112.322 60.7822 112.322ZM75.8286 110.05V112.13H67.1566V100.93H75.6206V103.01H69.7326V105.442H74.9326V107.458H69.7326V110.05H75.8286ZM81.571 112.322C80.6857 112.322 79.827 112.204 78.995 111.97C78.1737 111.724 77.5123 111.41 77.011 111.026L77.891 109.074C78.371 109.426 78.9417 109.708 79.603 109.922C80.2643 110.135 80.9257 110.242 81.587 110.242C82.323 110.242 82.867 110.135 83.219 109.922C83.571 109.698 83.747 109.404 83.747 109.042C83.747 108.775 83.6403 108.556 83.427 108.386C83.2243 108.204 82.9577 108.06 82.627 107.954C82.307 107.847 81.8697 107.73 81.315 107.602C80.4617 107.399 79.763 107.196 79.219 106.994C78.675 106.791 78.2057 106.466 77.811 106.018C77.427 105.57 77.235 104.972 77.235 104.226C77.235 103.575 77.411 102.988 77.763 102.466C78.115 101.932 78.643 101.511 79.347 101.202C80.0617 100.892 80.931 100.738 81.955 100.738C82.6697 100.738 83.3683 100.823 84.051 100.994C84.7337 101.164 85.331 101.41 85.843 101.73L85.043 103.698C84.0083 103.111 82.9737 102.818 81.939 102.818C81.2137 102.818 80.675 102.935 80.323 103.17C79.9817 103.404 79.811 103.714 79.811 104.098C79.811 104.482 80.0083 104.77 80.403 104.962C80.8083 105.143 81.4217 105.324 82.243 105.506C83.0963 105.708 83.795 105.911 84.339 106.114C84.883 106.316 85.347 106.636 85.731 107.074C86.1257 107.511 86.323 108.103 86.323 108.85C86.323 109.49 86.1417 110.076 85.779 110.61C85.427 111.132 84.8937 111.548 84.179 111.858C83.4643 112.167 82.595 112.322 81.571 112.322ZM91.7741 112.322C90.8888 112.322 90.0301 112.204 89.1981 111.97C88.3768 111.724 87.7154 111.41 87.2141 111.026L88.0941 109.074C88.5741 109.426 89.1448 109.708 89.8061 109.922C90.4674 110.135 91.1288 110.242 91.7901 110.242C92.5261 110.242 93.0701 110.135 93.4221 109.922C93.7741 109.698 93.9501 109.404 93.9501 109.042C93.9501 108.775 93.8434 108.556 93.6301 108.386C93.4274 108.204 93.1608 108.06 92.8301 107.954C92.5101 107.847 92.0728 107.73 91.5181 107.602C90.6648 107.399 89.9661 107.196 89.4221 106.994C88.8781 106.791 88.4088 106.466 88.0141 106.018C87.6301 105.57 87.4381 104.972 87.4381 104.226C87.4381 103.575 87.6141 102.988 87.9661 102.466C88.3181 101.932 88.8461 101.511 89.5501 101.202C90.2648 100.892 91.1341 100.738 92.1581 100.738C92.8728 100.738 93.5714 100.823 94.2541 100.994C94.9368 101.164 95.5341 101.41 96.0461 101.73L95.2461 103.698C94.2114 103.111 93.1768 102.818 92.1421 102.818C91.4168 102.818 90.8781 102.935 90.5261 103.17C90.1848 103.404 90.0141 103.714 90.0141 104.098C90.0141 104.482 90.2114 104.77 90.6061 104.962C91.0114 105.143 91.6248 105.324 92.4461 105.506C93.2994 105.708 93.9981 105.911 94.5421 106.114C95.0861 106.316 95.5501 106.636 95.9341 107.074C96.3288 107.511 96.5261 108.103 96.5261 108.85C96.5261 109.49 96.3448 110.076 95.9821 110.61C95.6301 111.132 95.0968 111.548 94.3821 111.858C93.6674 112.167 92.7981 112.322 91.7741 112.322Z" fill="#FFEF5F"/>
<defs>
<filter id="filter0_d" x="1341" y="69.0001" width="104" height="20" filterUnits="userSpaceOnUse" color-interpolation-filters="sRGB">
<feFlood flood-opacity="0" result="BackgroundImageFix"/>
<feColorMatrix in="SourceAlpha" type="matrix" values="0 0 0 0 0 0 0 0 0 0 0 0 0 0 0 0 0 0 127 0" result="hardAlpha"/>
<feOffset dx="1" dy="1"/>
<feGaussianBlur stdDeviation="1"/>
<feColorMatrix type="matrix" values="0 0 0 0 0 0 0 0 0 0 0 0 0 0 0 0 0 0 0.2 0"/>
<feBlend mode="normal" in2="BackgroundImageFix" result="effect1_dropShadow"/>
<feBlend mode="normal" in="SourceGraphic" in2="effect1_dropShadow" result="shape"/>
</filter>
<filter id="filter1_d" x="-92.9023" y="12.5508" width="205.731" height="199.949" filterUnits="userSpaceOnUse" color-interpolation-filters="sRGB">
<feFlood flood-opacity="0" result="BackgroundImageFix"/>
<feColorMatrix in="SourceAlpha" type="matrix" values="0 0 0 0 0 0 0 0 0 0 0 0 0 0 0 0 0 0 127 0" result="hardAlpha"/>
<feOffset dx="1" dy="2"/>
<feGaussianBlur stdDeviation="1"/>
<feColorMatrix type="matrix" values="0 0 0 0 0 0 0 0 0 0 0 0 0 0 0 0 0 0 0.4 0"/>
<feBlend mode="normal" in2="BackgroundImageFix" result="effect1_dropShadow"/>
<feBlend mode="normal" in="SourceGraphic" in2="effect1_dropShadow" result="shape"/>
</filter>
</defs>
</svg>
