<svg width="60" height="60" viewBox="0 0 60 60" fill="none" xmlns="http://www.w3.org/2000/svg">
<path d="M35.5005 18.501V5.00098C35.5005 3.34412 34.1573 2.00098 32.5005 2.00098H5.00049C3.34363 2.00098 2.00049 3.34412 2.00049 5.00098V43.501C2.00049 45.1578 3.34363 46.501 5.00049 46.501H27.0005" stroke="#156EFA" stroke-width="3"/>
<path d="M2.00049 11.501H35.5005" stroke="#156EFA" stroke-width="3"/>
<rect x="8.50049" y="19.501" width="5" height="5" fill="#156EFA"/>
<rect x="8.50049" y="27.501" width="5" height="5" fill="#156EFA"/>
<rect x="8.50049" y="35.501" width="5" height="5" fill="#156EFA"/>
<rect x="16.0005" y="19.501" width="5" height="5" fill="#156EFA"/>
<rect x="16.0005" y="27.501" width="5" height="5" fill="#156EFA"/>
<rect x="16.0005" y="35.501" width="12.5" height="5.20833" fill="#156EFA"/>
<rect x="23.5005" y="19.501" width="5" height="5" fill="#156EFA"/>
<rect x="23.5005" y="27.501" width="5" height="5" fill="#156EFA"/>
<path d="M39.6673 38.1676C35.8839 37.1843 34.6673 36.1676 34.6673 34.5843C34.6673 32.7676 36.3506 31.501 39.1673 31.501C42.1339 31.501 43.2339 32.9176 43.3339 35.001H47.0173C46.9006 32.1343 45.1506 29.501 41.6673 28.651V25.001H36.6673V28.601C33.4339 29.301 30.8339 31.401 30.8339 34.6176C30.8339 38.4676 34.0173 40.3843 38.6673 41.501C42.8339 42.501 43.6673 43.9676 43.6673 45.5176C43.6673 46.6676 42.8506 48.501 39.1673 48.501C35.7339 48.501 34.3839 46.9676 34.2006 45.001H30.5339C30.7339 48.651 33.4673 50.701 36.6673 51.3843V55.001H41.6673V51.4176C44.9173 50.801 47.5006 48.9176 47.5006 45.501C47.5006 40.7676 43.4506 39.151 39.6673 38.1676Z" fill="#156EFA"/>
</svg>
