<svg width="367" height="337" viewBox="0 0 367 337" fill="none" xmlns="http://www.w3.org/2000/svg">
<g opacity="0.03">
<path d="M-9.50022 133.473C-11.4331 131.501 -11.4331 128.304 -9.50022 126.331L93.3155 21.4256C104.913 9.59257 123.716 9.59256 135.313 21.4256L237.899 126.097C239.832 128.069 239.832 131.267 237.899 133.239L117.584 255.999C115.651 257.971 112.517 257.971 110.585 255.999L-9.50022 133.473Z" fill="#150D02"/>
<path d="M99.7654 290.98L18.7501 213.615C15.5685 210.577 10.2969 212.832 10.2969 217.232L10.2971 253V337H97.8591C100.621 337 102.859 334.761 102.859 332V298.212C102.859 295.48 101.741 292.867 99.7654 290.98Z" fill="#150D02"/>
<path d="M128.581 290.986L255.614 167.914C257.632 165.96 260.863 166.05 262.768 168.114L346.873 259.246C357.743 271.024 357.435 289.267 346.172 300.672L310.297 337H130.539C127.778 337 125.539 334.761 125.539 332V298.168C125.539 295.461 126.637 292.87 128.581 290.986Z" fill="#150D02"/>
</g>
</svg>
