<svg width="478" height="1006" viewBox="0 0 478 1006" fill="none" xmlns="http://www.w3.org/2000/svg">
<g opacity="0.025">
<path d="M245.531 255.298C243.598 253.326 243.598 250.129 245.531 248.156L467.744 21.4256C479.341 9.59258 498.144 9.59258 509.742 21.4256L731.51 247.702C733.443 249.674 733.443 252.872 731.51 254.844L491.797 499.429C489.864 501.402 486.73 501.402 484.798 499.429L245.531 255.298Z" fill="#051229"/>
<path d="M463.503 566.645L211.033 322.047C209.015 320.093 205.784 320.183 203.879 322.247L19.6306 521.889C8.67706 533.758 9.08539 552.168 20.5544 563.539L458.025 997.281C461.181 1000.41 466.545 998.175 466.545 993.731V573.827C466.545 571.12 465.448 568.529 463.503 566.645Z" fill="#051229"/>
</g>
</svg>
