<svg width="1180" height="202" viewBox="0 0 1180 202" fill="none" xmlns="http://www.w3.org/2000/svg">
<g filter="url(#filter0_d)">
<path d="M1151.96 95.0162C1151.87 93.1863 1153.72 91.8919 1155.41 92.5953L1174.69 100.612C1176.51 101.369 1176.78 103.837 1175.16 104.968L1156.83 117.808C1155.21 118.939 1152.98 117.842 1152.9 115.872L1151.96 95.0162Z" fill="#156EFA" stroke="#156EFA"/>
</g>
<g filter="url(#filter1_d)">
<g filter="url(#filter2_d)">
<circle cx="98" cy="100" r="50" fill="url(#paint0_radial)"/>
</g>
</g>
<g filter="url(#filter3_d)">
<g filter="url(#filter4_d)">
<circle cx="1012.85" cy="100" r="50" fill="url(#paint1_radial)"/>
</g>
</g>
<g filter="url(#filter5_d)">
<path d="M990.742 110.553C990.069 110.552 989.41 110.359 988.843 109.997C988.275 109.636 987.822 109.12 987.537 108.51C987.251 107.901 987.145 107.223 987.231 106.555C987.316 105.887 987.59 105.258 988.02 104.74L990.538 101.702C991.14 100.979 992.003 100.525 992.94 100.438C993.876 100.351 994.809 100.639 995.533 101.239C996.256 101.841 996.71 102.705 996.797 103.641C996.884 104.578 996.595 105.511 995.995 106.235L993.479 109.272C993.182 109.631 992.816 109.928 992.404 110.145C991.992 110.362 991.541 110.496 991.076 110.538C990.964 110.55 990.853 110.553 990.742 110.553ZM993.268 101.559C992.914 101.558 992.564 101.636 992.244 101.786C991.923 101.936 991.64 102.155 991.413 102.427L988.896 105.467C988.692 105.71 988.538 105.991 988.442 106.294C988.347 106.597 988.312 106.915 988.341 107.232C988.369 107.548 988.459 107.855 988.607 108.137C988.754 108.418 988.956 108.667 989.2 108.87C989.445 109.073 989.727 109.225 990.03 109.319C990.334 109.412 990.652 109.445 990.969 109.415C991.285 109.385 991.592 109.292 991.872 109.143C992.152 108.994 992.4 108.79 992.601 108.545L995.119 105.507C995.321 105.264 995.473 104.983 995.567 104.681C995.66 104.379 995.694 104.061 995.664 103.746C995.635 103.431 995.544 103.125 995.397 102.845C995.249 102.565 995.048 102.317 994.805 102.115C994.374 101.757 993.831 101.561 993.27 101.561L993.268 101.559Z" fill="#94BDFF"/>
<path d="M994.201 115.767C993.528 115.766 992.869 115.573 992.301 115.211C991.733 114.85 991.28 114.334 990.995 113.724C990.709 113.115 990.603 112.436 990.689 111.769C990.774 111.101 991.048 110.471 991.478 109.954L997.904 102.172C998.201 101.81 998.566 101.511 998.978 101.29C999.391 101.07 999.843 100.934 1000.31 100.889C1000.77 100.844 1001.24 100.892 1001.69 101.029C1002.14 101.167 1002.55 101.391 1002.91 101.69C1003.27 101.989 1003.57 102.356 1003.79 102.77C1004.01 103.184 1004.14 103.637 1004.18 104.103C1004.22 104.569 1004.17 105.038 1004.03 105.485C1003.89 105.931 1003.66 106.345 1003.36 106.703L996.937 114.484C996.64 114.844 996.275 115.141 995.862 115.359C995.45 115.576 994.998 115.71 994.534 115.751C994.422 115.762 994.311 115.767 994.201 115.767ZM1000.64 102.028C1000.56 102.028 1000.49 102.032 1000.41 102.039C1000.1 102.067 999.789 102.158 999.509 102.305C999.229 102.453 998.981 102.654 998.78 102.899L992.355 110.68C992.15 110.923 991.995 111.204 991.898 111.507C991.802 111.81 991.767 112.129 991.795 112.446C991.823 112.763 991.914 113.071 992.061 113.352C992.209 113.634 992.411 113.884 992.655 114.087C992.9 114.29 993.182 114.443 993.486 114.536C993.79 114.63 994.109 114.662 994.426 114.632C994.742 114.601 995.05 114.508 995.33 114.358C995.61 114.209 995.858 114.005 996.059 113.758L1002.49 105.977C1002.78 105.625 1002.96 105.198 1003.02 104.745C1003.08 104.291 1003.01 103.831 1002.81 103.416C1002.62 103.002 1002.31 102.652 1001.93 102.406C1001.54 102.16 1001.1 102.029 1000.64 102.028Z" fill="#94BDFF"/>
<path d="M1001.32 116.521C1000.64 116.521 999.985 116.329 999.417 115.968C998.848 115.607 998.394 115.091 998.108 114.482C997.822 113.872 997.716 113.193 997.802 112.525C997.887 111.857 998.161 111.227 998.592 110.71L1002.83 105.603C1003.13 105.245 1003.5 104.948 1003.91 104.731C1004.32 104.514 1004.77 104.38 1005.23 104.337C1005.7 104.294 1006.17 104.343 1006.61 104.481C1007.06 104.619 1007.47 104.843 1007.83 105.141C1008.55 105.742 1009.01 106.606 1009.09 107.543C1009.18 108.479 1008.89 109.412 1008.29 110.136L1004.05 115.242C1003.72 115.643 1003.3 115.966 1002.83 116.187C1002.35 116.408 1001.84 116.522 1001.32 116.521ZM1005.57 105.46C1005.49 105.46 1005.42 105.464 1005.34 105.471C1005.02 105.499 1004.72 105.59 1004.44 105.737C1004.16 105.885 1003.91 106.086 1003.71 106.331L999.467 111.437C999.264 111.68 999.112 111.961 999.019 112.263C998.925 112.566 998.892 112.883 998.921 113.199C998.98 113.835 999.29 114.422 999.782 114.83C1000.27 115.238 1000.91 115.434 1001.54 115.375C1002.18 115.316 1002.77 115.007 1003.18 114.515L1007.41 109.412C1007.82 108.92 1008.02 108.287 1007.96 107.651C1007.9 107.015 1007.59 106.428 1007.1 106.019C1006.67 105.658 1006.13 105.461 1005.57 105.46Z" fill="#94BDFF"/>
<path d="M1006.58 119.471C1005.91 119.47 1005.25 119.277 1004.68 118.916C1004.12 118.554 1003.66 118.038 1003.38 117.428C1003.09 116.819 1002.99 116.14 1003.07 115.472C1003.16 114.805 1003.43 114.175 1003.86 113.657L1005.68 111.471C1005.97 111.113 1006.34 110.817 1006.75 110.599C1007.16 110.382 1007.61 110.248 1008.08 110.205C1008.54 110.162 1009.01 110.211 1009.46 110.349C1009.9 110.487 1010.31 110.711 1010.67 111.009C1011.39 111.611 1011.85 112.474 1011.94 113.41C1012.02 114.347 1011.73 115.279 1011.13 116.003L1009.32 118.19C1009.02 118.549 1008.66 118.846 1008.24 119.063C1007.83 119.281 1007.38 119.414 1006.92 119.456C1006.81 119.466 1006.69 119.471 1006.58 119.471ZM1008.41 111.331C1008.33 111.331 1008.26 111.335 1008.18 111.342C1007.87 111.37 1007.56 111.461 1007.28 111.609C1007 111.756 1006.75 111.958 1006.55 112.202L1004.74 114.388C1004.33 114.879 1004.13 115.512 1004.19 116.148C1004.25 116.785 1004.56 117.371 1005.05 117.779C1005.54 118.187 1006.17 118.384 1006.81 118.325C1007.45 118.266 1008.03 117.957 1008.44 117.465L1010.26 115.279C1010.66 114.787 1010.86 114.154 1010.8 113.518C1010.74 112.882 1010.43 112.296 1009.94 111.887C1009.51 111.528 1008.97 111.33 1008.41 111.328L1008.41 111.331Z" fill="#94BDFF"/>
<path d="M1015.53 119.281C1015.45 119.281 1015.37 119.281 1015.29 119.273C1014.82 119.243 1014.37 119.122 1013.95 118.915C1013.53 118.708 1013.16 118.421 1012.85 118.069L1010.61 115.503C1010.51 115.389 1010.46 115.241 1010.47 115.091C1010.48 114.94 1010.55 114.801 1010.66 114.702C1010.78 114.603 1010.93 114.553 1011.08 114.562C1011.23 114.572 1011.37 114.641 1011.47 114.754L1013.71 117.319C1013.92 117.56 1014.17 117.758 1014.45 117.901C1014.74 118.044 1015.05 118.129 1015.37 118.151C1015.68 118.174 1016 118.133 1016.3 118.032C1016.6 117.931 1016.88 117.771 1017.12 117.562C1017.36 117.352 1017.56 117.098 1017.7 116.812C1017.84 116.527 1017.92 116.217 1017.94 115.899C1017.96 115.582 1017.92 115.264 1017.81 114.963C1017.71 114.662 1017.55 114.385 1017.34 114.148L1013.57 109.844C1013.52 109.789 1013.48 109.723 1013.45 109.651C1013.43 109.58 1013.42 109.504 1013.42 109.428C1013.43 109.352 1013.44 109.277 1013.48 109.209C1013.51 109.141 1013.56 109.079 1013.61 109.029C1013.67 108.979 1013.74 108.941 1013.81 108.917C1013.88 108.894 1013.96 108.884 1014.04 108.891C1014.11 108.897 1014.19 108.918 1014.25 108.953C1014.32 108.988 1014.38 109.037 1014.43 109.095L1018.19 113.399C1018.64 113.912 1018.93 114.543 1019.03 115.216C1019.13 115.89 1019.03 116.578 1018.75 117.198C1018.47 117.818 1018.02 118.344 1017.45 118.714C1016.87 119.083 1016.21 119.28 1015.53 119.281Z" fill="#94BDFF"/>
<path d="M1021.43 116.929C1020.92 116.93 1020.42 116.823 1019.96 116.614C1019.5 116.405 1019.09 116.1 1018.76 115.719L1011.55 107.476C1011.45 107.363 1011.4 107.214 1011.41 107.064C1011.42 106.914 1011.49 106.774 1011.6 106.675C1011.72 106.576 1011.86 106.526 1012.01 106.536C1012.16 106.546 1012.3 106.614 1012.4 106.727L1019.61 114.972C1019.82 115.213 1020.07 115.411 1020.36 115.554C1020.64 115.697 1020.95 115.782 1021.27 115.804C1021.59 115.827 1021.91 115.786 1022.21 115.685C1022.51 115.584 1022.79 115.424 1023.03 115.215C1023.27 115.005 1023.46 114.751 1023.6 114.465C1023.74 114.18 1023.82 113.87 1023.84 113.552C1023.86 113.235 1023.82 112.917 1023.72 112.616C1023.61 112.315 1023.45 112.038 1023.24 111.801L1016.03 103.554C1015.93 103.44 1015.88 103.292 1015.89 103.141C1015.9 102.99 1015.97 102.85 1016.08 102.75C1016.2 102.651 1016.34 102.601 1016.5 102.611C1016.65 102.621 1016.79 102.69 1016.89 102.804L1024.1 111.049C1024.55 111.561 1024.84 112.192 1024.94 112.866C1025.04 113.54 1024.94 114.228 1024.66 114.849C1024.38 115.469 1023.92 115.995 1023.35 116.364C1022.78 116.733 1022.11 116.929 1021.43 116.929Z" fill="#94BDFF"/>
<path d="M1027.22 114.506C1027.14 114.506 1027.06 114.506 1026.98 114.498C1026.52 114.468 1026.06 114.346 1025.64 114.14C1025.23 113.933 1024.85 113.646 1024.55 113.294L1016.03 103.554C1015.93 103.44 1015.88 103.292 1015.89 103.141C1015.9 102.99 1015.97 102.85 1016.08 102.75C1016.2 102.651 1016.34 102.601 1016.5 102.611C1016.65 102.621 1016.79 102.691 1016.89 102.804L1025.4 112.543C1025.61 112.781 1025.87 112.976 1026.15 113.116C1026.43 113.256 1026.74 113.339 1027.06 113.36C1027.37 113.381 1027.69 113.34 1027.99 113.239C1028.29 113.138 1028.57 112.978 1028.8 112.77C1029.04 112.562 1029.24 112.309 1029.38 112.025C1029.52 111.742 1029.6 111.433 1029.62 111.118C1029.64 110.802 1029.6 110.486 1029.5 110.186C1029.4 109.886 1029.24 109.61 1029.03 109.371L1021.6 100.881C1021.51 100.766 1021.47 100.621 1021.48 100.475C1021.49 100.329 1021.56 100.194 1021.67 100.097C1021.78 100.001 1021.93 99.9509 1022.07 99.9576C1022.22 99.9644 1022.36 100.027 1022.46 100.133L1029.89 108.625C1030.34 109.138 1030.63 109.769 1030.73 110.442C1030.83 111.116 1030.73 111.804 1030.45 112.424C1030.17 113.044 1029.71 113.571 1029.14 113.94C1028.57 114.31 1027.9 114.507 1027.22 114.508V114.506Z" fill="#94BDFF"/>
<path d="M1033.87 113.058C1033.79 113.058 1033.71 113.058 1033.63 113.05C1033.16 113.02 1032.71 112.899 1032.29 112.692C1031.87 112.485 1031.5 112.198 1031.19 111.846L1021.6 100.881C1021.51 100.766 1021.47 100.62 1021.48 100.474C1021.49 100.329 1021.56 100.193 1021.67 100.097C1021.78 100.001 1021.93 99.9507 1022.07 99.9574C1022.22 99.9642 1022.36 100.027 1022.46 100.133L1032.05 111.099C1032.47 111.569 1033.07 111.854 1033.7 111.891C1034.33 111.929 1034.95 111.716 1035.43 111.3C1035.9 110.883 1036.2 110.296 1036.24 109.665C1036.29 109.034 1036.09 108.409 1035.68 107.927L1027.7 98.8091C1027.65 98.7522 1023.23 93.5978 1018.58 93.1538C1017.6 93.4953 1011.49 95.4529 1007.28 92.5276L999.354 95.9345C998.611 96.2541 997.778 96.2986 997.005 96.0601C996.232 95.8216 995.569 95.3156 995.134 94.6327C994.7 93.9499 994.523 93.1348 994.635 92.3335C994.747 91.5321 995.141 90.7968 995.746 90.2592L1002.46 84.2902C1004.06 82.9059 1006.14 82.1943 1008.25 82.3041L1021.29 82.9656C1021.4 82.9709 1021.5 83.0052 1021.58 83.0646L1028.06 87.5138L1031.54 86.3793C1031.66 86.3384 1031.8 86.3424 1031.92 86.3907C1032.04 86.439 1032.15 86.5285 1032.21 86.644L1040.84 102.143C1040.9 102.248 1040.92 102.368 1040.91 102.488C1040.89 102.607 1040.84 102.719 1040.76 102.807L1036.61 107.267C1037.04 107.786 1037.3 108.415 1037.38 109.081C1037.47 109.747 1037.36 110.423 1037.07 111.029C1036.78 111.635 1036.33 112.148 1035.76 112.507C1035.2 112.866 1034.54 113.057 1033.87 113.058ZM1018.5 92.0068H1018.54C1023.72 92.4092 1028.37 97.834 1028.57 98.0646L1035.86 106.403L1039.64 102.333L1031.44 87.61L1028.15 88.6858C1028.06 88.7128 1027.98 88.7203 1027.89 88.7079C1027.8 88.6955 1027.72 88.6634 1027.65 88.6141L1021.07 84.0944L1008.19 83.4409C1006.37 83.3473 1004.59 83.959 1003.21 85.1486L996.502 91.1096C996.267 91.3189 996.078 91.5749 995.947 91.8612C995.816 92.1476 995.746 92.4581 995.742 92.7729C995.737 93.0878 995.799 93.4001 995.922 93.69C996.044 93.9799 996.226 94.241 996.456 94.4567C996.777 94.7594 997.18 94.9615 997.615 95.0383C998.05 95.1151 998.498 95.0631 998.903 94.8888L1007.13 91.3527C1007.22 91.313 1007.33 91.2987 1007.43 91.3111C1007.53 91.3235 1007.62 91.3622 1007.7 91.4233C1011.69 94.4641 1018.23 92.0677 1018.3 92.0432C1018.36 92.019 1018.43 92.0066 1018.5 92.0068H1018.5Z" fill="#94BDFF"/>
<path d="M1041.77 105.563C1041.67 105.562 1041.57 105.535 1041.49 105.484C1041.4 105.432 1041.33 105.358 1041.28 105.27L1030.18 85.3332C1030.1 85.204 1030.09 85.0518 1030.12 84.9088C1030.16 84.7659 1030.25 84.6435 1030.38 84.5676L1037.89 80.0803C1037.96 80.0413 1038.03 80.0158 1038.1 80.0054C1038.18 79.9949 1038.26 79.9998 1038.33 80.0196C1038.4 80.0394 1038.47 80.0737 1038.53 80.1206C1038.59 80.1675 1038.64 80.226 1038.68 80.2926L1049.78 100.231C1049.85 100.36 1049.87 100.512 1049.83 100.655C1049.79 100.798 1049.7 100.92 1049.57 100.996L1042.07 105.484C1041.98 105.536 1041.88 105.563 1041.77 105.563ZM1031.44 85.2603L1041.99 104.203L1048.52 100.301L1037.97 81.3571L1031.44 85.2603Z" fill="#94BDFF"/>
<path d="M1041.15 105.343L1041.15 105.343L1030.05 85.4062L1041.15 105.343ZM1038.37 79.8747L1038.33 80.0196L1041.77 105.563L1041.77 105.713C1041.77 105.713 1041.77 105.713 1041.77 105.713C1041.9 105.713 1042.03 105.679 1042.14 105.614L1042.14 105.613L1049.65 101.125L1049.65 101.125C1049.81 101.029 1049.93 100.874 1049.98 100.694C1050.03 100.513 1050 100.321 1049.91 100.158L1038.81 80.2197C1038.81 80.2197 1038.81 80.2197 1038.81 80.2196C1038.76 80.1355 1038.7 80.0617 1038.62 80.0024L1038.62 80.0024C1038.55 79.9432 1038.46 79.8997 1038.37 79.8747ZM1048.32 100.247L1042.04 103.995L1031.64 85.3144L1037.91 81.5652L1048.32 100.247Z" fill="#94BDFF" stroke="#94BDFF" stroke-width="0.3"/>
<path d="M987.951 105.571C987.811 105.571 987.677 105.52 987.573 105.427L984.189 102.41C984.092 102.323 984.028 102.206 984.007 102.077C983.987 101.948 984.011 101.816 984.075 101.703L993.251 85.6047C993.323 85.4787 993.441 85.3849 993.58 85.3426C993.719 85.3003 993.868 85.3126 993.998 85.377L998.906 87.8036C999.041 87.8706 999.144 87.9886 999.193 88.1316C999.241 88.2747 999.231 88.4311 999.164 88.5664C999.097 88.7018 998.979 88.805 998.836 88.8533C998.693 88.9017 998.536 88.8912 998.401 88.8243L993.973 86.635L985.291 101.869L988.33 104.577C988.416 104.653 988.477 104.755 988.504 104.867C988.532 104.979 988.524 105.097 988.483 105.205C988.442 105.313 988.369 105.405 988.274 105.471C988.179 105.536 988.066 105.571 987.951 105.571Z" fill="#94BDFF"/>
<path d="M983.392 104.056L983.392 104.056L976.066 99.8975L976.066 99.8975C975.9 99.8033 975.778 99.6472 975.727 99.4633C975.677 99.2795 975.701 99.083 975.795 98.9172L975.795 98.9171L986.393 80.2497C986.393 80.2497 986.393 80.2497 986.393 80.2496C986.485 80.0865 986.638 79.9659 986.818 79.9136C986.998 79.8614 987.192 79.8816 987.357 79.9699M983.392 104.056L986.523 80.3237C986.596 80.1945 986.717 80.0991 986.86 80.0577C987.002 80.0163 987.155 80.0323 987.286 80.1023L994.738 84.0806L994.808 83.9482L987.357 79.9699M983.392 104.056C983.5 104.118 983.622 104.15 983.746 104.15M983.392 104.056L994.808 83.9483C994.893 83.9934 994.968 84.0551 995.029 84.1297C995.089 84.2043 995.134 84.2903 995.161 84.3826L995.017 84.4245L995.161 84.3826C995.188 84.475 995.196 84.5717 995.185 84.6672L995.036 84.6497L995.185 84.6672C995.174 84.7627 995.143 84.855 995.096 84.9386L995.096 84.9387L984.372 103.787L984.372 103.787C984.309 103.897 984.218 103.989 984.108 104.053C983.998 104.116 983.873 104.15 983.746 104.15M987.357 79.9699L987.286 80.1022L987.357 79.9699L987.357 79.9699ZM983.746 104.15L983.746 104M983.746 104.15C983.746 104.15 983.746 104.15 983.746 104.15L983.746 104M983.746 104C983.648 104 983.551 103.974 983.466 103.926L994.965 84.8645L984.242 103.712C984.192 103.8 984.12 103.872 984.033 103.923C983.946 103.973 983.847 104 983.746 104ZM993.479 84.8668L983.48 102.45L977.401 99.0019L987.298 81.5705L993.479 84.8668Z" fill="#94BDFF" stroke="#94BDFF" stroke-width="0.3"/>
<path d="M1025.58 89.8301C1025.46 89.8302 1025.35 89.7952 1025.25 89.73L1021.4 87.0819C1021.34 87.0395 1021.28 86.9854 1021.24 86.9227C1021.2 86.86 1021.18 86.7899 1021.16 86.7164C1021.15 86.6429 1021.15 86.5674 1021.16 86.4942C1021.18 86.4211 1021.21 86.3517 1021.25 86.2901C1021.29 86.2284 1021.35 86.1757 1021.41 86.135C1021.47 86.0943 1021.54 86.0663 1021.62 86.0526C1021.69 86.039 1021.77 86.04 1021.84 86.0555C1021.91 86.0711 1021.98 86.1009 1022.04 86.1432L1025.9 88.7919C1026 88.8607 1026.07 88.9598 1026.11 89.0747C1026.15 89.1895 1026.16 89.3141 1026.12 89.4301C1026.08 89.5462 1026.01 89.6476 1025.91 89.7196C1025.82 89.7916 1025.7 89.8303 1025.58 89.8301Z" fill="#94BDFF"/>
<path d="M1017.46 86.1904H1017.43L1008.08 85.7145C1008 85.7108 1007.93 85.6923 1007.86 85.6603C1007.79 85.6282 1007.73 85.5831 1007.68 85.5276C1007.63 85.4721 1007.59 85.4073 1007.57 85.3368C1007.54 85.2663 1007.53 85.1916 1007.54 85.1168C1007.54 85.042 1007.56 84.9688 1007.59 84.9011C1007.62 84.8335 1007.67 84.7728 1007.72 84.7226C1007.78 84.6724 1007.84 84.6336 1007.91 84.6085C1007.98 84.5833 1008.06 84.5723 1008.13 84.576L1017.49 85.0508C1017.64 85.0545 1017.79 85.1181 1017.89 85.2276C1018 85.337 1018.05 85.4833 1018.05 85.6342C1018.04 85.7852 1017.98 85.9285 1017.87 86.0326C1017.76 86.1367 1017.62 86.193 1017.46 86.1892L1017.46 86.1904Z" fill="#94BDFF"/>
<path d="M981.781 100.076C981.396 100.076 981.019 99.9622 980.698 99.7481C980.378 99.5339 980.128 99.2296 979.981 98.8736C979.833 98.5176 979.795 98.1258 979.87 97.7478C979.945 97.3698 980.131 97.0226 980.403 96.7501C980.676 96.4776 981.023 96.2921 981.401 96.2169C981.779 96.1417 982.171 96.1803 982.527 96.3278C982.883 96.4752 983.187 96.725 983.401 97.0454C983.615 97.3658 983.73 97.7426 983.73 98.1279C983.729 98.6446 983.524 99.1399 983.158 99.5052C982.793 99.8705 982.298 100.076 981.781 100.076ZM981.781 97.3185C981.621 97.3185 981.464 97.366 981.331 97.455C981.198 97.5441 981.094 97.6706 981.033 97.8187C980.971 97.9667 980.955 98.1296 980.987 98.2867C981.018 98.4439 981.095 98.5882 981.208 98.7015C981.322 98.8147 981.466 98.8918 981.623 98.923C981.78 98.9542 981.943 98.9381 982.091 98.8767C982.239 98.8153 982.366 98.7114 982.455 98.5781C982.544 98.4448 982.591 98.2882 982.591 98.1279C982.59 97.9136 982.505 97.7082 982.353 97.5568C982.201 97.4054 981.995 97.3203 981.781 97.3202V97.3185Z" fill="#94BDFF"/>
<path d="M1043.88 101.457C1043.49 101.458 1043.11 101.343 1042.79 101.129C1042.47 100.915 1042.22 100.611 1042.07 100.255C1041.93 99.8989 1041.89 99.5071 1041.96 99.1291C1042.04 98.7511 1042.22 98.4039 1042.5 98.1313C1042.77 97.8588 1043.12 97.6731 1043.49 97.5979C1043.87 97.5227 1044.26 97.5612 1044.62 97.7087C1044.98 97.8562 1045.28 98.1059 1045.49 98.4263C1045.71 98.7468 1045.82 99.1235 1045.82 99.5089C1045.82 100.025 1045.62 100.521 1045.25 100.886C1044.89 101.251 1044.39 101.457 1043.88 101.457ZM1043.88 98.6989C1043.72 98.6988 1043.56 98.7462 1043.43 98.8351C1043.29 98.9241 1043.19 99.0505 1043.13 99.1985C1043.07 99.3465 1043.05 99.5094 1043.08 99.6666C1043.11 99.8238 1043.19 99.9681 1043.3 100.081C1043.42 100.195 1043.56 100.272 1043.72 100.303C1043.87 100.335 1044.04 100.319 1044.18 100.257C1044.33 100.196 1044.46 100.092 1044.55 99.959C1044.64 99.8258 1044.68 99.6691 1044.68 99.5089C1044.68 99.2943 1044.6 99.0885 1044.45 98.9367C1044.3 98.7849 1044.09 98.6993 1043.88 98.6989Z" fill="#94BDFF"/>
</g>
<g filter="url(#filter6_d)">
<g filter="url(#filter7_d)">
<circle cx="707.852" cy="98" r="50" fill="url(#paint2_radial)"/>
</g>
</g>
<g filter="url(#filter8_d)">
<path d="M712.928 109.78H696.202C695.689 109.78 695.259 109.392 695.207 108.881L692.257 79.8074C691.779 75.0941 695.479 71 700.216 71H708.492C713.183 71 716.868 75.0189 716.462 79.693L713.925 108.867C713.88 109.384 713.447 109.78 712.928 109.78Z" stroke="#94BDFF" stroke-width="2"/>
<line x1="676.852" y1="116.536" x2="731.73" y2="116.536" stroke="#94BDFF" stroke-width="2" stroke-linecap="round"/>
<line x1="681.522" y1="123.5" x2="727.059" y2="123.5" stroke="#94BDFF" stroke-linecap="round"/>
<path d="M730.144 83.7768C724.345 83.7768 719.653 88.4697 719.653 94.2682C719.653 100.067 724.346 104.76 730.144 104.76C735.943 104.76 740.636 100.067 740.636 94.2682C740.636 88.4692 735.943 83.7768 730.144 83.7768ZM730.144 103.081C725.285 103.081 721.332 99.1274 721.332 94.2682C721.332 89.4091 725.285 85.4556 730.144 85.4556C735.003 85.4556 738.957 89.4091 738.957 94.2682C738.957 99.1273 735.003 103.081 730.144 103.081Z" fill="#94BDFF" stroke="#94BDFF" stroke-width="0.3"/>
<path d="M735.619 90.4682C735.35 90.1989 734.913 90.1989 734.644 90.4682L728.506 96.6059L725.645 93.745C725.376 93.4758 724.939 93.4758 724.67 93.745C724.401 94.0143 724.401 94.4508 724.67 94.72L728.019 98.0684C728.288 98.3376 728.724 98.3375 728.994 98.0684L735.619 91.4431C735.888 91.1739 735.888 90.7374 735.619 90.4682Z" fill="#94BDFF"/>
</g>
<g filter="url(#filter9_d)">
<g filter="url(#filter10_d)">
<circle cx="402.852" cy="100" r="50" fill="url(#paint3_radial)"/>
</g>
</g>
<g filter="url(#filter11_d)">
<path d="M427.341 73.9983C427.179 73.9565 427.008 73.9718 426.856 74.0415C426.704 74.1111 426.581 74.231 426.507 74.3809C426.441 74.5167 424.802 77.7398 417.621 81.5318C417.522 81.5751 417.434 81.6401 417.363 81.722C417.292 81.8039 417.241 81.9006 417.212 82.005C416.764 83.6854 416.155 85.319 415.395 86.8835C414.976 85.9753 414.695 85.0095 414.562 84.0182C414.546 83.9083 414.505 83.8035 414.443 83.7119C414.38 83.6203 414.297 83.5443 414.2 83.4899C414.103 83.4354 413.995 83.4039 413.885 83.3978C413.774 83.3917 413.663 83.4111 413.561 83.4547C411.663 84.2633 409.597 85.0335 407.421 85.7432C404.535 86.6654 401.751 87.8789 399.111 89.365C398.958 89.4526 398.843 89.5929 398.786 89.7596C398.458 90.7202 398.105 91.6276 397.725 92.4816C397.741 92.1968 397.762 91.8939 397.788 91.5732C397.799 91.4363 397.771 91.299 397.708 91.1773C397.644 91.0556 397.547 90.9545 397.428 90.8858C397.309 90.8171 397.173 90.7836 397.036 90.7892C396.899 90.7949 396.766 90.8395 396.653 90.9177C389.291 96.0157 385.28 103.211 384.034 113.535C382.148 115.508 380.491 117.688 379.095 120.033C378.834 120.476 378.753 121.002 378.867 121.504C378.981 122.005 379.282 122.444 379.709 122.73C380.024 122.933 380.391 123.042 380.766 123.042H413.891C414.083 123.042 414.268 122.966 414.404 122.83C414.539 122.694 414.616 122.51 414.616 122.317C414.616 122.125 414.539 121.941 414.404 121.805C414.268 121.669 414.083 121.593 413.891 121.593H382.758C384.016 119.566 385.489 117.681 387.149 115.969C394.292 115.619 410.856 114.176 417.365 108.291C417.838 107.863 418.287 107.411 418.711 106.935C418.796 106.841 418.855 106.725 418.881 106.601C418.907 106.476 418.901 106.347 418.861 106.226C418.821 106.105 418.751 105.997 418.656 105.912C418.561 105.827 418.446 105.768 418.321 105.742C418.166 105.71 418.012 105.676 417.86 105.641C418.375 105.568 418.954 105.499 419.592 105.442C419.698 105.432 419.8 105.4 419.892 105.346C419.984 105.292 420.063 105.219 420.123 105.132C425.415 97.4533 426.937 91.4883 427.882 74.7395C427.891 74.5726 427.842 74.4076 427.744 74.2725C427.645 74.1374 427.503 74.0405 427.341 73.9983ZM380.347 120.763C384.86 113.02 393.212 107.136 402.053 100.907C403.903 99.6043 406.002 98.1274 408.013 96.6504C408.102 96.5844 408.21 96.5487 408.32 96.5486C408.348 96.5486 408.376 96.5508 408.403 96.5552C408.47 96.5655 408.535 96.5892 408.592 96.6247C408.65 96.6603 408.7 96.707 408.739 96.7622C408.82 96.8729 408.853 97.0108 408.833 97.1461C408.812 97.2814 408.739 97.4031 408.629 97.4848C406.609 98.9642 404.505 100.446 402.648 101.754C393.885 107.927 385.608 113.759 381.21 121.336C381.175 121.396 381.128 121.449 381.072 121.49C381.016 121.532 380.953 121.562 380.885 121.578C380.817 121.594 380.747 121.596 380.678 121.584C380.609 121.572 380.544 121.547 380.485 121.509C380.373 121.424 380.297 121.301 380.271 121.163C380.246 121.025 380.273 120.882 380.347 120.763ZM419.12 104.031C417.586 104.158 416.067 104.422 414.579 104.817C414.433 104.862 414.305 104.951 414.213 105.072C414.12 105.193 414.069 105.341 414.065 105.493C414.061 105.646 414.105 105.795 414.192 105.921C414.278 106.047 414.401 106.142 414.545 106.194C415.242 106.442 415.986 106.668 416.766 106.868C416.641 106.987 416.519 107.102 416.393 107.214C410.591 112.46 395.477 113.999 388.676 114.431C392.863 110.422 398.079 106.746 403.484 102.939C405.347 101.627 407.455 100.141 409.484 98.6528C409.902 98.344 410.181 97.8829 410.261 97.3696C410.341 96.8564 410.215 96.3323 409.91 95.9113C409.758 95.7015 409.566 95.5239 409.345 95.3886C409.124 95.2534 408.878 95.1633 408.622 95.1234C408.366 95.0835 408.105 95.0947 407.853 95.1563C407.601 95.2179 407.364 95.3287 407.156 95.4823C405.154 96.9506 403.063 98.4222 401.218 99.7232C395.594 103.686 390.165 107.511 385.746 111.788C387.093 103.498 390.469 97.4554 396.25 93.0058C396.208 93.8507 396.219 94.6973 396.282 95.5407C396.298 95.6924 396.36 95.8354 396.461 95.9494C396.563 96.0634 396.697 96.1425 396.846 96.1757C396.995 96.2088 397.15 96.1941 397.29 96.1338C397.43 96.0735 397.547 95.9706 397.626 95.8397C398.617 94.1419 399.435 92.3492 400.069 90.4883C402.554 89.114 405.167 87.9862 407.872 87.1212C409.773 86.5001 411.592 85.8351 413.293 85.1378C413.819 87.5526 414.836 88.7712 414.885 88.8275C414.96 88.9163 415.056 88.9855 415.164 89.0293C415.272 89.0732 415.389 89.0903 415.505 89.0793C415.621 89.0683 415.732 89.0294 415.83 88.9661C415.928 88.9027 416.009 88.8167 416.067 88.7153C417.124 86.813 417.95 84.7908 418.527 82.692C422.603 80.5115 424.968 78.4843 426.292 77.0566C425.364 91.475 423.82 97.1233 419.12 104.031Z" fill="#94BDFF"/>
<path d="M423.338 88.5791C423.244 88.562 423.148 88.5636 423.055 88.5838C422.962 88.6039 422.873 88.6423 422.795 88.6966C422.717 88.7509 422.65 88.8201 422.599 88.9003C422.547 88.9805 422.512 89.07 422.495 89.1638C422.298 90.2623 422.081 91.2643 421.839 92.2278C421.792 92.4141 421.82 92.6115 421.919 92.7765C422.017 92.9416 422.177 93.0609 422.363 93.1081C422.422 93.1229 422.482 93.1303 422.542 93.1301C422.703 93.1299 422.859 93.0761 422.986 92.9772C423.114 92.8782 423.204 92.7397 423.244 92.5835C423.496 91.5897 423.718 90.5546 423.922 89.4213C423.956 89.2321 423.914 89.0371 423.804 88.8791C423.695 88.7212 423.527 88.6133 423.338 88.5791Z" fill="#94BDFF"/>
</g>
<g filter="url(#filter12_d)">
<path d="M99.0701 97.6185V128.264H123.264V97.6185H99.0701ZM121.651 126.651H100.683V99.2314H121.651V126.651Z" fill="#94BDFF"/>
<path d="M74.8766 113.748V111.328H89.3927V109.715H73.2637V113.748C73.2637 115.971 75.0725 117.78 77.2959 117.78H97.4572V116.167H77.2959C75.9621 116.167 74.8766 115.082 74.8766 113.748Z" fill="#94BDFF"/>
<path d="M76.4896 82.296C76.4896 80.9622 77.5751 79.8767 78.909 79.8767H117.619C118.952 79.8767 120.038 80.9622 120.038 82.296V96.0057H121.651V82.296C121.651 80.0727 119.842 78.2638 117.619 78.2638H78.909C76.6856 78.2638 74.8767 80.0727 74.8767 82.296V108.102H76.4896V82.296Z" fill="#94BDFF"/>
<path d="M118.502 94.6869V82.9986C118.502 82.1929 117.776 81.5376 116.883 81.5376H79.6449C78.752 81.5376 78.0259 82.1929 78.0259 82.9986V105.645H79.6449V82.9986H116.883V94.6869H118.502Z" fill="#94BDFF"/>
<path d="M90.199 86.3282H82.1345V94.3927H90.199V86.3282ZM88.5861 92.7798H83.7474V87.9411H88.5861V92.7798Z" fill="#94BDFF"/>
<path d="M111.167 89.3046H91.812V90.9175H111.167V89.3046Z" fill="#94BDFF"/>
<path d="M114.393 92.7799H91.812V94.3928H114.393V92.7799Z" fill="#94BDFF"/>
<path d="M94.2312 104.07H82.9409V105.683H94.2312V104.07Z" fill="#94BDFF"/>
<path d="M97.457 100.844H82.9409V102.457H97.457V100.844Z" fill="#94BDFF"/>
<path d="M115.199 108.102H113.586V110.522H107.135V104.07H113.586V102.457H105.522V112.135H115.199V108.102Z" fill="#94BDFF"/>
<path d="M109.318 105.113L108.177 106.253L111.1 109.176L118.92 103.094L117.93 101.82L111.234 107.029L109.318 105.113Z" fill="#94BDFF"/>
<path d="M115.199 119.393H113.586V121.812H107.135V115.36H113.586V113.748H105.522V123.425H115.199V119.393Z" fill="#94BDFF"/>
<path d="M109.318 116.403L108.177 117.544L111.1 120.466L118.92 114.384L117.93 113.111L111.234 118.319L109.318 116.403Z" fill="#94BDFF"/>
</g>
<path fill-rule="evenodd" clip-rule="evenodd" d="M39 104C39 135.178 66.621 160.5 97.8516 160.5C129.056 160.5 154.352 135.204 154.352 104H154.852H155.352H345.352H345.852H346.352C346.352 135.204 371.647 160.5 402.852 160.5C434.056 160.5 459.352 135.204 459.352 104H459.852H460.352H650.352H650.852H651.352C651.352 135.204 676.647 160.5 707.852 160.5C739.056 160.5 764.352 135.204 764.352 104H764.852H765.352H955.352H955.852H956.352C956.352 135.204 981.647 160.5 1012.85 160.5C1044.06 160.5 1069.35 135.204 1069.35 104H1070.35C1070.35 135.756 1044.61 161.5 1012.85 161.5C981.429 161.5 955.894 136.295 955.36 105H765.343C764.809 136.295 739.274 161.5 707.852 161.5C676.429 161.5 650.894 136.295 650.36 105H460.343C459.809 136.295 434.274 161.5 402.852 161.5C371.429 161.5 345.894 136.295 345.36 105H155.343C154.809 136.295 129.274 161.5 97.8516 161.5C66.1217 161.5 38 135.782 38 104H39Z" fill="url(#paint4_linear)"/>
<path fill-rule="evenodd" clip-rule="evenodd" d="M42.7467 93.071L38.3132 100.75L33.8797 93.071C32.6672 93.4023 32.0083 94.8296 32.684 96.0001L38.3132 105.75L43.9424 96.0001C44.6181 94.8296 43.9592 93.4023 42.7467 93.071Z" fill="#051229"/>
<line x1="1069.85" y1="104.5" x2="1152.85" y2="104.5" stroke="#65A0FD"/>
<defs>
<filter id="filter0_d" x="1148.45" y="90.9001" width="31.2773" height="32.8641" filterUnits="userSpaceOnUse" color-interpolation-filters="sRGB">
<feFlood flood-opacity="0" result="BackgroundImageFix"/>
<feColorMatrix in="SourceAlpha" type="matrix" values="0 0 0 0 0 0 0 0 0 0 0 0 0 0 0 0 0 0 127 0" result="hardAlpha"/>
<feOffset dy="2"/>
<feGaussianBlur stdDeviation="1.5"/>
<feColorMatrix type="matrix" values="0 0 0 0 0 0 0 0 0 0 0 0 0 0 0 0 0 0 0.1 0"/>
<feBlend mode="normal" in2="BackgroundImageFix" result="effect1_dropShadow"/>
<feBlend mode="normal" in="SourceGraphic" in2="effect1_dropShadow" result="shape"/>
</filter>
<filter id="filter1_d" x="0" y="2" width="200" height="200" filterUnits="userSpaceOnUse" color-interpolation-filters="sRGB">
<feFlood flood-opacity="0" result="BackgroundImageFix"/>
<feColorMatrix in="SourceAlpha" type="matrix" values="0 0 0 0 0 0 0 0 0 0 0 0 0 0 0 0 0 0 127 0" result="hardAlpha"/>
<feOffset dx="2" dy="2"/>
<feGaussianBlur stdDeviation="25"/>
<feColorMatrix type="matrix" values="0 0 0 0 0.513993 0 0 0 0 0.680207 0 0 0 0 0.941667 0 0 0 1 0"/>
<feBlend mode="normal" in2="BackgroundImageFix" result="effect1_dropShadow"/>
<feBlend mode="normal" in="SourceGraphic" in2="effect1_dropShadow" result="shape"/>
</filter>
<filter id="filter2_d" x="38" y="44" width="120" height="120" filterUnits="userSpaceOnUse" color-interpolation-filters="sRGB">
<feFlood flood-opacity="0" result="BackgroundImageFix"/>
<feColorMatrix in="SourceAlpha" type="matrix" values="0 0 0 0 0 0 0 0 0 0 0 0 0 0 0 0 0 0 127 0" result="hardAlpha"/>
<feOffset dy="4"/>
<feGaussianBlur stdDeviation="5"/>
<feColorMatrix type="matrix" values="0 0 0 0 0 0 0 0 0 0 0 0 0 0 0 0 0 0 0.35 0"/>
<feBlend mode="normal" in2="BackgroundImageFix" result="effect1_dropShadow"/>
<feBlend mode="normal" in="SourceGraphic" in2="effect1_dropShadow" result="shape"/>
</filter>
<filter id="filter3_d" x="914.852" y="2" width="200" height="200" filterUnits="userSpaceOnUse" color-interpolation-filters="sRGB">
<feFlood flood-opacity="0" result="BackgroundImageFix"/>
<feColorMatrix in="SourceAlpha" type="matrix" values="0 0 0 0 0 0 0 0 0 0 0 0 0 0 0 0 0 0 127 0" result="hardAlpha"/>
<feOffset dx="2" dy="2"/>
<feGaussianBlur stdDeviation="25"/>
<feColorMatrix type="matrix" values="0 0 0 0 0.513993 0 0 0 0 0.680207 0 0 0 0 0.941667 0 0 0 1 0"/>
<feBlend mode="normal" in2="BackgroundImageFix" result="effect1_dropShadow"/>
<feBlend mode="normal" in="SourceGraphic" in2="effect1_dropShadow" result="shape"/>
</filter>
<filter id="filter4_d" x="952.852" y="44" width="120" height="120" filterUnits="userSpaceOnUse" color-interpolation-filters="sRGB">
<feFlood flood-opacity="0" result="BackgroundImageFix"/>
<feColorMatrix in="SourceAlpha" type="matrix" values="0 0 0 0 0 0 0 0 0 0 0 0 0 0 0 0 0 0 127 0" result="hardAlpha"/>
<feOffset dy="4"/>
<feGaussianBlur stdDeviation="5"/>
<feColorMatrix type="matrix" values="0 0 0 0 0 0 0 0 0 0 0 0 0 0 0 0 0 0 0.35 0"/>
<feBlend mode="normal" in2="BackgroundImageFix" result="effect1_dropShadow"/>
<feBlend mode="normal" in="SourceGraphic" in2="effect1_dropShadow" result="shape"/>
</filter>
<filter id="filter5_d" x="975.552" y="79.7" width="75.2001" height="40.3714" filterUnits="userSpaceOnUse" color-interpolation-filters="sRGB">
<feFlood flood-opacity="0" result="BackgroundImageFix"/>
<feColorMatrix in="SourceAlpha" type="matrix" values="0 0 0 0 0 0 0 0 0 0 0 0 0 0 0 0 0 0 127 0" result="hardAlpha"/>
<feOffset dx="0.3" dy="0.3"/>
<feGaussianBlur stdDeviation="0.15"/>
<feColorMatrix type="matrix" values="0 0 0 0 0 0 0 0 0 0 0 0 0 0 0 0 0 0 1 0"/>
<feBlend mode="normal" in2="BackgroundImageFix" result="effect1_dropShadow"/>
<feBlend mode="normal" in="SourceGraphic" in2="effect1_dropShadow" result="shape"/>
</filter>
<filter id="filter6_d" x="609.852" y="0" width="200" height="200" filterUnits="userSpaceOnUse" color-interpolation-filters="sRGB">
<feFlood flood-opacity="0" result="BackgroundImageFix"/>
<feColorMatrix in="SourceAlpha" type="matrix" values="0 0 0 0 0 0 0 0 0 0 0 0 0 0 0 0 0 0 127 0" result="hardAlpha"/>
<feOffset dx="2" dy="2"/>
<feGaussianBlur stdDeviation="25"/>
<feColorMatrix type="matrix" values="0 0 0 0 0.513993 0 0 0 0 0.680207 0 0 0 0 0.941667 0 0 0 1 0"/>
<feBlend mode="normal" in2="BackgroundImageFix" result="effect1_dropShadow"/>
<feBlend mode="normal" in="SourceGraphic" in2="effect1_dropShadow" result="shape"/>
</filter>
<filter id="filter7_d" x="647.852" y="42" width="120" height="120" filterUnits="userSpaceOnUse" color-interpolation-filters="sRGB">
<feFlood flood-opacity="0" result="BackgroundImageFix"/>
<feColorMatrix in="SourceAlpha" type="matrix" values="0 0 0 0 0 0 0 0 0 0 0 0 0 0 0 0 0 0 127 0" result="hardAlpha"/>
<feOffset dy="4"/>
<feGaussianBlur stdDeviation="5"/>
<feColorMatrix type="matrix" values="0 0 0 0 0 0 0 0 0 0 0 0 0 0 0 0 0 0 0.35 0"/>
<feBlend mode="normal" in2="BackgroundImageFix" result="effect1_dropShadow"/>
<feBlend mode="normal" in="SourceGraphic" in2="effect1_dropShadow" result="shape"/>
</filter>
<filter id="filter8_d" x="675.852" y="70" width="65.5341" height="54.6" filterUnits="userSpaceOnUse" color-interpolation-filters="sRGB">
<feFlood flood-opacity="0" result="BackgroundImageFix"/>
<feColorMatrix in="SourceAlpha" type="matrix" values="0 0 0 0 0 0 0 0 0 0 0 0 0 0 0 0 0 0 127 0" result="hardAlpha"/>
<feOffset dx="0.3" dy="0.3"/>
<feGaussianBlur stdDeviation="0.15"/>
<feColorMatrix type="matrix" values="0 0 0 0 0 0 0 0 0 0 0 0 0 0 0 0 0 0 1 0"/>
<feBlend mode="normal" in2="BackgroundImageFix" result="effect1_dropShadow"/>
<feBlend mode="normal" in="SourceGraphic" in2="effect1_dropShadow" result="shape"/>
</filter>
<filter id="filter9_d" x="304.852" y="2" width="200" height="200" filterUnits="userSpaceOnUse" color-interpolation-filters="sRGB">
<feFlood flood-opacity="0" result="BackgroundImageFix"/>
<feColorMatrix in="SourceAlpha" type="matrix" values="0 0 0 0 0 0 0 0 0 0 0 0 0 0 0 0 0 0 127 0" result="hardAlpha"/>
<feOffset dx="2" dy="2"/>
<feGaussianBlur stdDeviation="25"/>
<feColorMatrix type="matrix" values="0 0 0 0 0.513993 0 0 0 0 0.680207 0 0 0 0 0.941667 0 0 0 1 0"/>
<feBlend mode="normal" in2="BackgroundImageFix" result="effect1_dropShadow"/>
<feBlend mode="normal" in="SourceGraphic" in2="effect1_dropShadow" result="shape"/>
</filter>
<filter id="filter10_d" x="342.852" y="44" width="120" height="120" filterUnits="userSpaceOnUse" color-interpolation-filters="sRGB">
<feFlood flood-opacity="0" result="BackgroundImageFix"/>
<feColorMatrix in="SourceAlpha" type="matrix" values="0 0 0 0 0 0 0 0 0 0 0 0 0 0 0 0 0 0 127 0" result="hardAlpha"/>
<feOffset dy="4"/>
<feGaussianBlur stdDeviation="5"/>
<feColorMatrix type="matrix" values="0 0 0 0 0 0 0 0 0 0 0 0 0 0 0 0 0 0 0.35 0"/>
<feBlend mode="normal" in2="BackgroundImageFix" result="effect1_dropShadow"/>
<feBlend mode="normal" in="SourceGraphic" in2="effect1_dropShadow" result="shape"/>
</filter>
<filter id="filter11_d" x="378.816" y="73.9752" width="49.6662" height="49.6667" filterUnits="userSpaceOnUse" color-interpolation-filters="sRGB">
<feFlood flood-opacity="0" result="BackgroundImageFix"/>
<feColorMatrix in="SourceAlpha" type="matrix" values="0 0 0 0 0 0 0 0 0 0 0 0 0 0 0 0 0 0 127 0" result="hardAlpha"/>
<feOffset dx="0.3" dy="0.3"/>
<feGaussianBlur stdDeviation="0.15"/>
<feColorMatrix type="matrix" values="0 0 0 0 0 0 0 0 0 0 0 0 0 0 0 0 0 0 1 0"/>
<feBlend mode="normal" in2="BackgroundImageFix" result="effect1_dropShadow"/>
<feBlend mode="normal" in="SourceGraphic" in2="effect1_dropShadow" result="shape"/>
</filter>
<filter id="filter12_d" x="73.2637" y="78.2638" width="50.5999" height="50.5998" filterUnits="userSpaceOnUse" color-interpolation-filters="sRGB">
<feFlood flood-opacity="0" result="BackgroundImageFix"/>
<feColorMatrix in="SourceAlpha" type="matrix" values="0 0 0 0 0 0 0 0 0 0 0 0 0 0 0 0 0 0 127 0" result="hardAlpha"/>
<feOffset dx="0.3" dy="0.3"/>
<feGaussianBlur stdDeviation="0.15"/>
<feColorMatrix type="matrix" values="0 0 0 0 0 0 0 0 0 0 0 0 0 0 0 0 0 0 1 0"/>
<feBlend mode="normal" in2="BackgroundImageFix" result="effect1_dropShadow"/>
<feBlend mode="normal" in="SourceGraphic" in2="effect1_dropShadow" result="shape"/>
</filter>
<radialGradient id="paint0_radial" cx="0" cy="0" r="1" gradientUnits="userSpaceOnUse" gradientTransform="translate(54.3123 68.8202) rotate(45.3663) scale(183.947 127.026)">
<stop stop-color="#156EFA"/>
<stop offset="1" stop-color="#2F3043"/>
</radialGradient>
<radialGradient id="paint1_radial" cx="0" cy="0" r="1" gradientUnits="userSpaceOnUse" gradientTransform="translate(969.164 68.8202) rotate(45.3663) scale(183.947 127.026)">
<stop stop-color="#156EFA"/>
<stop offset="1" stop-color="#2F3043"/>
</radialGradient>
<radialGradient id="paint2_radial" cx="0" cy="0" r="1" gradientUnits="userSpaceOnUse" gradientTransform="translate(664.164 66.8202) rotate(45.3663) scale(183.947 127.026)">
<stop stop-color="#156EFA"/>
<stop offset="1" stop-color="#2F3043"/>
</radialGradient>
<radialGradient id="paint3_radial" cx="0" cy="0" r="1" gradientUnits="userSpaceOnUse" gradientTransform="translate(359.164 68.8202) rotate(45.3663) scale(183.947 127.026)">
<stop stop-color="#156EFA"/>
<stop offset="1" stop-color="#2F3043"/>
</radialGradient>
<linearGradient id="paint4_linear" x1="-287.584" y1="92" x2="489.175" y2="-612.314" gradientUnits="userSpaceOnUse">
<stop offset="0.0328756" stop-color="#051229"/>
<stop offset="1" stop-color="#65A0FD"/>
</linearGradient>
</defs>
</svg>
