<svg width="113" height="213" viewBox="0 0 113 213" fill="none" xmlns="http://www.w3.org/2000/svg">
<g filter="url(#filter0_d)">
<path d="M-90.5174 108.698C-92.3851 106.715 -92.3547 103.572 -90.4488 101.627L-11.8451 21.4255C-0.247838 9.59254 18.555 9.59255 30.1523 21.4256L108.383 101.246C110.361 103.265 110.308 106.555 108.264 108.505L3.49992 208.5L-90.5174 108.698Z" fill="#A6A9AC"/>
</g>
<path d="M9.64524 99.8318C10.6372 99.8318 11.4959 99.9971 12.2212 100.328C12.9572 100.658 13.5226 101.128 13.9172 101.736C14.3119 102.344 14.5092 103.064 14.5092 103.896C14.5092 104.717 14.3119 105.437 13.9172 106.056C13.5226 106.664 12.9572 107.133 12.2212 107.464C11.4959 107.784 10.6372 107.944 9.64524 107.944H7.38924V111.032H4.79724L4.79724 99.8318H9.64524ZM9.50124 105.832C10.2799 105.832 10.8719 105.666 11.2772 105.336C11.6826 104.994 11.8852 104.514 11.8852 103.896C11.8852 103.266 11.6826 102.786 11.2772 102.456C10.8719 102.114 10.2799 101.944 9.50124 101.944H7.38924V105.832H9.50124ZM23.4957 111.032L21.3357 107.912H21.2077H18.9517V111.032H16.3597V99.8318H21.2077C22.1997 99.8318 23.0584 99.9971 23.7837 100.328C24.5197 100.658 25.0851 101.128 25.4797 101.736C25.8744 102.344 26.0717 103.064 26.0717 103.896C26.0717 104.728 25.8691 105.448 25.4637 106.056C25.0691 106.653 24.5037 107.112 23.7677 107.432L26.2797 111.032H23.4957ZM23.4477 103.896C23.4477 103.266 23.2451 102.786 22.8397 102.456C22.4344 102.114 21.8424 101.944 21.0637 101.944H18.9517V105.848H21.0637C21.8424 105.848 22.4344 105.677 22.8397 105.336C23.2451 104.994 23.4477 104.514 23.4477 103.896ZM33.5494 111.224C32.3867 111.224 31.336 110.973 30.3974 110.472C29.4694 109.97 28.7387 109.282 28.2054 108.408C27.6827 107.522 27.4214 106.53 27.4214 105.432C27.4214 104.333 27.6827 103.346 28.2054 102.472C28.7387 101.586 29.4694 100.893 30.3974 100.392C31.336 99.8905 32.3867 99.6398 33.5494 99.6398C34.712 99.6398 35.7574 99.8905 36.6854 100.392C37.6134 100.893 38.344 101.586 38.8774 102.472C39.4107 103.346 39.6774 104.333 39.6774 105.432C39.6774 106.53 39.4107 107.522 38.8774 108.408C38.344 109.282 37.6134 109.97 36.6854 110.472C35.7574 110.973 34.712 111.224 33.5494 111.224ZM33.5494 109.016C34.2107 109.016 34.808 108.866 35.3414 108.568C35.8747 108.258 36.2907 107.832 36.5894 107.288C36.8987 106.744 37.0534 106.125 37.0534 105.432C37.0534 104.738 36.8987 104.12 36.5894 103.576C36.2907 103.032 35.8747 102.61 35.3414 102.312C34.808 102.002 34.2107 101.848 33.5494 101.848C32.888 101.848 32.2907 102.002 31.7574 102.312C31.224 102.61 30.8027 103.032 30.4934 103.576C30.1947 104.12 30.0454 104.738 30.0454 105.432C30.0454 106.125 30.1947 106.744 30.4934 107.288C30.8027 107.832 31.224 108.258 31.7574 108.568C32.2907 108.866 32.888 109.016 33.5494 109.016ZM41.6254 99.8318H46.7134C47.9294 99.8318 49.0014 100.066 49.9294 100.536C50.868 100.994 51.5934 101.645 52.1054 102.488C52.628 103.33 52.8894 104.312 52.8894 105.432C52.8894 106.552 52.628 107.533 52.1054 108.376C51.5934 109.218 50.868 109.874 49.9294 110.344C49.0014 110.802 47.9294 111.032 46.7134 111.032H41.6254V99.8318ZM46.5854 108.904C47.7054 108.904 48.596 108.594 49.2574 107.976C49.9294 107.346 50.2654 106.498 50.2654 105.432C50.2654 104.365 49.9294 103.522 49.2574 102.904C48.596 102.274 47.7054 101.96 46.5854 101.96H44.2174V108.904H46.5854ZM59.8201 111.224C58.2201 111.224 56.9721 110.781 56.0761 109.896C55.1908 109.01 54.7481 107.746 54.7481 106.104V99.8318H57.3401V106.008C57.3401 108.013 58.1721 109.016 59.8361 109.016C60.6468 109.016 61.2654 108.776 61.6921 108.296C62.1188 107.805 62.3321 107.042 62.3321 106.008V99.8318H64.8921V106.104C64.8921 107.746 64.4441 109.01 63.5481 109.896C62.6628 110.781 61.4201 111.224 59.8201 111.224ZM72.8135 111.224C71.6722 111.224 70.6375 110.978 69.7095 110.488C68.7922 109.986 68.0668 109.298 67.5335 108.424C67.0108 107.538 66.7495 106.541 66.7495 105.432C66.7495 104.322 67.0108 103.33 67.5335 102.456C68.0668 101.57 68.7922 100.882 69.7095 100.392C70.6375 99.8905 71.6775 99.6398 72.8295 99.6398C73.8002 99.6398 74.6748 99.8105 75.4535 100.152C76.2428 100.493 76.9042 100.984 77.4375 101.624L75.7735 103.16C75.0162 102.285 74.0775 101.848 72.9575 101.848C72.2642 101.848 71.6455 102.002 71.1015 102.312C70.5575 102.61 70.1308 103.032 69.8215 103.576C69.5228 104.12 69.3735 104.738 69.3735 105.432C69.3735 106.125 69.5228 106.744 69.8215 107.288C70.1308 107.832 70.5575 108.258 71.1015 108.568C71.6455 108.866 72.2642 109.016 72.9575 109.016C74.0775 109.016 75.0162 108.573 75.7735 107.688L77.4375 109.224C76.9042 109.874 76.2428 110.37 75.4535 110.712C74.6642 111.053 73.7842 111.224 72.8135 111.224ZM81.3985 101.944H77.8145V99.8318H87.5745V101.944H83.9905V111.032H81.3985V101.944ZM92.571 111.224C91.6857 111.224 90.827 111.106 89.995 110.872C89.1737 110.626 88.5123 110.312 88.011 109.928L88.891 107.976C89.371 108.328 89.9417 108.61 90.603 108.824C91.2643 109.037 91.9257 109.144 92.587 109.144C93.323 109.144 93.867 109.037 94.219 108.824C94.571 108.6 94.747 108.306 94.747 107.944C94.747 107.677 94.6403 107.458 94.427 107.288C94.2243 107.106 93.9577 106.962 93.627 106.856C93.307 106.749 92.8697 106.632 92.315 106.504C91.4617 106.301 90.763 106.098 90.219 105.896C89.675 105.693 89.2057 105.368 88.811 104.92C88.427 104.472 88.235 103.874 88.235 103.128C88.235 102.477 88.411 101.89 88.763 101.368C89.115 100.834 89.643 100.413 90.347 100.104C91.0617 99.7945 91.931 99.6398 92.955 99.6398C93.6697 99.6398 94.3683 99.7251 95.051 99.8958C95.7337 100.066 96.331 100.312 96.843 100.632L96.043 102.6C95.0083 102.013 93.9737 101.72 92.939 101.72C92.2137 101.72 91.675 101.837 91.323 102.072C90.9817 102.306 90.811 102.616 90.811 103C90.811 103.384 91.0083 103.672 91.403 103.864C91.8083 104.045 92.4217 104.226 93.243 104.408C94.0963 104.61 94.795 104.813 95.339 105.016C95.883 105.218 96.347 105.538 96.731 105.976C97.1257 106.413 97.323 107.005 97.323 107.752C97.323 108.392 97.1417 108.978 96.779 109.512C96.427 110.034 95.8937 110.45 95.179 110.76C94.4643 111.069 93.595 111.224 92.571 111.224Z" fill="#FFEF5F"/>
<defs>
<filter id="filter0_d" x="-92.8984" y="12.5508" width="205.731" height="199.949" filterUnits="userSpaceOnUse" color-interpolation-filters="sRGB">
<feFlood flood-opacity="0" result="BackgroundImageFix"/>
<feColorMatrix in="SourceAlpha" type="matrix" values="0 0 0 0 0 0 0 0 0 0 0 0 0 0 0 0 0 0 127 0" result="hardAlpha"/>
<feOffset dx="1" dy="2"/>
<feGaussianBlur stdDeviation="1"/>
<feColorMatrix type="matrix" values="0 0 0 0 0 0 0 0 0 0 0 0 0 0 0 0 0 0 0.4 0"/>
<feBlend mode="normal" in2="BackgroundImageFix" result="effect1_dropShadow"/>
<feBlend mode="normal" in="SourceGraphic" in2="effect1_dropShadow" result="shape"/>
</filter>
</defs>
</svg>
