<svg width="113" height="213" viewBox="0 0 113 213" fill="none" xmlns="http://www.w3.org/2000/svg">
<g filter="url(#filter0_d)">
<path d="M-90.5174 108.698C-92.3851 106.715 -92.3547 103.572 -90.4488 101.627L-11.8451 21.4255C-0.247838 9.59254 18.555 9.59255 30.1523 21.4256L108.383 101.246C110.361 103.265 110.308 106.555 108.264 108.505L3.49992 208.5L-90.5174 108.698Z" fill="#A6A9AC"/>
</g>
<path d="M44.944 104.464H41.568C41.968 103.904 42.432 103.248 42.88 102.592L40.752 101.936C40.48 102.704 40 103.76 39.568 104.464H35.856L36.992 103.952C36.752 103.376 36.208 102.56 35.728 101.92H44.608V100.112H39.44C39.232 99.584 38.832 98.896 38.432 98.384L36.464 98.864C36.72 99.232 36.992 99.68 37.184 100.112H31.68V101.92H35.328L33.968 102.512C34.384 103.104 34.832 103.872 35.104 104.464H31.808V106.672C31.808 108.304 31.696 110.592 30.432 112.224C30.864 112.464 31.712 113.216 32.032 113.584C33.504 111.712 33.808 108.704 33.808 106.72V106.32H44.944V104.464ZM56.8 103.056H51.2V100.896H56.8V103.056ZM58.736 99.072H49.36V104.864H58.736V99.072ZM51.344 108.016V110.768H48.96V108.016H51.344ZM47.168 113.392H48.96V112.592H51.344V113.312H53.248V106.192H47.168V113.392ZM56.432 110.768V108.016H58.976V110.768H56.432ZM54.608 106.192V113.392H56.432V112.592H58.976V113.328H60.896V106.192H54.608Z" fill="#FFEF5F"/>
<defs>
<filter id="filter0_d" x="-92.8984" y="12.5508" width="205.731" height="199.949" filterUnits="userSpaceOnUse" color-interpolation-filters="sRGB">
<feFlood flood-opacity="0" result="BackgroundImageFix"/>
<feColorMatrix in="SourceAlpha" type="matrix" values="0 0 0 0 0 0 0 0 0 0 0 0 0 0 0 0 0 0 127 0" result="hardAlpha"/>
<feOffset dx="1" dy="2"/>
<feGaussianBlur stdDeviation="1"/>
<feColorMatrix type="matrix" values="0 0 0 0 0 0 0 0 0 0 0 0 0 0 0 0 0 0 0.4 0"/>
<feBlend mode="normal" in2="BackgroundImageFix" result="effect1_dropShadow"/>
<feBlend mode="normal" in="SourceGraphic" in2="effect1_dropShadow" result="shape"/>
</filter>
</defs>
</svg>
