<svg width="66" height="67" viewBox="0 0 66 67" fill="none" xmlns="http://www.w3.org/2000/svg">
<path d="M5.50014 28.501C13.5001 4.00098 41.6338 3.71434 52.5002 19.5011" stroke="#156EFA" stroke-width="3" stroke-linecap="round"/>
<path d="M55.4998 25.5011C60.9998 46.001 46.5 61.001 27.5 60.0011" stroke="#156EFA" stroke-width="3" stroke-linecap="round"/>
<path d="M48.4798 29.2104C51.5 41.001 44.0001 50.5009 33.3089 52.3334" stroke="#156EFA" stroke-width="3" stroke-linecap="round"/>
<path d="M14.0234 30.0093C19.3435 12.6019 37.6818 12.89 45.1746 22.9398" stroke="#156EFA" stroke-width="3" stroke-linecap="round"/>
<path d="M21.2168 36.1529C21.2167 25.001 32.236 21.9748 38.7095 27.6636" stroke="#156EFA" stroke-width="3" stroke-linecap="round"/>
<path d="M40.1466 34.1817C40.1466 40.001 35 44.501 28.0001 43.001" stroke="#156EFA" stroke-width="3" stroke-linecap="round"/>
<line x1="40.2" y1="33.501" x2="60.2" y2="33.501" stroke="#156EFA" stroke-width="3" stroke-linecap="round"/>
<line x1="1.5" y1="33.501" x2="20.5" y2="33.501" stroke="#156EFA" stroke-width="3" stroke-linecap="round"/>
<line x1="32.515" y1="32.9431" x2="59.9574" y2="16.486" stroke="#156EFA" stroke-width="3" stroke-linecap="round"/>
<line x1="31" y1="24.501" x2="31" y2="4.50098" stroke="#156EFA" stroke-width="3" stroke-linecap="round"/>
<line x1="31" y1="63.501" x2="31" y2="43.501" stroke="#156EFA" stroke-width="3" stroke-linecap="round"/>
<circle cx="31" cy="34.001" r="3" fill="#156EFA"/>
<circle cx="14" cy="51.001" r="11.5" stroke="#156EFA" stroke-width="3"/>
<path d="M14.2916 49.8551C11.927 49.2406 11.1666 48.6051 11.1666 47.6156C11.1666 46.4801 12.2187 45.6885 13.9791 45.6885C15.8332 45.6885 16.5207 46.5739 16.5832 47.876H18.8853C18.8124 46.0843 17.7187 44.4385 15.5416 43.9072V41.626H12.4166V43.876C10.3958 44.3135 8.77075 45.626 8.77075 47.6364C8.77075 50.0426 10.7603 51.2406 13.6666 51.9385C16.2707 52.5635 16.7916 53.4801 16.7916 54.4489C16.7916 55.1676 16.2812 56.3135 13.9791 56.3135C11.8333 56.3135 10.9895 55.3551 10.8749 54.126H8.58325C8.70825 56.4072 10.4166 57.6885 12.4166 58.1156V60.376H15.5416V58.1364C17.5728 57.751 19.1874 56.5739 19.1874 54.4385C19.1874 51.4801 16.6562 50.4697 14.2916 49.8551Z" fill="#156EFA"/>
</svg>
