<svg width="249" height="127" viewBox="0 0 249 127" fill="none" xmlns="http://www.w3.org/2000/svg">
<g filter="url(#filter0_d)">
<path d="M243.095 69L169.286 19L146.071 42.2143" stroke="#51324F" stroke-width="10"/>
<path d="M189.524 69L115.714 19L5 119" stroke="#51324F" stroke-width="10"/>
</g>
<g filter="url(#filter1_d)">
<path d="M36.2487 19.3041L21 6.14833L29.6708 33.0578H72.726L80.4999 6.14833L65.2512 19.3041L50.8994 1.06543L36.2487 19.3041Z" fill="#51324F" stroke="#51324F"/>
<path d="M32.3618 12.1281L35.0528 5.25122L39.8367 11.2311L36.2487 15.417L32.3618 12.1281Z" fill="#51324F" stroke="#51324F"/>
<path d="M69.1377 12.1281L66.4467 5.25122L61.6628 11.2311L65.2508 15.417L69.1377 12.1281Z" fill="#51324F" stroke="#51324F"/>
<line x1="29.3716" y1="39.4346" x2="72.4268" y2="39.4346" stroke="#51324F" stroke-width="7"/>
</g>
<defs>
<filter id="filter0_d" x="0.648438" y="12.5439" width="248.251" height="114.166" filterUnits="userSpaceOnUse" color-interpolation-filters="sRGB">
<feFlood flood-opacity="0" result="BackgroundImageFix"/>
<feColorMatrix in="SourceAlpha" type="matrix" values="0 0 0 0 0 0 0 0 0 0 0 0 0 0 0 0 0 0 127 0" result="hardAlpha"/>
<feOffset dx="1" dy="2"/>
<feGaussianBlur stdDeviation="1"/>
<feColorMatrix type="matrix" values="0 0 0 0 0 0 0 0 0 0 0 0 0 0 0 0 0 0 0.4 0"/>
<feBlend mode="normal" in2="BackgroundImageFix" result="effect1_dropShadow"/>
<feBlend mode="normal" in="SourceGraphic" in2="effect1_dropShadow" result="shape"/>
</filter>
<filter id="filter1_d" x="18.9775" y="0.261963" width="65.4695" height="46.6726" filterUnits="userSpaceOnUse" color-interpolation-filters="sRGB">
<feFlood flood-opacity="0" result="BackgroundImageFix"/>
<feColorMatrix in="SourceAlpha" type="matrix" values="0 0 0 0 0 0 0 0 0 0 0 0 0 0 0 0 0 0 127 0" result="hardAlpha"/>
<feOffset dx="1" dy="2"/>
<feGaussianBlur stdDeviation="1"/>
<feColorMatrix type="matrix" values="0 0 0 0 0 0 0 0 0 0 0 0 0 0 0 0 0 0 0.4 0"/>
<feBlend mode="normal" in2="BackgroundImageFix" result="effect1_dropShadow"/>
<feBlend mode="normal" in="SourceGraphic" in2="effect1_dropShadow" result="shape"/>
</filter>
</defs>
</svg>
