<svg width="50" height="50" viewBox="0 0 50 50" fill="none" xmlns="http://www.w3.org/2000/svg">
<g clip-path="url(#clip0)">
<circle cx="24.2002" cy="13.5" r="2.5" fill="#28514D"/>
<path d="M28.7533 27.1905C28.7468 27.1905 28.739 27.1904 28.7318 27.1903C28.2616 27.1816 27.8833 26.7797 27.8833 26.3118C27.8833 25.8382 28.2705 25.433 28.7481 25.433H28.7585C29.2361 25.433 29.6234 25.8382 29.6234 26.3118C29.6234 26.78 29.2448 27.1711 28.7747 27.1797C28.7675 27.1797 28.7598 27.1905 28.7533 27.1905Z" fill="#28514D"/>
<path d="M24.2622 12.6231C24.2561 12.6231 24.2486 12.623 24.2417 12.6228C23.7709 12.6151 23.3916 12.2383 23.3916 11.7697C23.3916 11.2962 23.7788 10.9164 24.2565 10.9164H24.2679C24.7455 10.9164 25.1327 11.2961 25.1327 11.7697C25.1327 12.2383 24.7534 12.617 24.2826 12.6248C24.2758 12.6249 24.2682 12.6231 24.2622 12.6231Z" fill="#28514D"/>
<path d="M33.25 27.1476C33.2498 27.1476 33.2498 27.1476 33.2497 27.1476C32.7721 27.1476 32.3848 26.7638 32.3848 26.2903C32.3848 25.8167 32.7719 25.433 33.2495 25.433H33.25C33.7276 25.433 34.1148 25.8167 34.1148 26.2903C34.1148 26.7638 33.7276 27.1476 33.25 27.1476Z" fill="#28514D"/>
<path d="M37.7468 27.1904C37.7341 27.1904 37.721 27.1901 37.7081 27.1895C37.2474 27.1705 36.8799 26.7729 36.8799 26.3115C36.8799 25.8385 37.2663 25.4327 37.7433 25.4327C37.7438 25.4327 37.7443 25.4327 37.7447 25.4327H37.749C38.2266 25.4327 38.6138 25.838 38.6138 26.3115C38.6138 26.7726 38.2466 27.1594 37.7862 27.1788C37.773 27.1793 37.7597 27.1904 37.7468 27.1904Z" fill="#28514D"/>
<path d="M32.6501 48.7414H27.4258C27.2586 48.7414 27.095 48.6934 26.9548 48.6031L24.4674 47.002C23.6418 46.4707 23.065 45.6503 22.8436 44.6922C22.7683 44.3662 22.6503 44.051 22.493 43.7549L20.6067 40.2057C20.6048 40.2022 20.6031 40.1988 20.6012 40.1951C19.0522 37.1794 18.3453 34.684 18.44 32.566C18.5213 30.7491 19.189 29.5319 19.8314 28.5809L21.1632 26.609V13.9969C21.1632 12.298 22.5524 10.9125 24.2599 10.9082C25.9839 10.9125 27.3828 12.2982 27.3828 13.9969V25.7938C27.7957 25.5913 28.2606 25.477 28.7516 25.4759C29.6345 25.4779 30.4321 25.8447 30.9988 26.4316C31.5663 25.843 32.3657 25.4759 33.25 25.4758C34.1336 25.4759 34.9325 25.8427 35.5 26.4308C36.0666 25.8434 36.8641 25.4767 37.7461 25.4759C39.4596 25.4775 40.8524 26.852 40.8524 28.5402V36.6373C40.8524 37.3932 40.7832 38.1536 40.6469 38.8969C40.3361 40.5914 39.5641 42.2078 38.4146 43.5713L38.3704 43.6238C38.0109 44.0501 37.7531 44.5378 37.604 45.0734C37.2977 46.1747 36.5376 47.07 35.5191 47.5301L33.009 48.6642C32.8962 48.7151 32.7739 48.7414 32.6501 48.7414ZM27.6819 47.0268H32.4623L34.8016 45.9699C34.8016 45.9699 34.8016 45.9699 34.8016 45.9698C35.3529 45.7207 35.7667 45.2279 35.9365 44.6175C36.1517 43.8441 36.5239 43.1398 37.0429 42.5244L37.0871 42.472C38.0452 41.3356 38.6876 39.9932 38.945 38.5903C39.0629 37.9477 39.1226 37.2907 39.1226 36.6373V28.5402C39.1226 27.784 38.5179 27.1911 37.746 27.1905C36.9849 27.1911 36.3646 27.8075 36.3646 28.5645C36.3646 29.038 35.9773 29.4218 35.4997 29.4218C35.0221 29.4218 34.6349 29.0381 34.6349 28.5645C34.6349 27.8068 34.0135 27.1905 33.2498 27.1902C32.4857 27.1903 31.8639 27.8068 31.8639 28.5645C31.8639 29.038 31.4767 29.4218 30.9991 29.4218C30.5215 29.4218 30.1343 29.0381 30.1343 28.5645C30.1343 27.8086 29.5139 27.1921 28.7512 27.1905C27.9854 27.1922 27.3825 27.7851 27.3825 28.5402C27.3825 29.0137 26.9952 29.3975 26.5176 29.3975C26.04 29.3975 25.6528 29.0137 25.6528 28.5402V13.9969C25.6528 13.2412 25.0278 12.6246 24.2596 12.6228C23.5078 12.6247 22.8926 13.2411 22.8926 13.9969V26.8695C22.8926 27.0392 22.8417 27.2053 22.7464 27.3465L21.2683 29.5349C20.4344 30.7695 18.8825 33.0675 22.1395 39.4115L24.0231 42.9558C24.2503 43.3833 24.4206 43.8387 24.5294 44.3094C24.6499 44.8309 24.9624 45.2766 25.4091 45.5642L27.6819 47.0268Z" fill="#28514D"/>
<path d="M20.4068 37.8606C20.271 37.8606 20.1331 37.8287 20.0045 37.7616C19.5819 37.5409 19.4197 37.0225 19.6423 36.6036L21.4564 33.1894L21.1832 26.8852C21.1627 26.4121 21.5329 26.0122 22.0101 25.9919C22.4893 25.9711 22.8907 26.3386 22.9113 26.8116L23.1945 33.3473C23.201 33.4988 23.1669 33.6495 23.0955 33.7836L21.1725 37.4027C21.0178 37.6941 20.7175 37.8605 20.4068 37.8606Z" fill="#28514D"/>
<path d="M19.7955 20.2721C19.5875 20.2721 19.379 20.1982 19.2132 20.0484C17.6555 18.6411 16.7622 16.6365 16.7622 14.5486C16.7622 10.4463 20.1291 7.10876 24.2675 7.10876C28.4059 7.10876 31.7728 10.4463 31.7728 14.5486C31.7728 16.5358 30.9921 18.4041 29.5746 19.8092C29.2368 20.1441 28.6893 20.144 28.3515 19.8094C28.0137 19.4745 28.0137 18.9317 28.3514 18.5969C29.4422 17.5154 30.043 16.0776 30.043 14.5484C30.043 11.3916 27.4521 8.82323 24.2674 8.82323C21.0827 8.82323 18.4918 11.3916 18.4918 14.5484C18.4918 16.1552 19.1794 17.698 20.3781 18.7811C20.7311 19.1 20.7565 19.6422 20.4348 19.9921C20.2642 20.1778 20.0303 20.2721 19.7955 20.2721Z" fill="#28514D"/>
<path d="M32.379 23.7512C32.1577 23.7512 31.9363 23.6676 31.7675 23.5002C31.4297 23.1653 31.4297 22.6226 31.7675 22.2878C31.9401 22.1167 32.109 21.9373 32.2697 21.7544C32.5833 21.3975 33.1295 21.3601 33.4898 21.671C33.85 21.982 33.8877 22.5235 33.574 22.8806C33.3874 23.0928 33.1911 23.3014 32.9905 23.5003C32.8217 23.6676 32.6004 23.7512 32.379 23.7512Z" fill="#28514D"/>
<path d="M34.7782 20.2725C34.6622 20.2725 34.5444 20.2493 34.4314 20.2002C33.9939 20.0101 33.7948 19.5044 33.9866 19.0707C34.5755 17.7393 34.8741 16.3204 34.8741 14.8536C34.8741 14.3801 35.2613 13.9963 35.7389 13.9963C36.2166 13.9963 36.6038 14.3801 36.6038 14.8536C36.6038 16.5588 36.2562 18.2093 35.5708 19.7593C35.4284 20.0808 35.1111 20.2725 34.7782 20.2725Z" fill="#28514D"/>
<path d="M34.7791 11.1817C34.4599 11.1817 34.1545 11.0057 34.0042 10.7056L33.903 10.5024C33.7359 10.1658 33.4249 9.53879 33.291 9.32458C33.0393 8.92211 33.1646 8.39356 33.5706 8.14426C33.9768 7.89507 34.5098 8.01909 34.7613 8.42156C34.8715 8.59794 35.0233 8.88599 35.193 9.22136L40.3615 7.06624C40.8018 6.88255 41.3088 7.08761 41.494 7.52403C41.6792 7.96045 41.4724 8.46317 41.0322 8.64663L35.114 11.1144C35.0047 11.16 34.891 11.1817 34.7791 11.1817Z" fill="#28514D"/>
<path d="M31.6405 6.9994C31.4441 6.9994 31.2468 6.93356 31.0847 6.79857C30.2731 6.12291 29.3686 5.57356 28.3963 5.16583C27.9565 4.98145 27.7507 4.4784 27.9367 4.04232C28.1228 3.60636 28.63 3.40221 29.0702 3.58681C30.2015 4.06107 31.2536 4.69992 32.1972 5.48566C32.563 5.79017 32.6103 6.33106 32.3032 6.69352C32.132 6.89538 31.8871 6.9994 31.6405 6.9994Z" fill="#28514D"/>
<path d="M19.2973 5.46072C18.9755 5.46072 18.6665 5.28194 18.5176 4.97526C18.3102 4.54856 18.491 4.03625 18.9214 3.83084C20.5964 3.03104 22.3953 2.62549 24.2679 2.62549C24.7456 2.62549 25.1328 3.00921 25.1328 3.48278C25.1328 3.95635 24.7456 4.34007 24.2679 4.34007C22.6573 4.34007 21.111 4.68847 19.6721 5.37556C19.551 5.4334 19.4231 5.46072 19.2973 5.46072Z" fill="#28514D"/>
<path d="M15.9502 7.88079C15.7362 7.88079 15.5221 7.8026 15.3546 7.64509C15.0084 7.31886 14.9943 6.77626 15.3233 6.43311C15.6033 6.14095 15.901 5.85953 16.2081 5.59651C16.5693 5.2872 17.1156 5.32664 17.4278 5.68476C17.7401 6.0431 17.7002 6.58445 17.3388 6.89399C17.0744 7.1202 16.8182 7.36264 16.5772 7.61411C16.4074 7.7914 16.179 7.88079 15.9502 7.88079Z" fill="#28514D"/>
<path d="M11.0394 30.1851C10.8333 30.1851 10.6267 30.1126 10.4614 29.9653C10.1063 29.6487 10.0772 29.1066 10.3965 28.7546L15.346 23.2975C15.1156 23.0583 14.8948 22.8099 14.6855 22.5542C14.3846 22.1866 14.4412 21.6467 14.8121 21.3484C15.183 21.0502 15.7276 21.106 16.0287 21.4739C16.3638 21.8831 16.7329 22.2707 17.1261 22.6257C17.4775 22.9432 17.5046 23.4821 17.1868 23.8327L11.6828 29.9011C11.512 30.0892 11.2762 30.1851 11.0394 30.1851Z" fill="#28514D"/>
<path d="M13.4768 19.576C13.1228 19.576 12.7906 19.359 12.6634 19.0099C12.1783 17.679 11.9323 16.2807 11.9323 14.8537C11.9323 13.8635 12.0513 12.8842 12.2867 11.9325L7.30762 10.1128C6.8594 9.94899 6.63016 9.4561 6.79529 9.0118C6.96053 8.5676 7.4581 8.34036 7.90585 8.50405L13.6343 10.5976C14.0682 10.7562 14.2995 11.2251 14.1593 11.662C13.8293 12.6898 13.662 13.7637 13.662 14.8537C13.662 16.0815 13.8734 17.2839 14.2902 18.4273C14.4526 18.8726 14.22 19.3639 13.7707 19.5248C13.6736 19.5595 13.5743 19.576 13.4768 19.576Z" fill="#28514D"/>
<path d="M7.01617 39.8402H6.93775C5.25086 39.8402 3.87842 38.6692 3.87842 37.2299C3.87842 36.7563 4.26563 36.3726 4.74326 36.3726C5.22088 36.3726 5.60809 36.7563 5.60809 37.2299C5.60809 37.707 6.22939 38.1256 6.93775 38.1256H7.01617C7.72453 38.1256 8.34583 37.707 8.34583 37.2299C8.34583 36.7524 7.72453 36.3338 7.01617 36.3338C5.32927 36.3338 3.95683 35.1629 3.95683 33.7234V33.7109C3.95683 32.2715 5.32927 31.1006 7.01617 31.1006H7.09458C8.78147 31.1006 10.1539 32.2715 10.1539 33.7109C10.1539 34.1844 9.7667 34.5682 9.28908 34.5682C8.81145 34.5682 8.42424 34.1844 8.42424 33.7109C8.42424 33.2338 7.80294 32.8152 7.09458 32.8152H7.01617C6.30781 32.8152 5.68651 33.2338 5.68651 33.7109V33.7234C5.68651 34.2007 6.30781 34.6193 7.01617 34.6193C8.70306 34.6193 10.0755 35.7902 10.0755 37.2295C10.0755 38.6692 8.70306 39.8402 7.01617 39.8402Z" fill="#28514D"/>
<path d="M7.00107 32.577C6.52345 32.577 6.13623 32.1933 6.13623 31.7197V29.8909C6.13623 29.4173 6.52345 29.0336 7.00107 29.0336C7.47869 29.0336 7.8659 29.4173 7.8659 29.8909V31.7197C7.8659 32.1933 7.47869 32.577 7.00107 32.577Z" fill="#28514D"/>
<path d="M7.00107 42.0644C6.52345 42.0644 6.13623 41.6807 6.13623 41.2071V39.2639C6.13623 38.7903 6.52345 38.4066 7.00107 38.4066C7.47869 38.4066 7.8659 38.7903 7.8659 39.2639V41.2071C7.8659 41.6807 7.47869 42.0644 7.00107 42.0644Z" fill="#28514D"/>
<path d="M46.8624 10.9449H46.7839C45.0971 10.9449 43.7246 9.77394 43.7246 8.33449C43.7246 7.86092 44.1118 7.4772 44.5894 7.4772C45.0671 7.4772 45.4543 7.86092 45.4543 8.33449C45.4543 8.81171 46.0757 9.2303 46.7839 9.2303H46.8624C47.5707 9.2303 48.192 8.81171 48.192 8.33449C48.192 7.8488 47.5832 7.43845 46.8624 7.43845C45.1755 7.43845 43.803 6.2675 43.803 4.82805V4.81559C43.803 3.37615 45.1755 2.2052 46.8624 2.2052H46.9408C48.6277 2.2052 50.0001 3.37615 50.0001 4.81559C50.0001 5.28916 49.6129 5.67288 49.1353 5.67288C48.6576 5.67288 48.2704 5.28916 48.2704 4.81559C48.2704 4.33837 47.6491 3.91978 46.9408 3.91978H46.8624C46.154 3.91978 45.5327 4.33837 45.5327 4.81559V4.82805C45.5327 5.30528 46.1541 5.72387 46.8624 5.72387C48.5493 5.72387 49.9217 6.89481 49.9217 8.33426C49.9217 9.77382 48.5493 10.9449 46.8624 10.9449Z" fill="#28514D"/>
<path d="M46.8995 3.65773C46.4219 3.65773 46.0347 3.274 46.0347 2.80044V0.971549C46.0347 0.497981 46.4219 0.114258 46.8995 0.114258C47.3771 0.114258 47.7643 0.497981 47.7643 0.971549V2.80044C47.7643 3.274 47.3771 3.65773 46.8995 3.65773Z" fill="#28514D"/>
<path d="M46.8995 13.1452C46.4219 13.1452 46.0347 12.7614 46.0347 12.2879V10.459C46.0347 9.98541 46.4219 9.60168 46.8995 9.60168C47.3771 9.60168 47.7643 9.98541 47.7643 10.459V12.2879C47.7643 12.7614 47.3771 13.1452 46.8995 13.1452Z" fill="#28514D"/>
<path d="M3.13775 10.8218H3.05933C1.37244 10.8218 0 9.65089 0 8.21144C0 7.73787 0.387217 7.35415 0.864838 7.35415C1.34246 7.35415 1.72968 7.73787 1.72968 8.21144C1.72968 8.68867 2.35098 9.10725 3.05933 9.10725H3.13775C3.84611 9.10725 4.46741 8.68867 4.46741 8.21144C4.46741 7.73399 3.84611 7.3154 3.13775 7.3154C1.45085 7.3154 0.078412 6.14446 0.078412 4.70501V4.69243C0.078412 3.2531 1.45085 2.08215 3.13775 2.08215H3.21616C4.90305 2.08215 6.27549 3.2531 6.27549 4.69243C6.27549 5.166 5.88828 5.54972 5.41066 5.54972C4.93303 5.54972 4.54582 5.166 4.54582 4.69243C4.54582 4.21532 3.92452 3.79674 3.21616 3.79674H3.13775C2.42939 3.79674 1.80809 4.21532 1.80809 4.69243V4.70501C1.80809 5.18223 2.4295 5.60082 3.13775 5.60082C4.82464 5.60082 6.19708 6.77176 6.19708 8.2111C6.19708 9.65089 4.82464 10.8218 3.13775 10.8218Z" fill="#28514D"/>
<path d="M3.08115 3.54347C2.60353 3.54347 2.21631 3.15975 2.21631 2.68618V0.857292C2.21631 0.383724 2.60353 0 3.08115 0C3.55877 0 3.94598 0.383724 3.94598 0.857292V2.68618C3.94598 3.15975 3.55877 3.54347 3.08115 3.54347Z" fill="#28514D"/>
<path d="M3.08115 13.0309C2.60353 13.0309 2.21631 12.6472 2.21631 12.1736V10.3447C2.21631 9.87115 2.60353 9.48743 3.08115 9.48743C3.55877 9.48743 3.94598 9.87115 3.94598 10.3447V12.1736C3.94598 12.6472 3.55877 13.0309 3.08115 13.0309Z" fill="#28514D"/>
</g>
<defs>
<clipPath id="clip0">
<rect width="50" height="50" fill="white"/>
</clipPath>
</defs>
</svg>
