<svg width="126" height="129" viewBox="0 0 126 129" fill="none" xmlns="http://www.w3.org/2000/svg">
<path d="M3.49979 67.8476C1.56691 65.8755 1.56691 62.6779 3.49978 60.7058L41.9974 21.4256C53.5946 9.59255 72.3975 9.59255 83.9948 21.4256L122.379 60.5897C124.311 62.5619 124.312 65.7594 122.379 67.7316L66.3821 124.866C64.4492 126.839 61.3154 126.839 59.3825 124.866L3.49979 67.8476Z" fill="#F5FBF4"/>
<path d="M52.1865 48.2321C52.1865 47.4623 53.0199 46.9812 53.6865 47.3661L82.1865 63.8206C82.8532 64.2055 82.8532 65.1678 82.1865 65.5527L53.6865 82.0071C53.0199 82.392 52.1865 81.9109 52.1865 81.1411L52.1865 48.2321Z" fill="#28514D"/>
</svg>
