<svg width="126" height="130" viewBox="0 0 126 130" fill="none" xmlns="http://www.w3.org/2000/svg">
<path d="M3.49979 68.7058C1.56691 66.7336 1.56691 63.5361 3.49978 61.5639L41.9974 22.2837C53.5946 10.4507 72.3975 10.4507 83.9948 22.2837L122.379 61.4479C124.311 63.42 124.312 66.6176 122.379 68.5897L66.3821 125.725C64.4492 127.697 61.3154 127.697 59.3825 125.725L3.49979 68.7058Z" fill="#F5FBF4"/>
<path d="M78 62.6068V53.0001C78 51.3432 76.6569 50.0001 75 50.0001H56C54.3431 50.0001 53 51.3432 53 53.0001V81.0001C53 82.6569 54.3431 84.0001 56 84.0001H71.6567" stroke="#28514D" stroke-width="3"/>
<path d="M53 56.0001H78" stroke="#28514D" stroke-width="9"/>
<rect x="58" y="63.0001" width="4" height="4" fill="#28514D"/>
<rect x="58" y="69.0001" width="4" height="4" fill="#28514D"/>
<rect x="58" y="75.0001" width="4" height="4" fill="#28514D"/>
<rect x="64" y="63.0001" width="3" height="4" fill="#28514D"/>
<rect x="64" y="69.0001" width="3" height="4" fill="#28514D"/>
<rect x="64" y="75.0001" width="9" height="4" fill="#28514D"/>
<rect x="69" y="63.0001" width="4" height="4" fill="#28514D"/>
<rect x="69" y="69.0001" width="4" height="4" fill="#28514D"/>
<path d="M81.7499 77.6251C78.9124 76.8876 77.9999 76.1251 77.9999 74.9376C77.9999 73.5751 79.2624 72.6251 81.3749 72.6251C83.5999 72.6251 84.4249 73.6876 84.4999 75.2501H87.2624C87.1749 73.1001 85.8624 71.1251 83.2499 70.4876V67.7501H79.4999V70.4501C77.0749 70.9751 75.1249 72.5501 75.1249 74.9626C75.1249 77.8501 77.5124 79.2876 80.9999 80.1251C84.1249 80.8751 84.7499 81.9751 84.7499 83.1376C84.7499 84.0001 84.1374 85.3751 81.3749 85.3751C78.7999 85.3751 77.7874 84.2251 77.6499 82.7501H74.8999C75.0499 85.4876 77.0999 87.0251 79.4999 87.5376V90.2501H83.2499V87.5626C85.6874 87.1001 87.6249 85.6876 87.6249 83.1251C87.6249 79.5751 84.5874 78.3626 81.7499 77.6251Z" fill="#28514D"/>
</svg>
