<svg width="126" height="130" viewBox="0 0 126 130" fill="none" xmlns="http://www.w3.org/2000/svg">
<path d="M3.49979 68.7058C1.56691 66.7336 1.56691 63.5361 3.49978 61.5639L41.9974 22.2837C53.5946 10.4507 72.3975 10.4507 83.9948 22.2837L122.379 61.4479C124.311 63.42 124.312 66.6176 122.379 68.5897L66.3821 125.725C64.4492 127.697 61.3154 127.697 59.3825 125.725L3.49979 68.7058Z" fill="#F5FBF4"/>
<path d="M41 50.0001C41 48.3432 42.3431 47.0001 44 47.0001H83C84.6569 47.0001 86 48.3432 86 50.0001V56.0001H41V50.0001Z" fill="#28514D"/>
<path d="M41 58.0001H86V78.0001C86 79.6569 84.6569 81.0001 83 81.0001H44C42.3431 81.0001 41 79.6569 41 78.0001V58.0001Z" fill="#28514D"/>
<circle cx="45.4135" cy="51.4136" r="1.47115" fill="white"/>
<circle cx="49.3369" cy="51.4136" r="1.47115" fill="white"/>
<circle cx="53.2597" cy="51.4136" r="1.47115" fill="white"/>
<path d="M38.736 66.1583L47.0932 70.2041L41.5036 75.0213L38.736 66.1583Z" fill="white"/>
<line x1="44.3963" y1="72.5487" x2="48.1046" y2="76.8517" stroke="white"/>
</svg>
