<svg width="126" height="130" viewBox="0 0 126 130" fill="none" xmlns="http://www.w3.org/2000/svg">
<path d="M3.49979 68.571C1.56691 66.5989 1.56691 63.4013 3.49978 61.4292L41.9974 22.149C53.5946 10.3159 72.3975 10.3159 83.9948 22.149L122.379 61.3131C124.311 63.2853 124.312 66.4828 122.379 68.455L66.3821 125.59C64.4492 127.562 61.3154 127.562 59.3825 125.59L3.49979 68.571Z" fill="#F5FBF4"/>
<path fill-rule="evenodd" clip-rule="evenodd" d="M80.7999 56.6544V87.919C80.7999 89.5758 79.4567 90.919 77.7999 90.919H53C51.3431 90.919 50 89.5758 50 87.919V49.2592C50 47.6023 51.3431 46.2592 53 46.2592H72.3302L72.5238 46.1014L72.6524 46.2592H72.7149V46.3359L80.9938 56.4964L80.7999 56.6544ZM80.1637 56.2691L72.7149 47.1275V55.2691C72.7149 55.8214 73.1626 56.2691 73.7149 56.2691H80.1637Z" fill="#28514D"/>
<path d="M65.2477 63.7177C65.2477 64.539 64.933 65.2377 64.3037 65.8137C63.6743 66.379 62.7517 66.6937 61.5357 66.7577V68.5977H60.7357V66.7737C59.957 66.731 59.221 66.5817 58.5277 66.3257C57.845 66.059 57.3063 65.723 56.9117 65.3177L57.3757 64.4057C57.749 64.7684 58.2343 65.0724 58.8317 65.3177C59.4397 65.563 60.0743 65.707 60.7357 65.7497V61.5417C59.9997 61.3604 59.3863 61.1684 58.8957 60.9657C58.405 60.7524 57.9943 60.4484 57.6637 60.0537C57.3437 59.6484 57.1837 59.115 57.1837 58.4537C57.1837 57.6324 57.4823 56.9444 58.0797 56.3897C58.677 55.8244 59.5623 55.4937 60.7357 55.3977V53.5577H61.5357V55.3817C62.1437 55.403 62.7303 55.5044 63.2957 55.6857C63.8717 55.8564 64.3677 56.0857 64.7837 56.3737L64.3837 57.3177C63.9463 57.0404 63.4823 56.8217 62.9917 56.6617C62.501 56.5017 62.0157 56.411 61.5357 56.3897V60.6297C62.325 60.8217 62.9703 61.019 63.4717 61.2217C63.973 61.4137 64.3943 61.7124 64.7357 62.1177C65.077 62.523 65.2477 63.0564 65.2477 63.7177ZM58.3517 58.4217C58.3517 58.9764 58.5543 59.3977 58.9597 59.6857C59.3757 59.9737 59.9677 60.219 60.7357 60.4217V56.4217C59.9463 56.4857 59.349 56.7044 58.9437 57.0777C58.549 57.4404 58.3517 57.8884 58.3517 58.4217ZM61.5357 65.7497C62.3783 65.6857 63.013 65.4777 63.4397 65.1257C63.8663 64.7737 64.0797 64.3257 64.0797 63.7817C64.0797 63.2057 63.861 62.7737 63.4237 62.4857C62.9863 62.1977 62.357 61.9524 61.5357 61.7497V65.7497Z" fill="white"/>
<line x1="30.3599" y1="73.8176" x2="39.3698" y2="73.8176" stroke="white" stroke-linecap="round"/>
<line x1="24.9697" y1="79.9776" x2="39.3697" y2="79.9776" stroke="white" stroke-linecap="round"/>
<line x1="81.5549" y1="55.2638" x2="50.755" y2="90.6837" stroke="white" stroke-width="2"/>
</svg>
