<svg width="39" height="47" viewBox="0 0 39 47" fill="none" xmlns="http://www.w3.org/2000/svg">
<line y1="45.5677" x2="18.9469" y2="45.5677" stroke="#223C3D"/>
<path d="M25.3819 8.8606L7.74561 39.3362V44.4154L12.2605 42.2991L29.6146 11.8235" stroke="#28514D"/>
<path opacity="0.7" d="M35.8291 12.0702C35.7031 12.2643 35.4477 12.432 34.9812 12.503C34.5154 12.5739 33.8982 12.5367 33.1598 12.3746C31.6869 12.0512 29.839 11.255 27.9809 10.0484C26.1228 8.84172 24.6438 7.47739 23.7493 6.26332C23.3009 5.65472 23.0159 5.10606 22.8912 4.65167C22.7663 4.19665 22.8157 3.89507 22.9417 3.70099C23.0677 3.50691 23.3232 3.33914 23.7896 3.26815C24.2555 3.19725 24.8726 3.23451 25.611 3.39661C27.0839 3.71997 28.9319 4.51616 30.79 5.72281C32.648 6.92946 34.127 8.29379 35.0215 9.50786C35.4699 10.1165 35.755 10.6651 35.8797 11.1195C36.0046 11.5745 35.9552 11.8761 35.8291 12.0702Z" stroke="#28514D"/>
<ellipse cx="29.9499" cy="7.03903" rx="8.18325" ry="3.07882" transform="rotate(33 29.9499 7.03903)" fill="#28514D"/>
<path d="M15.3647 13.7195C15.3647 17.6301 12.8645 20.4968 10.1147 20.4968C7.36498 20.4968 4.86475 17.6301 4.86475 13.7195C4.86475 9.80896 7.36498 6.94226 10.1147 6.94226C12.8645 6.94226 15.3647 9.80896 15.3647 13.7195Z" stroke="#28514D" stroke-width="1.5"/>
<path d="M34.6567 33.7543C34.6567 37.6649 32.1565 40.5316 29.4067 40.5316C26.657 40.5316 24.1567 37.6649 24.1567 33.7543C24.1567 29.8437 26.657 26.9771 29.4067 26.9771C32.1565 26.9771 34.6567 29.8437 34.6567 33.7543Z" stroke="#28514D" stroke-width="1.5"/>
</svg>
