<svg width="249" height="115" viewBox="0 0 249 115" fill="none" xmlns="http://www.w3.org/2000/svg">
<g filter="url(#filter0_d)">
<path d="M189.524 57L115.714 7L5 107" stroke="#5F4F37" stroke-width="10"/>
<path d="M189.524 57L115.714 7L5 107" stroke="url(#paint0_linear)" stroke-opacity="0.1" stroke-width="10"/>
<path d="M243.095 57L169.286 7L146.072 30.2143" stroke="#5F4F37" stroke-width="10"/>
<path d="M243.095 57L169.286 7L146.072 30.2143" stroke="url(#paint1_linear)" stroke-opacity="0.1" stroke-width="10"/>
<line x1="40" y1="9.5" x2="70" y2="9.5" stroke="#5F4F37" stroke-width="7"/>
<line x1="40" y1="9.5" x2="70" y2="9.5" stroke="url(#paint2_linear)" stroke-opacity="0.1" stroke-width="7"/>
<path d="M67 14.5H43.5V57.5L67 37V14.5Z" fill="#5F4F37"/>
<path d="M67 14.5H43.5V57.5L67 37V14.5Z" fill="url(#paint3_linear)" fill-opacity="0.1"/>
<path d="M67 14.5H43.5V57.5L67 37V14.5Z" stroke="#5F4F37"/>
<path d="M67 14.5H43.5V57.5L67 37V14.5Z" stroke="url(#paint4_linear)" stroke-opacity="0.1"/>
</g>
<defs>
<filter id="filter0_d" x="0.648682" y="0.543945" width="248.251" height="114.166" filterUnits="userSpaceOnUse" color-interpolation-filters="sRGB">
<feFlood flood-opacity="0" result="BackgroundImageFix"/>
<feColorMatrix in="SourceAlpha" type="matrix" values="0 0 0 0 0 0 0 0 0 0 0 0 0 0 0 0 0 0 127 0" result="hardAlpha"/>
<feOffset dx="1" dy="2"/>
<feGaussianBlur stdDeviation="1"/>
<feColorMatrix type="matrix" values="0 0 0 0 0 0 0 0 0 0 0 0 0 0 0 0 0 0 0.4 0"/>
<feBlend mode="normal" in2="BackgroundImageFix" result="effect1_dropShadow"/>
<feBlend mode="normal" in="SourceGraphic" in2="effect1_dropShadow" result="shape"/>
</filter>
<linearGradient id="paint0_linear" x1="97.2619" y1="7" x2="97.2619" y2="107" gradientUnits="userSpaceOnUse">
<stop stop-color="white"/>
<stop offset="1" stop-color="white" stop-opacity="0"/>
</linearGradient>
<linearGradient id="paint1_linear" x1="194.583" y1="7" x2="194.583" y2="57" gradientUnits="userSpaceOnUse">
<stop stop-color="white"/>
<stop offset="1" stop-color="white" stop-opacity="0"/>
</linearGradient>
<linearGradient id="paint2_linear" x1="55" y1="13" x2="55" y2="14" gradientUnits="userSpaceOnUse">
<stop stop-color="white"/>
<stop offset="1" stop-color="white" stop-opacity="0"/>
</linearGradient>
<linearGradient id="paint3_linear" x1="55.25" y1="14.5" x2="55.25" y2="57.5" gradientUnits="userSpaceOnUse">
<stop stop-color="white"/>
<stop offset="1" stop-color="white" stop-opacity="0"/>
</linearGradient>
<linearGradient id="paint4_linear" x1="55.25" y1="14.5" x2="55.25" y2="57.5" gradientUnits="userSpaceOnUse">
<stop stop-color="white"/>
<stop offset="1" stop-color="white" stop-opacity="0"/>
</linearGradient>
</defs>
</svg>
