<svg width="93" height="93" viewBox="0 0 93 93" fill="none" xmlns="http://www.w3.org/2000/svg">
<g clip-path="url(#clip0)">
<path d="M15.7812 28.2072L31.2792 43.7051C34.797 40.8909 39.0696 39.062 43.7753 38.5325V16.5983C33.0585 17.2263 23.3281 21.4937 15.7812 28.2072Z" fill="#6100FF"/>
<path d="M11.9285 32.06C4.64709 40.2451 0 50.9873 0 62.7787C0 64.2847 1.21863 65.5033 2.72461 65.5033H19.2539C20.7599 65.5033 21.9785 64.2847 21.9785 62.7787C21.9785 57.0002 24.0705 51.7533 27.4265 47.5579L11.9285 32.06Z" fill="#6100FF"/>
<path d="M68.9195 45.5772C68.0014 44.7763 66.6711 44.6726 65.6574 45.3298L42.0114 60.4134C38.853 62.4302 36.9692 65.8652 36.9692 69.6062C36.9692 75.6169 41.857 80.5047 47.8677 80.5047C52.093 80.5047 55.9723 78.0302 57.7496 74.2014L69.5926 48.7753C70.1036 47.6791 69.8295 46.3753 68.9195 45.5772Z" fill="#ADE898"/>
<path d="M67.5518 40.1066C66.6338 39.3057 65.3034 39.202 64.2897 39.8592L40.6437 54.9428C37.4854 56.9596 35.6016 60.3946 35.6016 64.1357C35.6016 70.1463 40.4893 75.0341 46.5 75.0341C50.7253 75.0341 54.6046 72.5596 56.382 68.7308L68.2249 43.3047C68.7359 42.2085 68.4618 40.9047 67.5518 40.1066Z" fill="#6100FF"/>
<path d="M81.0718 32.06L73.0637 40.0682C74.0721 42.2208 74.2047 44.7407 73.1637 46.9738L69.5811 54.6654C70.5034 57.1991 71.0218 59.9224 71.0218 62.7787C71.0218 64.2847 72.2405 65.5033 73.7464 65.5033H90.2757C91.7817 65.5033 93.0003 64.2847 93.0003 62.7787C93.0003 50.9873 88.3533 40.2451 81.0718 32.06Z" fill="#ADE898"/>
<path d="M49.2246 16.5983V38.5325C51.5185 38.7906 53.7042 39.3681 55.7551 40.2071L61.3604 36.6313C63.606 35.176 66.3502 34.8637 69.2082 36.2177L77.2187 28.2072C69.6719 21.4937 59.9414 17.2263 49.2246 16.5983Z" fill="#ADE898"/>
</g>
<defs>
<clipPath id="clip0">
<rect width="93" height="93" fill="white"/>
</clipPath>
</defs>
</svg>
