<svg width="73" height="87" viewBox="0 0 73 87" fill="none" xmlns="http://www.w3.org/2000/svg">
<rect x="6.63818" y="53.6" width="12.7619" height="33.181" rx="5" fill="#6100FF"/>
<rect x="25.7808" y="44.6667" width="12.7619" height="42.1143" rx="5" fill="#6100FF"/>
<rect x="44.9238" y="36.3715" width="12.7619" height="50.4095" rx="5" fill="#ADE898"/>
<path d="M5.71428 48.6018C4.90102 48.7596 4.36966 49.5468 4.52746 50.3601C4.68526 51.1733 5.47246 51.7047 6.28572 51.5469L5.71428 48.6018ZM44.0819 24.3112C44.0027 23.4865 43.27 22.8823 42.4454 22.9615L29.0072 24.2522C28.1826 24.3314 27.5783 25.0641 27.6575 25.8888C27.7367 26.7134 28.4694 27.3177 29.2941 27.2385L41.2391 26.0911L42.3864 38.0362C42.4656 38.8608 43.1983 39.4651 44.023 39.3859C44.8476 39.3067 45.4519 38.574 45.3727 37.7493L44.0819 24.3112ZM6.28572 51.5469C13.816 50.0858 19.7071 47.813 25.4878 43.7192C31.2286 39.6537 36.7953 33.8369 43.746 25.409L41.4316 23.5002C34.5213 31.879 29.1594 37.4429 23.754 41.271C18.3885 45.0707 12.9157 47.2045 5.71428 48.6018L6.28572 51.5469Z" fill="url(#paint0_linear)"/>
<circle cx="58.9619" cy="14.0381" r="14.0381" fill="#6100FF"/>
<path d="M65.9494 17.7181C65.9494 19.0301 65.4694 20.1581 64.5094 21.1021C63.5494 22.0301 62.1654 22.6061 60.3574 22.8301V25.5181H57.9574V22.9021C56.7734 22.8381 55.6454 22.6301 54.5734 22.2781C53.5014 21.9261 52.6374 21.4941 51.9814 20.9821L53.3014 18.0541C53.9094 18.5021 54.6214 18.8781 55.4374 19.1821C56.2534 19.4861 57.0934 19.6781 57.9574 19.7581V15.7501C56.8214 15.4781 55.8614 15.1741 55.0774 14.8381C54.2934 14.5021 53.6374 14.0141 53.1094 13.3741C52.5814 12.7181 52.3174 11.8541 52.3174 10.7821C52.3174 9.45412 52.7974 8.31812 53.7574 7.37412C54.7334 6.41412 56.1334 5.83012 57.9574 5.62212V2.95812H60.3574V5.57412C62.3254 5.73412 63.9494 6.22212 65.2294 7.03812L64.0294 9.99012C62.8294 9.30212 61.6054 8.88612 60.3574 8.74212V12.8221C61.4774 13.0781 62.4214 13.3741 63.1894 13.7101C63.9734 14.0301 64.6294 14.5181 65.1574 15.1741C65.6854 15.8141 65.9494 16.6621 65.9494 17.7181ZM56.1814 10.5901C56.1814 10.9901 56.3334 11.3181 56.6374 11.5741C56.9414 11.8301 57.3814 12.0461 57.9574 12.2221V8.81412C57.3494 8.95812 56.9014 9.19012 56.6134 9.51012C56.3254 9.81412 56.1814 10.1741 56.1814 10.5901ZM60.3574 19.6621C60.9334 19.5341 61.3654 19.3261 61.6534 19.0381C61.9414 18.7501 62.0854 18.4061 62.0854 18.0061C62.0854 17.6061 61.9334 17.2781 61.6294 17.0221C61.3414 16.7661 60.9174 16.5421 60.3574 16.3501V19.6621Z" fill="#ADE898"/>
<defs>
<linearGradient id="paint0_linear" x1="6" y1="53.6" x2="44.9238" y2="27.4381" gradientUnits="userSpaceOnUse">
<stop stop-color="#6100FF"/>
<stop offset="1" stop-color="#ADE898"/>
</linearGradient>
</defs>
</svg>
