<svg width="76" height="76" viewBox="0 0 76 76" fill="none" xmlns="http://www.w3.org/2000/svg">
<g clip-path="url(#clip0)">
<path d="M43.1066 54.6661C37.9396 53.3272 31.3625 49.3825 25.6477 42.4635C34.9929 49.517 40.3339 53.0248 52.2491 53.842C46.601 52.6355 39.4117 49.4588 36.0767 41.3536C33.1658 34.2738 31.8483 28.4423 30.4667 23.9758C30.0307 25.991 28.8589 27.9384 26.3528 29.4142C26.3528 29.4142 27.4725 28.4423 28.3132 26.234C29.4829 23.1622 28.935 19.701 26.877 17.1402C24.8162 14.5782 21.5527 13.2966 18.301 13.7826C18.2989 13.7838 18.2939 13.7838 18.2891 13.7851C7.15519 15.4595 2.13847 36.2985 18.461 51.9252C28.4729 61.2003 41.1533 60.65 49.8814 58.5072C60.2104 59.6637 70.4631 56.0096 77.5 46.3999C75.0607 48.4725 62.9926 59.8187 43.1066 54.6661Z" fill="#ADE898"/>
<path d="M38.3899 57.5917C32.7397 56.1276 25.5475 51.814 19.2981 44.2478C29.5174 51.961 35.3579 55.7969 48.3875 56.6905C42.2112 55.3712 34.3495 51.8973 30.7025 43.0342C27.5194 35.2922 26.0787 28.9153 24.5679 24.031C24.0912 26.2347 22.8098 28.3643 20.0692 29.9781C20.0692 29.9781 21.2937 28.9153 22.213 26.5005C23.492 23.1413 22.8929 19.3565 20.6424 16.5562C18.389 13.7546 14.8202 12.3531 11.2644 12.8846C11.2621 12.8858 11.2566 12.8858 11.2513 12.8873C-0.923824 14.7183 -6.40972 37.5063 11.4394 54.5945C22.3876 64.737 36.254 64.1352 45.7983 61.792C57.0933 63.0567 68.305 59.0608 76 48.5524C73.3325 50.8188 60.1358 63.2262 38.3899 57.5917Z" fill="#6100FF"/>
</g>
<defs>
<clipPath id="clip0">
<rect width="76" height="76" fill="white"/>
</clipPath>
</defs>
</svg>
