<svg width="56" height="56" viewBox="0 0 56 56" fill="none" xmlns="http://www.w3.org/2000/svg">
<g clip-path="url(#clip0)">
<path d="M29.4219 13.0156H16.2969V8.64062H29.4219V13.0156ZM16.2969 17.3906H11.9219V21.7656H16.2969V17.3906ZM20.6719 21.7656H25.0469V17.3906H20.6719V21.7656ZM16.2969 26.1406H11.9219V30.5156H16.2969V26.1406ZM20.6719 30.5156H25.0469V26.1406H20.6719V30.5156ZM16.2969 34.8906H11.9219V39.2656H16.2969V34.8906ZM20.6719 39.2656H25.0469V34.8906H20.6719V39.2656ZM11.9219 48.0156H16.2969V43.6406H11.9219V48.0156ZM20.6719 48.0156H25.0469V43.6406H20.6719V48.0156ZM33.7969 17.3906H29.4219V21.7656H33.7969V17.3906ZM33.7969 26.1406H29.4219V30.5156H33.7969V26.1406ZM7.54688 13.0156H11.9219V4.375H33.7969V13.0156H38.1719V27.6454C38.8824 27.5193 39.6134 27.4531 40.3594 27.4531C41.1053 27.4531 41.8364 27.5193 42.5469 27.6454V8.64062H38.1719V0H7.54688V8.64062H3.17188V56H23.625C23.625 54.4867 23.8284 53.0204 24.2065 51.625H7.54688V13.0156Z" fill="#6100FF"/>
<rect x="11.5" y="17" width="14" height="31" fill="#6100FF"/>
<rect x="29" y="17" width="5" height="14" fill="#6100FF"/>
<circle cx="40.5781" cy="38.2656" r="4.71875" stroke="#6100FF" stroke-width="5"/>
<path d="M51.5156 56.4219C51.5156 50.3813 46.6187 45.4844 40.5781 45.4844C34.5375 45.4844 29.6406 50.3813 29.6406 56.4219" stroke="#6100FF" stroke-width="5"/>
<circle cx="43.5781" cy="39.2656" r="4.71875" stroke="#ADE898" stroke-width="5"/>
<path d="M54.5156 57.4219C54.5156 51.3813 49.6187 46.4844 43.5781 46.4844C37.5375 46.4844 32.6406 51.3813 32.6406 57.4219" stroke="#ADE898" stroke-width="5"/>
</g>
<defs>
<clipPath id="clip0">
<rect width="56" height="56" fill="white"/>
</clipPath>
</defs>
</svg>
