<svg width="71" height="65" viewBox="0 0 71 65" fill="none" xmlns="http://www.w3.org/2000/svg">
<g clip-path="url(#clip0)">
<path d="M29.4313 2.47764L1.43127 9.47754C1.14741 9.54863 0.895446 9.71252 0.715395 9.9432C0.535343 10.1739 0.437532 10.4581 0.4375 10.7507V56.25C0.437516 56.5981 0.575802 56.932 0.82194 57.1781C1.06808 57.4242 1.40191 57.5625 1.75 57.5625H22.75C23.0981 57.5625 23.4319 57.4243 23.6781 57.1781C23.9242 56.932 24.0625 56.5981 24.0625 56.25C24.0625 55.9019 23.9242 55.5681 23.6781 55.322C23.4319 55.0758 23.0981 54.9375 22.75 54.9375H21.4375V46.3334C21.4375 45.9853 21.2992 45.6515 21.0531 45.4053C20.8069 45.1592 20.4731 45.0209 20.125 45.0209H11.375C11.0269 45.0209 10.6931 45.1592 10.4469 45.4053C10.2008 45.6515 10.0625 45.9853 10.0625 46.3334V54.9375H3.0625V11.7757L28.4375 5.43201V24.7505C28.4375 25.0986 28.5758 25.4324 28.8219 25.6786C29.0681 25.9247 29.4019 26.063 29.75 26.063C30.0981 26.063 30.4319 25.9247 30.6781 25.6786C30.9242 25.4324 31.0625 25.0986 31.0625 24.7505V3.75082C31.0624 3.55137 31.0168 3.35458 30.9293 3.17536C30.8417 2.99615 30.7145 2.83923 30.5573 2.71652C30.4001 2.5938 30.217 2.50852 30.0219 2.46713C29.8267 2.42574 29.6248 2.42933 29.4313 2.47764ZM12.6875 47.6459H18.8125V54.9375H12.6875V47.6459Z" fill="#ADE898"/>
<path d="M30.4313 2.47764L2.43127 9.47754C2.14741 9.54863 1.89545 9.71252 1.71539 9.9432C1.53534 10.1739 1.43753 10.4581 1.4375 10.7507V56.25C1.43752 56.5981 1.5758 56.932 1.82194 57.1781C2.06808 57.4242 2.40191 57.5625 2.75 57.5625H23.75C24.0981 57.5625 24.4319 57.4243 24.6781 57.1781C24.9242 56.932 25.0625 56.5981 25.0625 56.25C25.0625 55.9019 24.9242 55.5681 24.6781 55.322C24.4319 55.0758 24.0981 54.9375 23.75 54.9375H22.4375V46.3334C22.4375 45.9853 22.2992 45.6515 22.0531 45.4053C21.8069 45.1592 21.4731 45.0209 21.125 45.0209H12.375C12.0269 45.0209 11.6931 45.1592 11.4469 45.4053C11.2008 45.6515 11.0625 45.9853 11.0625 46.3334V54.9375H4.0625V11.7757L29.4375 5.43201V24.7505C29.4375 25.0986 29.5758 25.4324 29.8219 25.6786C30.0681 25.9247 30.4019 26.063 30.75 26.063C31.0981 26.063 31.4319 25.9247 31.6781 25.6786C31.9242 25.4324 32.0625 25.0986 32.0625 24.7505V3.75082C32.0624 3.55137 32.0168 3.35458 31.9293 3.17536C31.8417 2.99615 31.7145 2.83923 31.5573 2.71652C31.4001 2.5938 31.217 2.50852 31.0219 2.46713C30.8267 2.42574 30.6248 2.42933 30.4313 2.47764ZM13.6875 47.6459H19.8125V54.9375H13.6875V47.6459Z" fill="#ADE898"/>
<path d="M15.75 35.7853C15.4019 35.7854 15.0681 35.9236 14.8219 36.1698C14.5758 36.4159 14.4375 36.7497 14.4375 37.0978V41.0836C14.4375 41.4317 14.5758 41.7656 14.8219 42.0117C15.0681 42.2579 15.4019 42.3961 15.75 42.3961C16.0981 42.3961 16.4319 42.2579 16.6781 42.0117C16.9242 41.7656 17.0625 41.4317 17.0625 41.0836V37.0978C17.0625 36.7497 16.9242 36.4159 16.6781 36.1698C16.4319 35.9236 16.0981 35.7854 15.75 35.7853Z" fill="#ADE898"/>
<path d="M8.75 35.7853C8.40191 35.7854 8.06808 35.9236 7.82194 36.1698C7.57581 36.4159 7.43752 36.7497 7.4375 37.0978V41.0836C7.4375 41.4317 7.57578 41.7656 7.82192 42.0117C8.06806 42.2579 8.4019 42.3961 8.75 42.3961C9.0981 42.3961 9.43194 42.2579 9.67808 42.0117C9.92422 41.7656 10.0625 41.4317 10.0625 41.0836V37.0978C10.0625 36.7497 9.9242 36.4159 9.67806 36.1698C9.43192 35.9236 9.09809 35.7854 8.75 35.7853Z" fill="#ADE898"/>
<path d="M17.0625 27.8616C17.0625 27.5135 16.9242 27.1796 16.6781 26.9335C16.4319 26.6874 16.0981 26.5491 15.75 26.5491C15.4019 26.5491 15.0681 26.6874 14.8219 26.9335C14.5758 27.1796 14.4375 27.5135 14.4375 27.8616V31.8478C14.4375 32.1959 14.5758 32.5297 14.8219 32.7759C15.0681 33.022 15.4019 33.1603 15.75 33.1603C16.0981 33.1603 16.4319 33.022 16.6781 32.7759C16.9242 32.5297 17.0625 32.1959 17.0625 31.8478V27.8616Z" fill="#ADE898"/>
<path d="M10.0625 27.8616C10.0625 27.5135 9.92422 27.1796 9.67808 26.9335C9.43194 26.6874 9.0981 26.5491 8.75 26.5491C8.4019 26.5491 8.06806 26.6874 7.82192 26.9335C7.57578 27.1796 7.4375 27.5135 7.4375 27.8616V31.8478C7.4375 32.1959 7.57578 32.5297 7.82192 32.7759C8.06806 33.022 8.4019 33.1603 8.75 33.1603C9.0981 33.1603 9.43194 33.022 9.67808 32.7759C9.92422 32.5297 10.0625 32.1959 10.0625 31.8478V27.8616Z" fill="#ADE898"/>
<path d="M22.75 17.3129C22.4019 17.3129 22.0681 17.4512 21.8219 17.6974C21.5758 17.9435 21.4375 18.2773 21.4375 18.6254V22.6116C21.4375 22.9597 21.5758 23.2936 21.8219 23.5397C22.0681 23.7858 22.4019 23.9241 22.75 23.9241C23.0981 23.9241 23.4319 23.7858 23.6781 23.5397C23.9242 23.2936 24.0625 22.9597 24.0625 22.6116V18.6254C24.0625 18.2773 23.9242 17.9435 23.6781 17.6974C23.4319 17.4512 23.0981 17.3129 22.75 17.3129Z" fill="#ADE898"/>
<path d="M17.0625 18.6254C17.0625 18.2773 16.9242 17.9435 16.6781 17.6974C16.4319 17.4512 16.0981 17.3129 15.75 17.3129C15.4019 17.3129 15.0681 17.4512 14.8219 17.6974C14.5758 17.9435 14.4375 18.2773 14.4375 18.6254V22.6116C14.4375 22.9597 14.5758 23.2936 14.8219 23.5397C15.0681 23.7858 15.4019 23.9241 15.75 23.9241C16.0981 23.9241 16.4319 23.7858 16.6781 23.5397C16.9242 23.2936 17.0625 22.9597 17.0625 22.6116V18.6254Z" fill="#ADE898"/>
<path d="M10.0625 18.6254C10.0625 18.2773 9.92422 17.9435 9.67808 17.6974C9.43194 17.4512 9.0981 17.3129 8.75 17.3129C8.4019 17.3129 8.06806 17.4512 7.82192 17.6974C7.57578 17.9435 7.4375 18.2773 7.4375 18.6254V22.6116C7.4375 22.9597 7.57578 23.2936 7.82192 23.5397C8.06806 23.7858 8.4019 23.9241 8.75 23.9241C9.0981 23.9241 9.43194 23.7858 9.67808 23.5397C9.92422 23.2936 10.0625 22.9597 10.0625 22.6116V18.6254Z" fill="#ADE898"/>
<path d="M30.5 25V4.7972C30.5 4.14153 29.8796 3.66327 29.2455 3.83013L2.74551 10.8038C2.30619 10.9194 2 11.3166 2 11.7709V56H23.5" stroke="#ADE898" stroke-width="5" stroke-linecap="round"/>
</g>
<g clip-path="url(#clip1)">
<path d="M66.5195 55.897V49.9053L60.5579 46.5178L55.3493 49.4773C55.1086 49.6142 54.8561 49.7271 54.5967 49.8191V55.897H56.5433V51.6448C56.5433 50.7827 57.2426 50.0834 58.1047 50.0834H63.0115C63.8736 50.0834 64.5729 50.7827 64.5729 51.6448V55.897H66.5195Z" fill="#6100FF"/>
<path d="M59.6665 53.2065H61.4503V55.897H59.6665V53.2065Z" fill="#6100FF"/>
<path d="M70.2095 44.8008L61.3292 39.7727C60.8509 39.5011 60.2649 39.5011 59.7866 39.7727L54.5967 42.7218V46.3134L60.5583 42.9263L68.6668 47.5161C68.9106 47.6542 69.1753 47.7202 69.437 47.7198C69.9802 47.7198 70.5082 47.436 70.7958 46.9298C71.2219 46.1799 70.9595 45.2269 70.2095 44.8008Z" fill="#6100FF"/>
<path d="M34.8354 46.8553H42.0086V55.8969H34.8354V46.8553Z" fill="#6100FF"/>
<path d="M51.4738 55.897V38.5443L38.4222 31.1285L25.3706 38.5443V55.897H31.7129V45.294C31.7129 44.4315 32.4122 43.7323 33.2743 43.7323H43.5701C44.4326 43.7323 45.1315 44.4315 45.1315 45.294V55.897H51.4738Z" fill="#6100FF"/>
<path d="M23.3331 36.0827L38.4222 27.537L53.4303 35.9785C53.6737 36.117 53.9388 36.1826 54.2001 36.1826C54.7437 36.1826 55.2717 35.8984 55.5593 35.3922C55.9854 34.6426 55.723 33.6893 54.973 33.2632L39.1935 24.3834C38.7152 24.1118 38.1288 24.1118 37.6509 24.3834L21.7905 33.3674C21.0405 33.7935 20.7781 34.7468 21.2042 35.4964C21.6303 36.2463 22.5836 36.5088 23.3331 36.0827Z" fill="#6100FF"/>
</g>
<defs>
<clipPath id="clip0">
<rect width="56" height="58" fill="white"/>
</clipPath>
<clipPath id="clip1">
<rect width="50" height="50" fill="white" transform="translate(21 15)"/>
</clipPath>
</defs>
</svg>
