<svg width="44" height="44" viewBox="0 0 44 44" fill="none" xmlns="http://www.w3.org/2000/svg">
<path d="M18.5625 42.625C20.9818 42.625 22.9847 40.8283 23.3201 38.5H30.6528L29.7639 39.3889L30.7361 40.3611L32.7986 38.2986C32.9329 38.1643 33 37.9884 33 37.8125C33 37.6366 32.9329 37.4607 32.7986 37.3264L30.7361 35.2639L29.7639 36.2361L30.6528 37.125H23.3201C22.9847 34.7967 20.9818 33 18.5625 33C15.9092 33 13.75 35.1588 13.75 37.8125C13.75 40.4662 15.9092 42.625 18.5625 42.625ZM18.5625 34.375C20.4578 34.375 22 35.9172 22 37.8125C22 39.7078 20.4578 41.25 18.5625 41.25C16.6672 41.25 15.125 39.7078 15.125 37.8125C15.125 35.9172 16.6672 34.375 18.5625 34.375Z" fill="#53269B"/>
<path d="M37.8125 42.625C40.4658 42.625 42.625 40.4662 42.625 37.8125C42.625 35.1588 40.4658 33 37.8125 33C35.1592 33 33 35.1588 33 37.8125C33 40.4662 35.1592 42.625 37.8125 42.625ZM37.8125 34.375C39.7078 34.375 41.25 35.9172 41.25 37.8125C41.25 39.7078 39.7078 41.25 37.8125 41.25C35.9172 41.25 34.375 39.7078 34.375 37.8125C34.375 35.9172 35.9172 34.375 37.8125 34.375Z" fill="#53269B"/>
<path d="M15.8125 17.1875C13.3932 17.1875 11.3903 18.9842 11.0549 21.3125H9.96875C5.2301 21.3125 1.375 25.1676 1.375 29.9062C1.375 34.6449 5.2301 38.5 9.96875 38.5H11.4028L10.5139 39.3889L11.4861 40.3611L13.5486 38.2986C13.6829 38.1643 13.75 37.9884 13.75 37.8125C13.75 37.6366 13.6829 37.4607 13.5486 37.3264L11.4861 35.2639L10.5139 36.2361L11.4028 37.125H9.96875C5.9881 37.125 2.75 33.8866 2.75 29.9062C2.75 25.9259 5.9881 22.6875 9.96875 22.6875H11.0549C11.3903 25.0158 13.3932 26.8125 15.8125 26.8125C18.4658 26.8125 20.625 24.6537 20.625 22C20.625 19.3463 18.4658 17.1875 15.8125 17.1875ZM15.8125 25.4375C13.9172 25.4375 12.375 23.8953 12.375 22C12.375 20.1047 13.9172 18.5625 15.8125 18.5625C17.7078 18.5625 19.25 20.1047 19.25 22C19.25 23.8953 17.7078 25.4375 15.8125 25.4375Z" fill="#53269B"/>
<path d="M18.3611 3.63892L17.3889 4.61108L18.2778 5.5H10.9451C10.6097 3.17171 8.60684 1.375 6.1875 1.375C3.53418 1.375 1.375 3.53385 1.375 6.1875C1.375 8.84115 3.53418 11 6.1875 11C8.60684 11 10.6097 9.20329 10.9451 6.875H18.2778L17.3889 7.76392L18.3611 8.73608L20.4236 6.67358C20.5579 6.53931 20.625 6.3634 20.625 6.1875C20.625 6.0116 20.5579 5.83569 20.4236 5.70142L18.3611 3.63892ZM6.1875 9.625C4.29217 9.625 2.75 8.08283 2.75 6.1875C2.75 4.29217 4.29217 2.75 6.1875 2.75C8.08283 2.75 9.625 4.29217 9.625 6.1875C9.625 8.08283 8.08283 9.625 6.1875 9.625Z" fill="#53269B"/>
<path d="M42.625 14.0938C42.625 9.3551 38.7699 5.5 34.0312 5.5H30.1951C29.8597 3.17171 27.8568 1.375 25.4375 1.375C22.7842 1.375 20.625 3.53385 20.625 6.1875C20.625 8.84115 22.7842 11 25.4375 11C27.8568 11 29.8597 9.20329 30.1951 6.875H34.0312C38.0119 6.875 41.25 10.1134 41.25 14.0938C41.25 18.0741 38.0119 21.3125 34.0312 21.3125H22.9722L23.8611 20.4236L22.8889 19.4514L20.8264 21.5139C20.6921 21.6482 20.625 21.8241 20.625 22C20.625 22.1759 20.6921 22.3518 20.8264 22.4861L22.8889 24.5486L23.8611 23.5764L22.9722 22.6875H34.0312C38.7699 22.6875 42.625 18.8324 42.625 14.0938ZM25.4375 9.625C23.5422 9.625 22 8.08283 22 6.1875C22 4.29217 23.5422 2.75 25.4375 2.75C27.3328 2.75 28.875 4.29217 28.875 6.1875C28.875 8.08283 27.3328 9.625 25.4375 9.625Z" fill="#53269B"/>
</svg>
