<svg width="50" height="43" viewBox="0 0 50 43" fill="none" xmlns="http://www.w3.org/2000/svg">
<path d="M44.681 42.3077C44.2357 42.3077 43.8275 42.0194 43.6782 41.5965C43.5313 41.1816 43.6553 40.7017 43.9911 40.4172C44.3423 40.1196 44.852 40.0823 45.2427 40.3246C45.6051 40.5496 45.7999 40.9876 45.7312 41.4104C45.648 41.9217 45.1944 42.3077 44.681 42.3077Z" fill="#53269B"/>
<path d="M24.9999 36.4167C24.4123 36.4167 23.936 35.9878 23.936 35.4586V28.2706C23.936 27.7414 24.4123 27.3125 24.9999 27.3125C25.5875 27.3125 26.0637 27.7414 26.0637 28.2706V35.4586C26.0637 35.9878 25.5875 36.4167 24.9999 36.4167Z" fill="#53269B"/>
<path d="M49.0234 23.9823H34.9598V21.341C34.9598 20.794 34.5226 20.3506 33.9832 20.3506H16.0168C15.4774 20.3506 15.0402 20.794 15.0402 21.341V26.6197H0.976562C0.437164 26.6197 0 27.0631 0 27.6102V41.3173C0 41.8644 0.437164 42.3077 0.976562 42.3077H40.3011C40.8405 42.3077 41.2777 41.8644 41.2777 41.3173C41.2777 40.7702 40.8405 40.3269 40.3011 40.3269H34.9598V25.9632H48.0469V41.3173C48.0469 41.8644 48.484 42.3077 49.0234 42.3077C49.5628 42.3077 50 41.8644 50 41.3173V24.9728C50 24.4257 49.5628 23.9823 49.0234 23.9823ZM1.95312 28.6006H15.0402V40.3269H1.95312V28.6006ZM16.9933 22.3315H33.0067V40.3265H16.9933V22.3315Z" fill="#53269B"/>
<path d="M10.7803 21.4216C10.5664 21.4216 10.3511 21.38 10.1454 21.2955L8.51074 20.625L6.87569 21.2955C6.34131 21.5149 5.74229 21.4447 5.27413 21.1081C4.80558 20.7711 4.55319 20.229 4.59876 19.6579L4.7382 17.9112L3.58844 16.579C3.2122 16.1433 3.09457 15.558 3.27334 15.0131C3.45251 14.4679 3.89496 14.0627 4.45816 13.9293L6.1789 13.5205L7.10354 12.0264C7.40578 11.5378 7.93197 11.2463 8.51074 11.2463C9.08952 11.2463 9.61571 11.5378 9.91795 12.0264L10.8422 13.5205L12.5633 13.9293C13.1261 14.0627 13.569 14.4679 13.7478 15.0131C13.9265 15.558 13.8089 16.1433 13.4331 16.579L12.2837 17.9112L12.4227 19.6579C12.4683 20.229 12.2159 20.7711 11.7474 21.1081C11.4591 21.3152 11.1215 21.4216 10.7803 21.4216ZM5.46926 15.7192L6.52243 16.9399C6.69419 17.1389 6.7791 17.3976 6.75845 17.6587L6.6307 19.2588L8.12866 18.6442C8.37326 18.544 8.64784 18.544 8.89205 18.6442L10.39 19.2588L10.2626 17.6587C10.242 17.3976 10.3269 17.1389 10.4987 16.9399L11.5518 15.7192L9.97521 15.3447C9.71776 15.2838 9.49575 15.1238 9.35748 14.9006L8.51035 13.5317L7.66362 14.9006C7.52535 15.1238 7.30295 15.2838 7.04589 15.3447L5.46926 15.7192ZM12.0979 15.8491H12.0987H12.0979Z" fill="#53269B"/>
<path d="M39.2201 21.4216C38.8785 21.4216 38.5408 21.3152 38.2526 21.1081C37.7844 20.7711 37.5321 20.229 37.5776 19.6579L37.7167 17.9112L36.5673 16.5794C36.1911 16.1433 36.0734 15.558 36.2526 15.0131C36.4314 14.4679 36.8742 14.0627 37.437 13.9293L39.1578 13.5205L40.0824 12.0264C40.3846 11.5378 40.9108 11.2463 41.4892 11.2463C42.0684 11.246 42.5942 11.5378 42.8968 12.0264V12.0268L43.8214 13.5205L45.5422 13.9293C46.105 14.0631 46.5478 14.4683 46.7266 15.0131C46.9057 15.5584 46.7877 16.1437 46.4119 16.5794L45.2625 17.9112L45.4016 19.6579C45.4471 20.2294 45.1947 20.7715 44.7266 21.1081C44.258 21.4447 43.6594 21.5149 43.1246 21.2955L41.4896 20.625L39.8549 21.2955C39.6489 21.38 39.4335 21.4216 39.2201 21.4216ZM41.4892 18.569C41.6193 18.569 41.749 18.5941 41.8709 18.6442L43.3692 19.2588L43.2415 17.6587C43.2208 17.3976 43.3058 17.1389 43.4775 16.9399L44.5307 15.7192L42.9541 15.3447C42.6966 15.2838 42.4746 15.1238 42.3363 14.9006L41.4892 13.5313L40.6425 14.9006C40.5042 15.1238 40.2822 15.2838 40.0248 15.3447L38.4477 15.7192L39.5013 16.9395C39.673 17.1389 39.758 17.3972 39.7373 17.6587L39.6096 19.2588L41.1075 18.6442C41.2298 18.5941 41.3595 18.569 41.4892 18.569Z" fill="#53269B"/>
<path d="M21.0517 16.6018C20.6116 16.6018 20.1765 16.4616 19.8053 16.1886C19.2019 15.7445 18.8767 15.0298 18.9351 14.2768L19.2016 10.8565L17.0006 8.24801C16.516 7.67352 16.3644 6.90206 16.5949 6.18346C16.8254 5.46526 17.3959 4.93111 18.1214 4.75488L21.4164 3.95444L23.1861 1.02875C23.576 0.384557 24.2539 0 24.9999 0C25.7456 0 26.4239 0.384557 26.8134 1.02875L28.5831 3.95444L31.8781 4.75488C32.6036 4.93111 33.1745 5.46526 33.405 6.18346C33.6354 6.90206 33.4835 7.67352 32.9989 8.24801L30.7979 10.8565L31.0644 14.2768C31.1232 15.0298 30.7979 15.7445 30.1942 16.1882C29.5909 16.6323 28.819 16.7247 28.1298 16.4357L24.9999 15.1223L21.8697 16.4357C21.6044 16.5469 21.3271 16.6018 21.0517 16.6018ZM24.9999 2.00502C24.918 2.00502 24.8855 2.05828 24.8746 2.0759L22.8907 5.356C22.7534 5.58274 22.5329 5.74525 22.2773 5.80713L18.5835 6.70469C18.5634 6.70939 18.5035 6.72388 18.478 6.80298C18.4528 6.88209 18.4927 6.92986 18.5062 6.94553L20.9736 9.86965C21.1445 10.0721 21.2285 10.3349 21.208 10.6L20.909 14.4346C20.9075 14.455 20.9028 14.5176 20.9693 14.5666C21.0359 14.6155 21.0927 14.5912 21.1117 14.5834L24.6209 13.1106C24.8638 13.0088 25.1361 13.0088 25.3789 13.1106L28.8882 14.5834C28.9072 14.5912 28.964 14.6155 29.0305 14.5666C29.0971 14.5176 29.0924 14.455 29.0905 14.4346L28.7919 10.6C28.771 10.3349 28.8553 10.0721 29.0259 9.86965L31.4937 6.94553C31.5068 6.92986 31.5471 6.88209 31.5215 6.80298C31.4964 6.72388 31.4361 6.70939 31.4163 6.70469L27.7222 5.80713C27.467 5.74525 27.2461 5.58274 27.1092 5.356L25.1249 2.0759C25.1144 2.05828 25.0819 2.00502 24.9999 2.00502Z" fill="#53269B"/>
</svg>
