<svg width="51" height="51" viewBox="0 0 51 51" fill="none" xmlns="http://www.w3.org/2000/svg">
<path d="M26.0654 23.5309L24.1031 21.6403V10.6123H20.4238L26.0654 2L31.9522 10.6123H27.7824V21.6403L26.0654 23.5309Z" stroke="#53269B" stroke-width="1.5"/>
<path d="M23.8304 26.0104C23.1929 26.7251 22.3587 28.5311 21.9908 29.5814C19.4398 25.2122 14.3052 23.8399 12.0567 23.6998V27.0607L2 22.0194L12.302 17.083V20.4439C17.3058 20.1919 22.0725 24.0499 23.8304 26.0104Z" stroke="#53269B" stroke-width="1.5"/>
<path d="M26.4337 26.7456C30.3583 21.6202 36.4087 20.3389 38.9433 20.3389V17.083L49 22.1244L38.9433 26.7456V23.8048C31.4866 24.225 28.2388 29.7527 27.9054 32.6272V49.4318H24.1035V32.3122C24.2021 29.7527 25.8614 27.5509 26.4337 26.7456Z" stroke="#53269B" stroke-width="1.5"/>
</svg>
